<ttFont>
    <TTGlyph name=".notdef" xMin="65" yMin="0" xMax="449" yMax="881">
      <contour>
        <pt x="65" y="0" on="1"/>
        <pt x="65" y="881" on="1"/>
        <pt x="449" y="881" on="1"/>
        <pt x="449" y="0" on="1"/>
      </contour>
      <contour>
        <pt x="128" y="65" on="1"/>
        <pt x="384" y="65" on="1"/>
        <pt x="384" y="817" on="1"/>
        <pt x="128" y="817" on="1"/>
      </contour>
    </TTGlyph>
    <TTGlyph name="A" xMin="30" yMin="-10" xMax="551" yMax="670">
      <contour>
        <pt x="464" y="-10" on="1"/>
        <pt x="403" y="183" on="1"/>
        <pt x="173" y="183" on="1"/>
        <pt x="114" y="-10" on="1"/>
        <pt x="30" y="0" on="1"/>
        <pt x="248" y="670" on="1"/>
        <pt x="330" y="670" on="1"/>
        <pt x="551" y="4" on="1"/>
      </contour>
      <contour>
        <pt x="288" y="564" on="1"/>
        <pt x="195" y="254" on="1"/>
        <pt x="383" y="254" on="1"/>
      </contour>
    </TTGlyph>
    <TTGlyph name="AE" xMin="30" yMin="-10" xMax="842" yMax="670">
      <contour>
        <pt x="288" y="564" on="1"/>
        <pt x="195" y="254" on="1"/>
        <pt x="383" y="254" on="1"/>
      </contour>
      <contour>
        <pt x="565" y="582" on="1"/>
        <pt x="565" y="384" on="1"/>
        <pt x="823" y="384" on="1"/>
        <pt x="823" y="307" on="1"/>
        <pt x="565" y="308" on="1"/>
        <pt x="565" y="78" on="1"/>
        <pt x="839" y="79" on="1"/>
        <pt x="839" y="0" on="1"/>
        <pt x="460" y="0" on="1"/>
        <pt x="403" y="183" on="1"/>
        <pt x="173" y="183" on="1"/>
        <pt x="114" y="-10" on="1"/>
        <pt x="30" y="0" on="1"/>
        <pt x="248" y="670" on="1"/>
        <pt x="330" y="670" on="1"/>
        <pt x="474" y="232" on="1"/>
        <pt x="474" y="655" on="1"/>
        <pt x="842" y="655" on="1"/>
        <pt x="842" y="582" on="1"/>
      </contour>
    </TTGlyph>
    <TTGlyph name="Aacute" xMin="36" yMin="-10" xMax="556" yMax="862">
      <contour>
        <pt x="469" y="-10" on="1"/>
        <pt x="409" y="183" on="1"/>
        <pt x="178" y="183" on="1"/>
        <pt x="120" y="-10" on="1"/>
        <pt x="36" y="0" on="1"/>
        <pt x="253" y="670" on="1"/>
        <pt x="336" y="670" on="1"/>
        <pt x="556" y="4" on="1"/>
      </contour>
      <contour>
        <pt x="294" y="564" on="1"/>
        <pt x="200" y="254" on="1"/>
        <pt x="388" y="254" on="1"/>
      </contour>
      <contour>
        <pt x="208" y="703" on="1"/>
        <pt x="160" y="764" on="1"/>
        <pt x="375" y="862" on="1"/>
        <pt x="423" y="796" on="1"/>
      </contour>
    </TTGlyph>
    <TTGlyph name="Acircumflex" xMin="36" yMin="-10" xMax="556" yMax="860">
      <contour>
        <pt x="469" y="-10" on="1"/>
        <pt x="409" y="183" on="1"/>
        <pt x="178" y="183" on="1"/>
        <pt x="120" y="-10" on="1"/>
        <pt x="36" y="0" on="1"/>
        <pt x="253" y="670" on="1"/>
        <pt x="336" y="670" on="1"/>
        <pt x="556" y="4" on="1"/>
      </contour>
      <contour>
        <pt x="294" y="564" on="1"/>
        <pt x="200" y="254" on="1"/>
        <pt x="388" y="254" on="1"/>
      </contour>
      <contour>
        <pt x="290" y="767" on="1"/>
        <pt x="150" y="672" on="1"/>
        <pt x="150" y="744" on="1"/>
        <pt x="290" y="860" on="1"/>
        <pt x="435" y="744" on="1"/>
        <pt x="435" y="672" on="1"/>
      </contour>
    </TTGlyph>
    <TTGlyph name="Adieresis" xMin="36" yMin="-10" xMax="556" yMax="816">
      <contour>
        <pt x="469" y="-10" on="1"/>
        <pt x="409" y="183" on="1"/>
        <pt x="178" y="183" on="1"/>
        <pt x="120" y="-10" on="1"/>
        <pt x="36" y="0" on="1"/>
        <pt x="253" y="670" on="1"/>
        <pt x="336" y="670" on="1"/>
        <pt x="556" y="4" on="1"/>
      </contour>
      <contour>
        <pt x="294" y="564" on="1"/>
        <pt x="200" y="254" on="1"/>
        <pt x="388" y="254" on="1"/>
      </contour>
      <contour>
        <pt x="406" y="711" on="1"/>
        <pt x="355" y="711" on="0"/>
        <pt x="354" y="764" on="1"/>
        <pt x="354" y="787" on="0"/>
        <pt x="383" y="816" on="0"/>
        <pt x="406" y="816" on="1"/>
        <pt x="428" y="816" on="0"/>
        <pt x="457" y="785" on="0"/>
        <pt x="457" y="764" on="1"/>
        <pt x="457" y="741" on="0"/>
        <pt x="429" y="711" on="0"/>
      </contour>
      <contour>
        <pt x="190" y="711" on="1"/>
        <pt x="139" y="711" on="0"/>
        <pt x="139" y="764" on="1"/>
        <pt x="139" y="787" on="0"/>
        <pt x="168" y="816" on="0"/>
        <pt x="212" y="816" on="0"/>
        <pt x="242" y="785" on="0"/>
        <pt x="242" y="764" on="1"/>
        <pt x="242" y="741" on="0"/>
        <pt x="213" y="711" on="0"/>
      </contour>
    </TTGlyph>
    <TTGlyph name="Agrave" xMin="36" yMin="-10" xMax="556" yMax="861">
      <contour>
        <pt x="469" y="-10" on="1"/>
        <pt x="409" y="183" on="1"/>
        <pt x="178" y="183" on="1"/>
        <pt x="120" y="-10" on="1"/>
        <pt x="36" y="0" on="1"/>
        <pt x="253" y="670" on="1"/>
        <pt x="336" y="670" on="1"/>
        <pt x="556" y="4" on="1"/>
      </contour>
      <contour>
        <pt x="294" y="564" on="1"/>
        <pt x="200" y="254" on="1"/>
        <pt x="388" y="254" on="1"/>
      </contour>
      <contour>
        <pt x="374" y="702" on="1"/>
        <pt x="160" y="795" on="1"/>
        <pt x="208" y="861" on="1"/>
        <pt x="423" y="763" on="1"/>
      </contour>
    </TTGlyph>
    <TTGlyph name="Aring" xMin="36" yMin="-10" xMax="556" yMax="880">
      <contour>
        <pt x="469" y="-10" on="1"/>
        <pt x="409" y="183" on="1"/>
        <pt x="178" y="183" on="1"/>
        <pt x="120" y="-10" on="1"/>
        <pt x="36" y="0" on="1"/>
        <pt x="253" y="670" on="1"/>
        <pt x="336" y="670" on="1"/>
        <pt x="556" y="4" on="1"/>
      </contour>
      <contour>
        <pt x="294" y="564" on="1"/>
        <pt x="200" y="254" on="1"/>
        <pt x="388" y="254" on="1"/>
      </contour>
      <contour>
        <pt x="300" y="702" on="1"/>
        <pt x="260" y="702" on="0"/>
        <pt x="207" y="752" on="0"/>
        <pt x="207" y="792" on="1"/>
        <pt x="207" y="831" on="0"/>
        <pt x="260" y="880" on="0"/>
        <pt x="300" y="880" on="1"/>
        <pt x="340" y="880" on="0"/>
        <pt x="393" y="830" on="0"/>
        <pt x="393" y="792" on="1"/>
        <pt x="393" y="752" on="0"/>
        <pt x="340" y="702" on="0"/>
      </contour>
      <contour>
        <pt x="300" y="836" on="1"/>
        <pt x="256" y="836" on="0"/>
        <pt x="256" y="792" on="1"/>
        <pt x="256" y="747" on="0"/>
        <pt x="300" y="746" on="1"/>
        <pt x="344" y="746" on="0"/>
        <pt x="344" y="792" on="1"/>
        <pt x="344" y="836" on="0"/>
      </contour>
    </TTGlyph>
    <TTGlyph name="Atilde" xMin="36" yMin="-10" xMax="556" yMax="824">
      <contour>
        <pt x="469" y="-10" on="1"/>
        <pt x="409" y="183" on="1"/>
        <pt x="178" y="183" on="1"/>
        <pt x="120" y="-10" on="1"/>
        <pt x="36" y="0" on="1"/>
        <pt x="253" y="670" on="1"/>
        <pt x="336" y="670" on="1"/>
        <pt x="556" y="4" on="1"/>
      </contour>
      <contour>
        <pt x="294" y="564" on="1"/>
        <pt x="200" y="254" on="1"/>
        <pt x="388" y="254" on="1"/>
      </contour>
      <contour>
        <pt x="373" y="685" on="1"/>
        <pt x="347" y="685" on="0"/>
        <pt x="248" y="756" on="0"/>
        <pt x="234" y="756" on="1"/>
        <pt x="194" y="756" on="0"/>
        <pt x="163" y="713" on="1"/>
        <pt x="135" y="773" on="1"/>
        <pt x="149" y="795" on="0"/>
        <pt x="208" y="823" on="0"/>
        <pt x="260" y="825" on="0"/>
        <pt x="353" y="755" on="0"/>
        <pt x="371" y="755" on="1"/>
        <pt x="397" y="755" on="0"/>
        <pt x="422" y="780" on="1"/>
        <pt x="449" y="719" on="1"/>
        <pt x="440" y="708" on="0"/>
        <pt x="387" y="685" on="0"/>
      </contour>
    </TTGlyph>
    <TTGlyph name="B" xMin="65" yMin="0" xMax="482" yMax="660">
      <contour>
        <pt x="272" y="0" on="1"/>
        <pt x="65" y="2" on="1"/>
        <pt x="65" y="656" on="1"/>
        <pt x="234" y="659" on="1"/>
        <pt x="236" y="659" on="0"/>
        <pt x="248" y="660" on="1"/>
        <pt x="248" y="660" on="0"/>
        <pt x="262" y="660" on="1"/>
        <pt x="341" y="660" on="0"/>
        <pt x="387" y="623" on="1"/>
        <pt x="436" y="582" on="0"/>
        <pt x="436" y="504" on="1"/>
        <pt x="436" y="418" on="0"/>
        <pt x="393" y="387" on="1"/>
        <pt x="370" y="372" on="0"/>
        <pt x="326" y="359" on="1"/>
        <pt x="483" y="325" on="0"/>
        <pt x="482" y="188" on="1"/>
        <pt x="482" y="96" on="0"/>
        <pt x="422" y="46" on="1"/>
        <pt x="366" y="-1" on="0"/>
      </contour>
      <contour>
        <pt x="241" y="599" on="1"/>
        <pt x="227" y="599" on="0"/>
        <pt x="156" y="596" on="1"/>
        <pt x="156" y="384" on="1"/>
        <pt x="226" y="383" on="1"/>
        <pt x="281" y="382" on="0"/>
        <pt x="316" y="410" on="1"/>
        <pt x="355" y="441" on="0"/>
        <pt x="355" y="494" on="1"/>
        <pt x="355" y="599" on="0"/>
      </contour>
      <contour>
        <pt x="250" y="319" on="1"/>
        <pt x="156" y="319" on="1"/>
        <pt x="156" y="69" on="1"/>
        <pt x="252" y="69" on="1"/>
        <pt x="394" y="69" on="0"/>
        <pt x="394" y="189" on="1"/>
        <pt x="394" y="248" on="0"/>
        <pt x="310" y="319" on="0"/>
      </contour>
    </TTGlyph>
    <TTGlyph name="C" xMin="32" yMin="-8" xMax="521" yMax="676">
      <contour>
        <pt x="318" y="-8" on="1"/>
        <pt x="179" y="-8" on="0"/>
        <pt x="101" y="98" on="1"/>
        <pt x="31" y="192" on="0"/>
        <pt x="32" y="337" on="1"/>
        <pt x="32" y="476" on="0"/>
        <pt x="104" y="571" on="1"/>
        <pt x="184" y="674" on="0"/>
        <pt x="321" y="676" on="1"/>
        <pt x="369" y="676" on="0"/>
        <pt x="434" y="654" on="1"/>
        <pt x="485" y="637" on="0"/>
        <pt x="515" y="620" on="1"/>
        <pt x="476" y="539" on="1"/>
        <pt x="383" y="596" on="0"/>
        <pt x="326" y="596" on="1"/>
        <pt x="225" y="596" on="0"/>
        <pt x="168" y="499" on="1"/>
        <pt x="124" y="422" on="0"/>
        <pt x="124" y="325" on="1"/>
        <pt x="124" y="229" on="0"/>
        <pt x="171" y="157" on="1"/>
        <pt x="225" y="74" on="0"/>
        <pt x="317" y="74" on="1"/>
        <pt x="404" y="74" on="0"/>
        <pt x="481" y="118" on="1"/>
        <pt x="521" y="51" on="1"/>
        <pt x="461" y="17" on="0"/>
        <pt x="423" y="6" on="1"/>
        <pt x="376" y="-8" on="0"/>
      </contour>
    </TTGlyph>
    <TTGlyph name="Ccedilla" xMin="38" yMin="-224" xMax="526" yMax="676">
      <contour>
        <pt x="356" y="-224" on="1"/>
        <pt x="290" y="-224" on="0"/>
        <pt x="267" y="-175" on="1"/>
        <pt x="305" y="-140" on="1"/>
        <pt x="334" y="-173" on="0"/>
        <pt x="357" y="-173" on="1"/>
        <pt x="393" y="-173" on="0"/>
        <pt x="393" y="-138" on="1"/>
        <pt x="393" y="-98" on="0"/>
        <pt x="359" y="-98" on="1"/>
        <pt x="345" y="-98" on="0"/>
        <pt x="324" y="-114" on="1"/>
        <pt x="276" y="-92" on="1"/>
        <pt x="282" y="-5" on="1"/>
        <pt x="162" y="10" on="0"/>
        <pt x="95" y="116" on="1"/>
        <pt x="38" y="208" on="0"/>
        <pt x="38" y="337" on="1"/>
        <pt x="38" y="477" on="0"/>
        <pt x="110" y="571" on="1"/>
        <pt x="190" y="674" on="0"/>
        <pt x="326" y="676" on="1"/>
        <pt x="376" y="676" on="0"/>
        <pt x="440" y="654" on="1"/>
        <pt x="487" y="638" on="0"/>
        <pt x="520" y="620" on="1"/>
        <pt x="481" y="539" on="1"/>
        <pt x="388" y="596" on="0"/>
        <pt x="331" y="596" on="1"/>
        <pt x="230" y="596" on="0"/>
        <pt x="173" y="499" on="1"/>
        <pt x="129" y="422" on="0"/>
        <pt x="129" y="325" on="1"/>
        <pt x="129" y="229" on="0"/>
        <pt x="176" y="157" on="1"/>
        <pt x="230" y="74" on="0"/>
        <pt x="323" y="74" on="1"/>
        <pt x="410" y="74" on="0"/>
        <pt x="487" y="118" on="1"/>
        <pt x="526" y="51" on="1"/>
        <pt x="467" y="19" on="0"/>
        <pt x="434" y="8" on="1"/>
        <pt x="392" y="-6" on="0"/>
        <pt x="340" y="-8" on="1"/>
        <pt x="337" y="-48" on="1"/>
        <pt x="346" y="-44" on="0"/>
        <pt x="362" y="-44" on="1"/>
        <pt x="402" y="-44" on="0"/>
        <pt x="455" y="-95" on="0"/>
        <pt x="455" y="-135" on="1"/>
        <pt x="455" y="-176" on="0"/>
        <pt x="398" y="-224" on="0"/>
      </contour>
    </TTGlyph>
    <TTGlyph name="D" xMin="65" yMin="-2" xMax="546" yMax="663">
      <contour>
        <pt x="220" y="-2" on="1"/>
        <pt x="194" y="-2" on="0"/>
        <pt x="90" y="2" on="0"/>
        <pt x="65" y="2" on="1"/>
        <pt x="65" y="659" on="1"/>
        <pt x="136" y="662" on="0"/>
        <pt x="214" y="663" on="1"/>
        <pt x="387" y="663" on="0"/>
        <pt x="545" y="505" on="0"/>
        <pt x="546" y="331" on="1"/>
        <pt x="547" y="171" on="0"/>
        <pt x="380" y="-2" on="0"/>
      </contour>
      <contour>
        <pt x="449" y="319" on="1"/>
        <pt x="449" y="597" on="0"/>
        <pt x="241" y="597" on="1"/>
        <pt x="211" y="597" on="0"/>
        <pt x="156" y="595" on="1"/>
        <pt x="156" y="76" on="1"/>
        <pt x="248" y="76" on="1"/>
        <pt x="345" y="76" on="0"/>
        <pt x="399" y="152" on="1"/>
        <pt x="449" y="219" on="0"/>
      </contour>
    </TTGlyph>
    <TTGlyph name="Delta" xMin="87" yMin="0" xMax="657" yMax="673">
      <contour>
        <pt x="87" y="0" on="1"/>
        <pt x="338" y="673" on="1"/>
        <pt x="426" y="673" on="1"/>
        <pt x="657" y="0" on="1"/>
      </contour>
      <contour>
        <pt x="382" y="579" on="1"/>
        <pt x="203" y="57" on="1"/>
        <pt x="542" y="57" on="1"/>
      </contour>
    </TTGlyph>
    <TTGlyph name="E" xMin="65" yMin="0" xMax="432" yMax="655">
      <contour>
        <pt x="156" y="582" on="1"/>
        <pt x="156" y="384" on="1"/>
        <pt x="414" y="384" on="1"/>
        <pt x="414" y="307" on="1"/>
        <pt x="156" y="308" on="1"/>
        <pt x="156" y="78" on="1"/>
        <pt x="429" y="79" on="1"/>
        <pt x="429" y="0" on="1"/>
        <pt x="65" y="0" on="1"/>
        <pt x="65" y="655" on="1"/>
        <pt x="432" y="655" on="1"/>
        <pt x="432" y="582" on="1"/>
      </contour>
    </TTGlyph>
    <TTGlyph name="Eacute" xMin="70" yMin="0" xMax="437" yMax="862">
      <contour>
        <pt x="161" y="582" on="1"/>
        <pt x="161" y="384" on="1"/>
        <pt x="419" y="384" on="1"/>
        <pt x="419" y="307" on="1"/>
        <pt x="161" y="308" on="1"/>
        <pt x="161" y="78" on="1"/>
        <pt x="434" y="79" on="1"/>
        <pt x="434" y="0" on="1"/>
        <pt x="70" y="0" on="1"/>
        <pt x="70" y="655" on="1"/>
        <pt x="437" y="655" on="1"/>
        <pt x="437" y="582" on="1"/>
      </contour>
      <contour>
        <pt x="176" y="703" on="1"/>
        <pt x="129" y="764" on="1"/>
        <pt x="344" y="862" on="1"/>
        <pt x="392" y="796" on="1"/>
      </contour>
    </TTGlyph>
    <TTGlyph name="Ecircumflex" xMin="70" yMin="0" xMax="437" yMax="860">
      <contour>
        <pt x="161" y="582" on="1"/>
        <pt x="161" y="384" on="1"/>
        <pt x="419" y="384" on="1"/>
        <pt x="419" y="307" on="1"/>
        <pt x="161" y="308" on="1"/>
        <pt x="161" y="78" on="1"/>
        <pt x="434" y="79" on="1"/>
        <pt x="434" y="0" on="1"/>
        <pt x="70" y="0" on="1"/>
        <pt x="70" y="655" on="1"/>
        <pt x="437" y="655" on="1"/>
        <pt x="437" y="582" on="1"/>
      </contour>
      <contour>
        <pt x="258" y="767" on="1"/>
        <pt x="117" y="672" on="1"/>
        <pt x="117" y="744" on="1"/>
        <pt x="258" y="860" on="1"/>
        <pt x="403" y="744" on="1"/>
        <pt x="403" y="672" on="1"/>
      </contour>
    </TTGlyph>
    <TTGlyph name="Edieresis" xMin="70" yMin="0" xMax="437" yMax="819">
      <contour>
        <pt x="161" y="582" on="1"/>
        <pt x="161" y="384" on="1"/>
        <pt x="419" y="384" on="1"/>
        <pt x="419" y="307" on="1"/>
        <pt x="161" y="308" on="1"/>
        <pt x="161" y="78" on="1"/>
        <pt x="434" y="79" on="1"/>
        <pt x="434" y="0" on="1"/>
        <pt x="70" y="0" on="1"/>
        <pt x="70" y="655" on="1"/>
        <pt x="437" y="655" on="1"/>
        <pt x="437" y="582" on="1"/>
      </contour>
      <contour>
        <pt x="374" y="713" on="1"/>
        <pt x="351" y="713" on="0"/>
        <pt x="323" y="743" on="0"/>
        <pt x="323" y="766" on="1"/>
        <pt x="323" y="789" on="0"/>
        <pt x="351" y="819" on="0"/>
        <pt x="374" y="819" on="1"/>
        <pt x="396" y="819" on="0"/>
        <pt x="425" y="787" on="0"/>
        <pt x="425" y="766" on="1"/>
        <pt x="425" y="743" on="0"/>
        <pt x="397" y="713" on="0"/>
      </contour>
      <contour>
        <pt x="160" y="713" on="1"/>
        <pt x="137" y="713" on="0"/>
        <pt x="109" y="743" on="0"/>
        <pt x="109" y="766" on="1"/>
        <pt x="109" y="789" on="0"/>
        <pt x="137" y="819" on="0"/>
        <pt x="160" y="819" on="1"/>
        <pt x="183" y="819" on="0"/>
        <pt x="210" y="788" on="0"/>
        <pt x="210" y="766" on="1"/>
        <pt x="210" y="743" on="0"/>
        <pt x="183" y="713" on="0"/>
      </contour>
    </TTGlyph>
    <TTGlyph name="Egrave" xMin="70" yMin="0" xMax="437" yMax="861">
      <contour>
        <pt x="161" y="582" on="1"/>
        <pt x="161" y="384" on="1"/>
        <pt x="419" y="384" on="1"/>
        <pt x="419" y="307" on="1"/>
        <pt x="161" y="308" on="1"/>
        <pt x="161" y="78" on="1"/>
        <pt x="434" y="79" on="1"/>
        <pt x="434" y="0" on="1"/>
        <pt x="70" y="0" on="1"/>
        <pt x="70" y="655" on="1"/>
        <pt x="437" y="655" on="1"/>
        <pt x="437" y="582" on="1"/>
      </contour>
      <contour>
        <pt x="342" y="702" on="1"/>
        <pt x="129" y="795" on="1"/>
        <pt x="176" y="861" on="1"/>
        <pt x="392" y="763" on="1"/>
      </contour>
    </TTGlyph>
    <TTGlyph name="Eth" xMin="6" yMin="-2" xMax="546" yMax="663">
      <contour>
        <pt x="156" y="343" on="1"/>
        <pt x="225" y="343" on="1"/>
        <pt x="225" y="273" on="1"/>
        <pt x="156" y="273" on="1"/>
        <pt x="156" y="76" on="1"/>
        <pt x="248" y="76" on="1"/>
        <pt x="345" y="76" on="0"/>
        <pt x="399" y="152" on="1"/>
        <pt x="448" y="220" on="0"/>
        <pt x="449" y="319" on="1"/>
        <pt x="449" y="597" on="0"/>
        <pt x="241" y="597" on="1"/>
        <pt x="211" y="597" on="0"/>
        <pt x="156" y="595" on="1"/>
      </contour>
      <contour>
        <pt x="6" y="343" on="1"/>
        <pt x="65" y="343" on="1"/>
        <pt x="65" y="659" on="1"/>
        <pt x="136" y="662" on="0"/>
        <pt x="214" y="663" on="1"/>
        <pt x="387" y="663" on="0"/>
        <pt x="545" y="505" on="0"/>
        <pt x="546" y="331" on="1"/>
        <pt x="547" y="171" on="0"/>
        <pt x="380" y="-2" on="0"/>
        <pt x="220" y="-2" on="1"/>
        <pt x="194" y="-2" on="0"/>
        <pt x="90" y="2" on="0"/>
        <pt x="65" y="2" on="1"/>
        <pt x="65" y="273" on="1"/>
        <pt x="6" y="273" on="1"/>
      </contour>
    </TTGlyph>
    <TTGlyph name="F" xMin="65" yMin="0" xMax="433" yMax="655">
      <contour>
        <pt x="156" y="582" on="1"/>
        <pt x="156" y="384" on="1"/>
        <pt x="416" y="384" on="1"/>
        <pt x="416" y="307" on="1"/>
        <pt x="156" y="307" on="1"/>
        <pt x="156" y="0" on="1"/>
        <pt x="65" y="0" on="1"/>
        <pt x="65" y="655" on="1"/>
        <pt x="433" y="655" on="1"/>
        <pt x="433" y="582" on="1"/>
      </contour>
    </TTGlyph>
    <TTGlyph name="G" xMin="32" yMin="-6" xMax="531" yMax="676">
      <contour>
        <pt x="531" y="62" on="1"/>
        <pt x="470" y="25" on="0"/>
        <pt x="429" y="11" on="1"/>
        <pt x="378" y="-6" on="0"/>
        <pt x="312" y="-6" on="1"/>
        <pt x="179" y="-6" on="0"/>
        <pt x="102" y="99" on="1"/>
        <pt x="32" y="193" on="0"/>
        <pt x="32" y="331" on="1"/>
        <pt x="31" y="456" on="0"/>
        <pt x="98" y="557" on="1"/>
        <pt x="177" y="676" on="0"/>
        <pt x="308" y="676" on="1"/>
        <pt x="357" y="676" on="0"/>
        <pt x="417" y="659" on="1"/>
        <pt x="483" y="642" on="0"/>
        <pt x="515" y="614" on="1"/>
        <pt x="477" y="538" on="1"/>
        <pt x="392" y="596" on="0"/>
        <pt x="317" y="596" on="1"/>
        <pt x="220" y="596" on="0"/>
        <pt x="167" y="497" on="1"/>
        <pt x="125" y="419" on="0"/>
        <pt x="125" y="325" on="1"/>
        <pt x="125" y="231" on="0"/>
        <pt x="169" y="159" on="1"/>
        <pt x="221" y="74" on="0"/>
        <pt x="309" y="74" on="1"/>
        <pt x="382" y="74" on="0"/>
        <pt x="441" y="105" on="1"/>
        <pt x="441" y="308" on="1"/>
        <pt x="296" y="308" on="1"/>
        <pt x="296" y="384" on="1"/>
        <pt x="531" y="384" on="1"/>
      </contour>
    </TTGlyph>
    <TTGlyph name="H" xMin="65" yMin="0" xMax="531" yMax="655">
      <contour>
        <pt x="441" y="0" on="1"/>
        <pt x="441" y="307" on="1"/>
        <pt x="156" y="307" on="1"/>
        <pt x="156" y="0" on="1"/>
        <pt x="65" y="0" on="1"/>
        <pt x="65" y="655" on="1"/>
        <pt x="156" y="655" on="1"/>
        <pt x="156" y="384" on="1"/>
        <pt x="441" y="384" on="1"/>
        <pt x="441" y="655" on="1"/>
        <pt x="531" y="655" on="1"/>
        <pt x="531" y="0" on="1"/>
      </contour>
    </TTGlyph>
    <TTGlyph name="I" xMin="65" yMin="0" xMax="156" yMax="657">
      <contour>
        <pt x="65" y="0" on="1"/>
        <pt x="65" y="657" on="1"/>
        <pt x="156" y="657" on="1"/>
        <pt x="156" y="0" on="1"/>
      </contour>
    </TTGlyph>
    <TTGlyph name="Iacute" xMin="-11" yMin="0" xMax="252" yMax="862">
      <contour>
        <pt x="70" y="0" on="1"/>
        <pt x="70" y="657" on="1"/>
        <pt x="161" y="657" on="1"/>
        <pt x="161" y="0" on="1"/>
      </contour>
      <contour>
        <pt x="37" y="703" on="1"/>
        <pt x="-11" y="764" on="1"/>
        <pt x="204" y="862" on="1"/>
        <pt x="252" y="796" on="1"/>
      </contour>
    </TTGlyph>
    <TTGlyph name="Icircumflex" xMin="-23" yMin="0" xMax="263" yMax="860">
      <contour>
        <pt x="70" y="0" on="1"/>
        <pt x="70" y="657" on="1"/>
        <pt x="161" y="657" on="1"/>
        <pt x="161" y="0" on="1"/>
      </contour>
      <contour>
        <pt x="118" y="767" on="1"/>
        <pt x="-23" y="672" on="1"/>
        <pt x="-23" y="744" on="1"/>
        <pt x="118" y="860" on="1"/>
        <pt x="263" y="744" on="1"/>
        <pt x="263" y="672" on="1"/>
      </contour>
    </TTGlyph>
    <TTGlyph name="Idieresis" xMin="-42" yMin="0" xMax="274" yMax="819">
      <contour>
        <pt x="70" y="0" on="1"/>
        <pt x="70" y="657" on="1"/>
        <pt x="161" y="657" on="1"/>
        <pt x="161" y="0" on="1"/>
      </contour>
      <contour>
        <pt x="223" y="713" on="1"/>
        <pt x="200" y="713" on="0"/>
        <pt x="172" y="743" on="0"/>
        <pt x="172" y="766" on="1"/>
        <pt x="172" y="789" on="0"/>
        <pt x="201" y="819" on="0"/>
        <pt x="245" y="819" on="0"/>
        <pt x="274" y="787" on="0"/>
        <pt x="274" y="766" on="1"/>
        <pt x="274" y="743" on="0"/>
        <pt x="246" y="713" on="0"/>
      </contour>
      <contour>
        <pt x="9" y="713" on="1"/>
        <pt x="-14" y="713" on="0"/>
        <pt x="-42" y="743" on="0"/>
        <pt x="-42" y="766" on="1"/>
        <pt x="-42" y="789" on="0"/>
        <pt x="-13" y="819" on="0"/>
        <pt x="9" y="819" on="1"/>
        <pt x="32" y="819" on="0"/>
        <pt x="59" y="788" on="0"/>
        <pt x="59" y="766" on="1"/>
        <pt x="59" y="743" on="0"/>
        <pt x="32" y="713" on="0"/>
      </contour>
    </TTGlyph>
    <TTGlyph name="Igrave" xMin="-11" yMin="0" xMax="252" yMax="861">
      <contour>
        <pt x="70" y="0" on="1"/>
        <pt x="70" y="657" on="1"/>
        <pt x="161" y="657" on="1"/>
        <pt x="161" y="0" on="1"/>
      </contour>
      <contour>
        <pt x="203" y="702" on="1"/>
        <pt x="-11" y="795" on="1"/>
        <pt x="37" y="861" on="1"/>
        <pt x="252" y="763" on="1"/>
      </contour>
    </TTGlyph>
    <TTGlyph name="J" xMin="-152" yMin="-163" xMax="156" yMax="653">
      <contour>
        <pt x="156" y="71" on="1"/>
        <pt x="156" y="-162" on="0"/>
        <pt x="-49" y="-163" on="1"/>
        <pt x="-109" y="-163" on="0"/>
        <pt x="-152" y="-112" on="1"/>
        <pt x="-104" y="-43" on="1"/>
        <pt x="-70" y="-79" on="0"/>
        <pt x="-36" y="-79" on="1"/>
        <pt x="64" y="-79" on="0"/>
        <pt x="65" y="62" on="1"/>
        <pt x="65" y="653" on="1"/>
        <pt x="156" y="653" on="1"/>
      </contour>
    </TTGlyph>
    <TTGlyph name="K" xMin="65" yMin="-22" xMax="539" yMax="681">
      <contour>
        <pt x="430" y="-22" on="1"/>
        <pt x="340" y="98" on="0"/>
        <pt x="204" y="283" on="1"/>
        <pt x="156" y="211" on="1"/>
        <pt x="156" y="0" on="1"/>
        <pt x="65" y="0" on="1"/>
        <pt x="65" y="655" on="1"/>
        <pt x="156" y="655" on="1"/>
        <pt x="156" y="333" on="1"/>
        <pt x="321" y="550" on="0"/>
        <pt x="412" y="681" on="1"/>
        <pt x="483" y="630" on="1"/>
        <pt x="398" y="525" on="0"/>
        <pt x="262" y="343" on="1"/>
        <pt x="304" y="274" on="0"/>
        <pt x="398" y="164" on="1"/>
        <pt x="440" y="115" on="0"/>
        <pt x="539" y="2" on="1"/>
      </contour>
    </TTGlyph>
    <TTGlyph name="L" xMin="65" yMin="0" xMax="449" yMax="656">
      <contour>
        <pt x="65" y="0" on="1"/>
        <pt x="65" y="656" on="1"/>
        <pt x="156" y="656" on="1"/>
        <pt x="156" y="74" on="1"/>
        <pt x="449" y="74" on="1"/>
        <pt x="449" y="0" on="1"/>
      </contour>
    </TTGlyph>
    <TTGlyph name="Lslash" xMin="6" yMin="0" xMax="449" yMax="656">
      <contour>
        <pt x="6" y="343" on="1"/>
        <pt x="65" y="365" on="1"/>
        <pt x="65" y="656" on="1"/>
        <pt x="156" y="656" on="1"/>
        <pt x="156" y="399" on="1"/>
        <pt x="225" y="425" on="1"/>
        <pt x="225" y="345" on="1"/>
        <pt x="156" y="319" on="1"/>
        <pt x="156" y="74" on="1"/>
        <pt x="449" y="74" on="1"/>
        <pt x="449" y="0" on="1"/>
        <pt x="65" y="0" on="1"/>
        <pt x="65" y="285" on="1"/>
        <pt x="6" y="263" on="1"/>
      </contour>
    </TTGlyph>
    <TTGlyph name="M" xMin="76" yMin="-1" xMax="736" yMax="657">
      <contour>
        <pt x="645" y="0" on="1"/>
        <pt x="645" y="523" on="1"/>
        <pt x="446" y="-1" on="1"/>
        <pt x="361" y="-1" on="1"/>
        <pt x="160" y="527" on="1"/>
        <pt x="160" y="0" on="1"/>
        <pt x="76" y="0" on="1"/>
        <pt x="76" y="657" on="1"/>
        <pt x="206" y="657" on="1"/>
        <pt x="409" y="130" on="1"/>
        <pt x="616" y="657" on="1"/>
        <pt x="736" y="657" on="1"/>
        <pt x="736" y="0" on="1"/>
      </contour>
    </TTGlyph>
    <TTGlyph name="N" xMin="65" yMin="-11" xMax="531" yMax="659">
      <contour>
        <pt x="467" y="-11" on="1"/>
        <pt x="375" y="155" on="0"/>
        <pt x="150" y="475" on="1"/>
        <pt x="150" y="1" on="1"/>
        <pt x="65" y="0" on="1"/>
        <pt x="65" y="659" on="1"/>
        <pt x="140" y="659" on="1"/>
        <pt x="447" y="194" on="1"/>
        <pt x="447" y="655" on="1"/>
        <pt x="531" y="655" on="1"/>
        <pt x="531" y="11" on="1"/>
      </contour>
    </TTGlyph>
    <TTGlyph name="Ntilde" xMin="70" yMin="-11" xMax="537" yMax="814">
      <contour>
        <pt x="472" y="-11" on="1"/>
        <pt x="380" y="155" on="0"/>
        <pt x="155" y="475" on="1"/>
        <pt x="155" y="1" on="1"/>
        <pt x="70" y="0" on="1"/>
        <pt x="70" y="659" on="1"/>
        <pt x="145" y="659" on="1"/>
        <pt x="453" y="194" on="1"/>
        <pt x="453" y="655" on="1"/>
        <pt x="537" y="655" on="1"/>
        <pt x="537" y="11" on="1"/>
      </contour>
      <contour>
        <pt x="394" y="675" on="1"/>
        <pt x="368" y="675" on="0"/>
        <pt x="269" y="745" on="0"/>
        <pt x="256" y="745" on="1"/>
        <pt x="216" y="745" on="0"/>
        <pt x="184" y="702" on="1"/>
        <pt x="157" y="763" on="1"/>
        <pt x="171" y="785" on="0"/>
        <pt x="229" y="813" on="0"/>
        <pt x="256" y="814" on="1"/>
        <pt x="282" y="815" on="0"/>
        <pt x="375" y="744" on="0"/>
        <pt x="392" y="744" on="1"/>
        <pt x="418" y="744" on="0"/>
        <pt x="443" y="770" on="1"/>
        <pt x="470" y="709" on="1"/>
        <pt x="461" y="698" on="0"/>
        <pt x="408" y="675" on="0"/>
      </contour>
    </TTGlyph>
    <TTGlyph name="O" xMin="33" yMin="-16" xMax="628" yMax="662">
      <contour>
        <pt x="327" y="-16" on="1"/>
        <pt x="184" y="-16" on="0"/>
        <pt x="104" y="88" on="1"/>
        <pt x="32" y="181" on="0"/>
        <pt x="33" y="330" on="1"/>
        <pt x="33" y="469" on="0"/>
        <pt x="113" y="562" on="1"/>
        <pt x="197" y="661" on="0"/>
        <pt x="334" y="662" on="1"/>
        <pt x="470" y="662" on="0"/>
        <pt x="552" y="562" on="1"/>
        <pt x="628" y="469" on="0"/>
        <pt x="628" y="330" on="1"/>
        <pt x="628" y="183" on="0"/>
        <pt x="552" y="87" on="1"/>
        <pt x="470" y="-16" on="0"/>
      </contour>
      <contour>
        <pt x="332" y="586" on="1"/>
        <pt x="232" y="586" on="0"/>
        <pt x="171" y="501" on="1"/>
        <pt x="118" y="425" on="0"/>
        <pt x="118" y="321" on="1"/>
        <pt x="118" y="221" on="0"/>
        <pt x="171" y="145" on="1"/>
        <pt x="230" y="62" on="0"/>
        <pt x="424" y="62" on="0"/>
        <pt x="486" y="144" on="1"/>
        <pt x="543" y="220" on="0"/>
        <pt x="544" y="319" on="1"/>
        <pt x="544" y="422" on="0"/>
        <pt x="490" y="500" on="1"/>
        <pt x="431" y="586" on="0"/>
      </contour>
    </TTGlyph>
    <TTGlyph name="OE" xMin="43" yMin="-3" xMax="987" yMax="673">
      <contour>
        <pt x="624" y="0" on="1"/>
        <pt x="624" y="228" on="1"/>
        <pt x="533" y="-3" on="0"/>
        <pt x="337" y="-3" on="1"/>
        <pt x="194" y="-3" on="0"/>
        <pt x="115" y="104" on="1"/>
        <pt x="43" y="200" on="0"/>
        <pt x="43" y="349" on="1"/>
        <pt x="43" y="488" on="0"/>
        <pt x="123" y="579" on="1"/>
        <pt x="206" y="673" on="0"/>
        <pt x="343" y="673" on="1"/>
        <pt x="533" y="673" on="0"/>
        <pt x="624" y="460" on="1"/>
        <pt x="624" y="665" on="1"/>
        <pt x="987" y="665" on="1"/>
        <pt x="987" y="591" on="1"/>
        <pt x="716" y="591" on="1"/>
        <pt x="716" y="393" on="1"/>
        <pt x="977" y="393" on="1"/>
        <pt x="977" y="316" on="1"/>
        <pt x="713" y="316" on="1"/>
        <pt x="714" y="86" on="1"/>
        <pt x="987" y="86" on="1"/>
        <pt x="987" y="0" on="1"/>
      </contour>
      <contour>
        <pt x="342" y="595" on="1"/>
        <pt x="242" y="595" on="0"/>
        <pt x="182" y="515" on="1"/>
        <pt x="129" y="442" on="0"/>
        <pt x="129" y="339" on="1"/>
        <pt x="129" y="239" on="0"/>
        <pt x="181" y="163" on="1"/>
        <pt x="240" y="77" on="0"/>
        <pt x="337" y="77" on="1"/>
        <pt x="433" y="77" on="0"/>
        <pt x="496" y="162" on="1"/>
        <pt x="552" y="240" on="0"/>
        <pt x="552" y="339" on="1"/>
        <pt x="552" y="442" on="0"/>
        <pt x="500" y="514" on="1"/>
        <pt x="441" y="595" on="0"/>
      </contour>
    </TTGlyph>
    <TTGlyph name="Oacute" xMin="38" yMin="-16" xMax="633" yMax="862">
      <contour>
        <pt x="332" y="-16" on="1"/>
        <pt x="189" y="-16" on="0"/>
        <pt x="110" y="88" on="1"/>
        <pt x="38" y="181" on="0"/>
        <pt x="38" y="330" on="1"/>
        <pt x="38" y="469" on="0"/>
        <pt x="118" y="562" on="1"/>
        <pt x="202" y="661" on="0"/>
        <pt x="339" y="662" on="1"/>
        <pt x="475" y="662" on="0"/>
        <pt x="557" y="562" on="1"/>
        <pt x="633" y="469" on="0"/>
        <pt x="633" y="330" on="1"/>
        <pt x="633" y="182" on="0"/>
        <pt x="558" y="86" on="1"/>
        <pt x="476" y="-16" on="0"/>
      </contour>
      <contour>
        <pt x="337" y="586" on="1"/>
        <pt x="237" y="586" on="0"/>
        <pt x="176" y="501" on="1"/>
        <pt x="123" y="425" on="0"/>
        <pt x="123" y="321" on="1"/>
        <pt x="123" y="221" on="0"/>
        <pt x="176" y="145" on="1"/>
        <pt x="235" y="62" on="0"/>
        <pt x="429" y="62" on="0"/>
        <pt x="492" y="144" on="1"/>
        <pt x="549" y="220" on="0"/>
        <pt x="549" y="319" on="1"/>
        <pt x="549" y="422" on="0"/>
        <pt x="496" y="500" on="1"/>
        <pt x="436" y="586" on="0"/>
      </contour>
      <contour>
        <pt x="252" y="703" on="1"/>
        <pt x="204" y="764" on="1"/>
        <pt x="419" y="862" on="1"/>
        <pt x="467" y="796" on="1"/>
      </contour>
    </TTGlyph>
    <TTGlyph name="Ocircumflex" xMin="38" yMin="-16" xMax="633" yMax="870">
      <contour>
        <pt x="332" y="-16" on="1"/>
        <pt x="189" y="-16" on="0"/>
        <pt x="110" y="88" on="1"/>
        <pt x="38" y="181" on="0"/>
        <pt x="38" y="330" on="1"/>
        <pt x="38" y="469" on="0"/>
        <pt x="118" y="562" on="1"/>
        <pt x="202" y="661" on="0"/>
        <pt x="339" y="662" on="1"/>
        <pt x="475" y="662" on="0"/>
        <pt x="557" y="562" on="1"/>
        <pt x="633" y="469" on="0"/>
        <pt x="633" y="330" on="1"/>
        <pt x="633" y="182" on="0"/>
        <pt x="558" y="86" on="1"/>
        <pt x="476" y="-16" on="0"/>
      </contour>
      <contour>
        <pt x="337" y="586" on="1"/>
        <pt x="237" y="586" on="0"/>
        <pt x="176" y="501" on="1"/>
        <pt x="123" y="425" on="0"/>
        <pt x="123" y="321" on="1"/>
        <pt x="123" y="221" on="0"/>
        <pt x="176" y="145" on="1"/>
        <pt x="235" y="62" on="0"/>
        <pt x="429" y="62" on="0"/>
        <pt x="492" y="144" on="1"/>
        <pt x="549" y="220" on="0"/>
        <pt x="549" y="319" on="1"/>
        <pt x="549" y="422" on="0"/>
        <pt x="496" y="500" on="1"/>
        <pt x="436" y="586" on="0"/>
      </contour>
      <contour>
        <pt x="341" y="777" on="1"/>
        <pt x="200" y="682" on="1"/>
        <pt x="200" y="755" on="1"/>
        <pt x="341" y="870" on="1"/>
        <pt x="486" y="755" on="1"/>
        <pt x="486" y="682" on="1"/>
      </contour>
    </TTGlyph>
    <TTGlyph name="Odieresis" xMin="38" yMin="-16" xMax="633" yMax="819">
      <contour>
        <pt x="332" y="-16" on="1"/>
        <pt x="189" y="-16" on="0"/>
        <pt x="110" y="88" on="1"/>
        <pt x="38" y="181" on="0"/>
        <pt x="38" y="330" on="1"/>
        <pt x="38" y="469" on="0"/>
        <pt x="118" y="562" on="1"/>
        <pt x="202" y="661" on="0"/>
        <pt x="339" y="662" on="1"/>
        <pt x="475" y="662" on="0"/>
        <pt x="557" y="562" on="1"/>
        <pt x="633" y="469" on="0"/>
        <pt x="633" y="330" on="1"/>
        <pt x="633" y="182" on="0"/>
        <pt x="558" y="86" on="1"/>
        <pt x="476" y="-16" on="0"/>
      </contour>
      <contour>
        <pt x="337" y="586" on="1"/>
        <pt x="237" y="586" on="0"/>
        <pt x="176" y="501" on="1"/>
        <pt x="123" y="425" on="0"/>
        <pt x="123" y="321" on="1"/>
        <pt x="123" y="221" on="0"/>
        <pt x="176" y="145" on="1"/>
        <pt x="235" y="62" on="0"/>
        <pt x="429" y="62" on="0"/>
        <pt x="492" y="144" on="1"/>
        <pt x="549" y="220" on="0"/>
        <pt x="549" y="319" on="1"/>
        <pt x="549" y="422" on="0"/>
        <pt x="496" y="500" on="1"/>
        <pt x="436" y="586" on="0"/>
      </contour>
      <contour>
        <pt x="450" y="713" on="1"/>
        <pt x="427" y="713" on="0"/>
        <pt x="398" y="743" on="0"/>
        <pt x="398" y="766" on="1"/>
        <pt x="398" y="789" on="0"/>
        <pt x="427" y="819" on="0"/>
        <pt x="450" y="819" on="1"/>
        <pt x="472" y="819" on="0"/>
        <pt x="501" y="787" on="0"/>
        <pt x="501" y="766" on="1"/>
        <pt x="501" y="743" on="0"/>
        <pt x="473" y="713" on="0"/>
      </contour>
      <contour>
        <pt x="234" y="713" on="1"/>
        <pt x="211" y="713" on="0"/>
        <pt x="183" y="743" on="0"/>
        <pt x="183" y="766" on="1"/>
        <pt x="183" y="789" on="0"/>
        <pt x="212" y="819" on="0"/>
        <pt x="256" y="819" on="0"/>
        <pt x="286" y="787" on="0"/>
        <pt x="286" y="766" on="1"/>
        <pt x="286" y="743" on="0"/>
        <pt x="257" y="713" on="0"/>
      </contour>
    </TTGlyph>
    <TTGlyph name="Ograve" xMin="38" yMin="-16" xMax="633" yMax="861">
      <contour>
        <pt x="332" y="-16" on="1"/>
        <pt x="189" y="-16" on="0"/>
        <pt x="110" y="88" on="1"/>
        <pt x="38" y="181" on="0"/>
        <pt x="38" y="330" on="1"/>
        <pt x="38" y="469" on="0"/>
        <pt x="118" y="562" on="1"/>
        <pt x="202" y="661" on="0"/>
        <pt x="339" y="662" on="1"/>
        <pt x="475" y="662" on="0"/>
        <pt x="557" y="562" on="1"/>
        <pt x="633" y="469" on="0"/>
        <pt x="633" y="330" on="1"/>
        <pt x="633" y="182" on="0"/>
        <pt x="558" y="86" on="1"/>
        <pt x="476" y="-16" on="0"/>
      </contour>
      <contour>
        <pt x="337" y="586" on="1"/>
        <pt x="237" y="586" on="0"/>
        <pt x="176" y="501" on="1"/>
        <pt x="123" y="425" on="0"/>
        <pt x="123" y="321" on="1"/>
        <pt x="123" y="221" on="0"/>
        <pt x="176" y="145" on="1"/>
        <pt x="235" y="62" on="0"/>
        <pt x="429" y="62" on="0"/>
        <pt x="492" y="144" on="1"/>
        <pt x="549" y="220" on="0"/>
        <pt x="549" y="319" on="1"/>
        <pt x="549" y="422" on="0"/>
        <pt x="496" y="500" on="1"/>
        <pt x="436" y="586" on="0"/>
      </contour>
      <contour>
        <pt x="418" y="702" on="1"/>
        <pt x="204" y="795" on="1"/>
        <pt x="252" y="861" on="1"/>
        <pt x="467" y="763" on="1"/>
      </contour>
    </TTGlyph>
    <TTGlyph name="Omega" xMin="41" yMin="0" xMax="600" yMax="652">
      <contour>
        <pt x="415" y="133" on="1"/>
        <pt x="415" y="67" on="1"/>
        <pt x="577" y="67" on="1"/>
        <pt x="577" y="0" on="1"/>
        <pt x="366" y="0" on="1"/>
        <pt x="366" y="180" on="1"/>
        <pt x="428" y="180" on="0"/>
        <pt x="474" y="245" on="1"/>
        <pt x="514" y="301" on="0"/>
        <pt x="514" y="357" on="1"/>
        <pt x="514" y="461" on="0"/>
        <pt x="473" y="523" on="1"/>
        <pt x="425" y="595" on="0"/>
        <pt x="326" y="595" on="1"/>
        <pt x="227" y="595" on="0"/>
        <pt x="173" y="524" on="1"/>
        <pt x="127" y="461" on="0"/>
        <pt x="127" y="357" on="1"/>
        <pt x="127" y="297" on="0"/>
        <pt x="161" y="245" on="1"/>
        <pt x="203" y="180" on="0"/>
        <pt x="275" y="180" on="1"/>
        <pt x="275" y="0" on="1"/>
        <pt x="63" y="0" on="1"/>
        <pt x="63" y="67" on="1"/>
        <pt x="222" y="67" on="1"/>
        <pt x="222" y="132" on="1"/>
        <pt x="147" y="143" on="0"/>
        <pt x="93" y="218" on="1"/>
        <pt x="41" y="290" on="0"/>
        <pt x="41" y="368" on="1"/>
        <pt x="41" y="507" on="0"/>
        <pt x="187" y="652" on="0"/>
        <pt x="327" y="652" on="1"/>
        <pt x="600" y="652" on="0"/>
        <pt x="600" y="368" on="1"/>
        <pt x="600" y="291" on="0"/>
        <pt x="546" y="218" on="1"/>
        <pt x="490" y="141" on="0"/>
      </contour>
    </TTGlyph>
    <TTGlyph name="Oslash" xMin="33" yMin="-71" xMax="628" yMax="698">
      <contour>
        <pt x="222" y="95" on="1"/>
        <pt x="371" y="582" on="1"/>
        <pt x="355" y="586" on="0"/>
        <pt x="332" y="586" on="1"/>
        <pt x="232" y="586" on="0"/>
        <pt x="171" y="501" on="1"/>
        <pt x="118" y="425" on="0"/>
        <pt x="118" y="321" on="1"/>
        <pt x="118" y="253" on="0"/>
        <pt x="143" y="195" on="1"/>
        <pt x="171" y="131" on="0"/>
      </contour>
      <contour>
        <pt x="447" y="546" on="1"/>
        <pt x="300" y="65" on="1"/>
        <pt x="318" y="63" on="0"/>
        <pt x="327" y="62" on="1"/>
        <pt x="424" y="62" on="0"/>
        <pt x="486" y="144" on="1"/>
        <pt x="543" y="220" on="0"/>
        <pt x="544" y="319" on="1"/>
        <pt x="543" y="469" on="0"/>
      </contour>
      <contour>
        <pt x="407" y="698" on="1"/>
        <pt x="486" y="674" on="1"/>
        <pt x="472" y="627" on="1"/>
        <pt x="550" y="584" on="0"/>
        <pt x="591" y="501" on="1"/>
        <pt x="628" y="424" on="0"/>
        <pt x="628" y="330" on="1"/>
        <pt x="628" y="183" on="0"/>
        <pt x="552" y="87" on="1"/>
        <pt x="470" y="-16" on="0"/>
        <pt x="327" y="-16" on="1"/>
        <pt x="298" y="-16" on="0"/>
        <pt x="276" y="-12" on="1"/>
        <pt x="259" y="-71" on="1"/>
        <pt x="179" y="-46" on="1"/>
        <pt x="197" y="12" on="1"/>
        <pt x="33" y="93" on="0"/>
        <pt x="33" y="330" on="1"/>
        <pt x="33" y="469" on="0"/>
        <pt x="113" y="562" on="1"/>
        <pt x="197" y="661" on="0"/>
        <pt x="334" y="662" on="1"/>
        <pt x="366" y="662" on="0"/>
        <pt x="393" y="655" on="1"/>
      </contour>
    </TTGlyph>
    <TTGlyph name="Otilde" xMin="38" yMin="-16" xMax="633" yMax="824">
      <contour>
        <pt x="332" y="-16" on="1"/>
        <pt x="189" y="-16" on="0"/>
        <pt x="110" y="88" on="1"/>
        <pt x="38" y="181" on="0"/>
        <pt x="38" y="330" on="1"/>
        <pt x="38" y="469" on="0"/>
        <pt x="118" y="562" on="1"/>
        <pt x="202" y="661" on="0"/>
        <pt x="339" y="662" on="1"/>
        <pt x="475" y="662" on="0"/>
        <pt x="557" y="562" on="1"/>
        <pt x="633" y="469" on="0"/>
        <pt x="633" y="330" on="1"/>
        <pt x="633" y="182" on="0"/>
        <pt x="558" y="86" on="1"/>
        <pt x="476" y="-16" on="0"/>
      </contour>
      <contour>
        <pt x="337" y="586" on="1"/>
        <pt x="237" y="586" on="0"/>
        <pt x="176" y="501" on="1"/>
        <pt x="123" y="425" on="0"/>
        <pt x="123" y="321" on="1"/>
        <pt x="123" y="221" on="0"/>
        <pt x="176" y="145" on="1"/>
        <pt x="235" y="62" on="0"/>
        <pt x="429" y="62" on="0"/>
        <pt x="492" y="144" on="1"/>
        <pt x="549" y="220" on="0"/>
        <pt x="549" y="319" on="1"/>
        <pt x="549" y="422" on="0"/>
        <pt x="496" y="500" on="1"/>
        <pt x="436" y="586" on="0"/>
      </contour>
      <contour>
        <pt x="394" y="685" on="1"/>
        <pt x="368" y="685" on="0"/>
        <pt x="269" y="756" on="0"/>
        <pt x="256" y="756" on="1"/>
        <pt x="216" y="756" on="0"/>
        <pt x="184" y="713" on="1"/>
        <pt x="157" y="773" on="1"/>
        <pt x="171" y="795" on="0"/>
        <pt x="229" y="823" on="0"/>
        <pt x="256" y="824" on="1"/>
        <pt x="282" y="825" on="0"/>
        <pt x="375" y="755" on="0"/>
        <pt x="392" y="755" on="1"/>
        <pt x="418" y="755" on="0"/>
        <pt x="443" y="780" on="1"/>
        <pt x="470" y="719" on="1"/>
        <pt x="461" y="708" on="0"/>
        <pt x="408" y="685" on="0"/>
      </contour>
    </TTGlyph>
    <TTGlyph name="P" xMin="65" yMin="0" xMax="437" yMax="659">
      <contour>
        <pt x="250" y="270" on="1"/>
        <pt x="211" y="270" on="0"/>
        <pt x="156" y="274" on="1"/>
        <pt x="156" y="0" on="1"/>
        <pt x="65" y="0" on="1"/>
        <pt x="65" y="655" on="1"/>
        <pt x="258" y="659" on="1"/>
        <pt x="341" y="661" on="0"/>
        <pt x="437" y="554" on="0"/>
        <pt x="437" y="470" on="1"/>
        <pt x="437" y="388" on="0"/>
        <pt x="331" y="270" on="0"/>
      </contour>
      <contour>
        <pt x="246" y="599" on="1"/>
        <pt x="156" y="597" on="1"/>
        <pt x="156" y="338" on="1"/>
        <pt x="236" y="339" on="1"/>
        <pt x="287" y="340" on="0"/>
        <pt x="317" y="379" on="1"/>
        <pt x="347" y="415" on="0"/>
        <pt x="347" y="467" on="1"/>
        <pt x="347" y="601" on="0"/>
      </contour>
    </TTGlyph>
    <TTGlyph name="Q" xMin="32" yMin="-72" xMax="676" yMax="662">
      <contour>
        <pt x="622" y="-72" on="1"/>
        <pt x="497" y="38" on="1"/>
        <pt x="420" y="-16" on="0"/>
        <pt x="326" y="-16" on="1"/>
        <pt x="184" y="-16" on="0"/>
        <pt x="104" y="89" on="1"/>
        <pt x="31" y="184" on="0"/>
        <pt x="32" y="331" on="1"/>
        <pt x="32" y="471" on="0"/>
        <pt x="112" y="563" on="1"/>
        <pt x="197" y="661" on="0"/>
        <pt x="334" y="662" on="1"/>
        <pt x="470" y="662" on="0"/>
        <pt x="551" y="564" on="1"/>
        <pt x="627" y="473" on="0"/>
        <pt x="627" y="334" on="1"/>
        <pt x="627" y="269" on="0"/>
        <pt x="611" y="207" on="1"/>
        <pt x="592" y="130" on="0"/>
        <pt x="556" y="94" on="1"/>
        <pt x="676" y="-11" on="1"/>
      </contour>
      <contour>
        <pt x="331" y="585" on="1"/>
        <pt x="231" y="585" on="0"/>
        <pt x="171" y="501" on="1"/>
        <pt x="117" y="426" on="0"/>
        <pt x="117" y="323" on="1"/>
        <pt x="117" y="225" on="0"/>
        <pt x="169" y="148" on="1"/>
        <pt x="228" y="62" on="0"/>
        <pt x="323" y="62" on="1"/>
        <pt x="379" y="62" on="0"/>
        <pt x="432" y="95" on="1"/>
        <pt x="355" y="163" on="1"/>
        <pt x="411" y="222" on="1"/>
        <pt x="489" y="153" on="1"/>
        <pt x="542" y="228" on="0"/>
        <pt x="543" y="324" on="1"/>
        <pt x="543" y="428" on="0"/>
        <pt x="490" y="502" on="1"/>
        <pt x="431" y="585" on="0"/>
      </contour>
    </TTGlyph>
    <TTGlyph name="R" xMin="65" yMin="-10" xMax="538" yMax="659">
      <contour>
        <pt x="424" y="-10" on="1"/>
        <pt x="372" y="42" on="0"/>
        <pt x="303" y="140" on="1"/>
        <pt x="256" y="207" on="0"/>
        <pt x="201" y="298" on="1"/>
        <pt x="156" y="296" on="1"/>
        <pt x="156" y="0" on="1"/>
        <pt x="65" y="0" on="1"/>
        <pt x="65" y="656" on="1"/>
        <pt x="271" y="659" on="1"/>
        <pt x="450" y="657" on="0"/>
        <pt x="449" y="478" on="1"/>
        <pt x="448" y="407" on="0"/>
        <pt x="364" y="317" on="0"/>
        <pt x="292" y="303" on="1"/>
        <pt x="326" y="256" on="0"/>
        <pt x="402" y="156" on="1"/>
        <pt x="443" y="103" on="0"/>
        <pt x="538" y="10" on="1"/>
      </contour>
      <contour>
        <pt x="245" y="597" on="1"/>
        <pt x="156" y="595" on="1"/>
        <pt x="156" y="365" on="1"/>
        <pt x="222" y="365" on="1"/>
        <pt x="296" y="365" on="0"/>
        <pt x="365" y="419" on="0"/>
        <pt x="365" y="489" on="1"/>
        <pt x="365" y="600" on="0"/>
      </contour>
    </TTGlyph>
    <TTGlyph name="S" xMin="42" yMin="-10" xMax="461" yMax="682">
      <contour>
        <pt x="245" y="-10" on="1"/>
        <pt x="187" y="-10" on="0"/>
        <pt x="133" y="10" on="1"/>
        <pt x="73" y="33" on="0"/>
        <pt x="42" y="75" on="1"/>
        <pt x="89" y="140" on="1"/>
        <pt x="151" y="67" on="0"/>
        <pt x="248" y="68" on="1"/>
        <pt x="305" y="68" on="0"/>
        <pt x="373" y="130" on="0"/>
        <pt x="373" y="187" on="1"/>
        <pt x="373" y="256" on="0"/>
        <pt x="292" y="290" on="1"/>
        <pt x="242" y="310" on="0"/>
        <pt x="141" y="352" on="1"/>
        <pt x="61" y="402" on="0"/>
        <pt x="62" y="507" on="1"/>
        <pt x="63" y="585" on="0"/>
        <pt x="124" y="635" on="1"/>
        <pt x="180" y="682" on="0"/>
        <pt x="260" y="682" on="1"/>
        <pt x="354" y="682" on="0"/>
        <pt x="433" y="620" on="1"/>
        <pt x="390" y="555" on="1"/>
        <pt x="336" y="604" on="0"/>
        <pt x="260" y="604" on="1"/>
        <pt x="156" y="604" on="0"/>
        <pt x="156" y="501" on="1"/>
        <pt x="156" y="436" on="0"/>
        <pt x="262" y="400" on="1"/>
        <pt x="374" y="362" on="0"/>
        <pt x="409" y="333" on="1"/>
        <pt x="461" y="288" on="0"/>
        <pt x="461" y="189" on="1"/>
        <pt x="461" y="94" on="0"/>
        <pt x="341" y="-10" on="0"/>
      </contour>
    </TTGlyph>
    <TTGlyph name="Scaron" xMin="41" yMin="-10" xMax="450" yMax="864">
      <component glyphName="S" x="0" y="0" flags="0x1004"/>
      <component glyphName="caron" x="134" y="154" flags="0x1004"/>
    </TTGlyph>
    <TTGlyph name="T" xMin="32" yMin="0" xMax="516" yMax="654">
      <contour>
        <pt x="326" y="586" on="1"/>
        <pt x="326" y="0" on="1"/>
        <pt x="234" y="0" on="1"/>
        <pt x="234" y="586" on="1"/>
        <pt x="32" y="586" on="1"/>
        <pt x="32" y="654" on="1"/>
        <pt x="516" y="654" on="1"/>
        <pt x="516" y="586" on="1"/>
      </contour>
    </TTGlyph>
    <TTGlyph name="Thorn" xMin="61" yMin="-111" xMax="506" yMax="717">
      <contour>
        <pt x="286" y="148" on="1"/>
        <pt x="214" y="148" on="0"/>
        <pt x="147" y="194" on="1"/>
        <pt x="147" y="-111" on="1"/>
        <pt x="61" y="-111" on="1"/>
        <pt x="61" y="717" on="1"/>
        <pt x="147" y="717" on="1"/>
        <pt x="147" y="617" on="1"/>
        <pt x="196" y="692" on="0"/>
        <pt x="284" y="692" on="1"/>
        <pt x="389" y="692" on="0"/>
        <pt x="451" y="607" on="1"/>
        <pt x="505" y="531" on="0"/>
        <pt x="506" y="422" on="1"/>
        <pt x="507" y="301" on="0"/>
        <pt x="458" y="230" on="1"/>
        <pt x="401" y="148" on="0"/>
      </contour>
      <contour>
        <pt x="264" y="613" on="1"/>
        <pt x="183" y="613" on="0"/>
        <pt x="147" y="538" on="1"/>
        <pt x="147" y="280" on="1"/>
        <pt x="186" y="219" on="0"/>
        <pt x="281" y="218" on="1"/>
        <pt x="355" y="218" on="0"/>
        <pt x="389" y="281" on="1"/>
        <pt x="418" y="331" on="0"/>
        <pt x="418" y="410" on="1"/>
        <pt x="418" y="493" on="0"/>
        <pt x="384" y="548" on="1"/>
        <pt x="343" y="613" on="0"/>
      </contour>
    </TTGlyph>
    <TTGlyph name="U" xMin="65" yMin="-17" xMax="520" yMax="655">
      <contour>
        <pt x="520" y="236" on="1"/>
        <pt x="520" y="122" on="0"/>
        <pt x="395" y="-17" on="0"/>
        <pt x="284" y="-17" on="1"/>
        <pt x="175" y="-17" on="0"/>
        <pt x="118" y="56" on="1"/>
        <pt x="65" y="124" on="0"/>
        <pt x="65" y="236" on="1"/>
        <pt x="65" y="655" on="1"/>
        <pt x="156" y="655" on="1"/>
        <pt x="156" y="236" on="1"/>
        <pt x="156" y="60" on="0"/>
        <pt x="286" y="59" on="1"/>
        <pt x="359" y="59" on="0"/>
        <pt x="395" y="113" on="1"/>
        <pt x="428" y="159" on="0"/>
        <pt x="428" y="236" on="1"/>
        <pt x="428" y="655" on="1"/>
        <pt x="520" y="655" on="1"/>
      </contour>
    </TTGlyph>
    <TTGlyph name="Uacute" xMin="70" yMin="-17" xMax="525" yMax="862">
      <contour>
        <pt x="525" y="236" on="1"/>
        <pt x="525" y="122" on="0"/>
        <pt x="400" y="-17" on="0"/>
        <pt x="289" y="-17" on="1"/>
        <pt x="180" y="-17" on="0"/>
        <pt x="123" y="56" on="1"/>
        <pt x="70" y="124" on="0"/>
        <pt x="70" y="236" on="1"/>
        <pt x="70" y="655" on="1"/>
        <pt x="161" y="655" on="1"/>
        <pt x="161" y="236" on="1"/>
        <pt x="161" y="60" on="0"/>
        <pt x="292" y="59" on="1"/>
        <pt x="365" y="59" on="0"/>
        <pt x="401" y="113" on="1"/>
        <pt x="433" y="160" on="0"/>
        <pt x="433" y="236" on="1"/>
        <pt x="433" y="655" on="1"/>
        <pt x="525" y="655" on="1"/>
      </contour>
      <contour>
        <pt x="209" y="703" on="1"/>
        <pt x="161" y="764" on="1"/>
        <pt x="376" y="862" on="1"/>
        <pt x="424" y="796" on="1"/>
      </contour>
    </TTGlyph>
    <TTGlyph name="Ucircumflex" xMin="70" yMin="-17" xMax="525" yMax="870">
      <contour>
        <pt x="525" y="236" on="1"/>
        <pt x="525" y="122" on="0"/>
        <pt x="400" y="-17" on="0"/>
        <pt x="289" y="-17" on="1"/>
        <pt x="180" y="-17" on="0"/>
        <pt x="123" y="56" on="1"/>
        <pt x="70" y="124" on="0"/>
        <pt x="70" y="236" on="1"/>
        <pt x="70" y="655" on="1"/>
        <pt x="161" y="655" on="1"/>
        <pt x="161" y="236" on="1"/>
        <pt x="161" y="60" on="0"/>
        <pt x="292" y="59" on="1"/>
        <pt x="365" y="59" on="0"/>
        <pt x="401" y="113" on="1"/>
        <pt x="433" y="160" on="0"/>
        <pt x="433" y="236" on="1"/>
        <pt x="433" y="655" on="1"/>
        <pt x="525" y="655" on="1"/>
      </contour>
      <contour>
        <pt x="290" y="777" on="1"/>
        <pt x="148" y="682" on="1"/>
        <pt x="148" y="755" on="1"/>
        <pt x="290" y="870" on="1"/>
        <pt x="435" y="755" on="1"/>
        <pt x="435" y="682" on="1"/>
      </contour>
    </TTGlyph>
    <TTGlyph name="Udieresis" xMin="70" yMin="-17" xMax="525" yMax="819">
      <contour>
        <pt x="525" y="236" on="1"/>
        <pt x="525" y="122" on="0"/>
        <pt x="400" y="-17" on="0"/>
        <pt x="289" y="-17" on="1"/>
        <pt x="180" y="-17" on="0"/>
        <pt x="123" y="56" on="1"/>
        <pt x="70" y="124" on="0"/>
        <pt x="70" y="236" on="1"/>
        <pt x="70" y="655" on="1"/>
        <pt x="161" y="655" on="1"/>
        <pt x="161" y="236" on="1"/>
        <pt x="161" y="60" on="0"/>
        <pt x="292" y="59" on="1"/>
        <pt x="365" y="59" on="0"/>
        <pt x="401" y="113" on="1"/>
        <pt x="433" y="160" on="0"/>
        <pt x="433" y="236" on="1"/>
        <pt x="433" y="655" on="1"/>
        <pt x="525" y="655" on="1"/>
      </contour>
      <contour>
        <pt x="395" y="713" on="1"/>
        <pt x="372" y="713" on="0"/>
        <pt x="344" y="743" on="0"/>
        <pt x="344" y="766" on="1"/>
        <pt x="344" y="789" on="0"/>
        <pt x="373" y="819" on="0"/>
        <pt x="417" y="819" on="0"/>
        <pt x="446" y="787" on="0"/>
        <pt x="446" y="766" on="1"/>
        <pt x="446" y="743" on="0"/>
        <pt x="418" y="713" on="0"/>
      </contour>
      <contour>
        <pt x="181" y="713" on="1"/>
        <pt x="158" y="713" on="0"/>
        <pt x="130" y="743" on="0"/>
        <pt x="130" y="766" on="1"/>
        <pt x="130" y="789" on="0"/>
        <pt x="159" y="819" on="0"/>
        <pt x="181" y="819" on="1"/>
        <pt x="204" y="819" on="0"/>
        <pt x="231" y="788" on="0"/>
        <pt x="231" y="766" on="1"/>
        <pt x="231" y="743" on="0"/>
        <pt x="204" y="713" on="0"/>
      </contour>
    </TTGlyph>
    <TTGlyph name="Ugrave" xMin="70" yMin="-17" xMax="525" yMax="861">
      <contour>
        <pt x="525" y="236" on="1"/>
        <pt x="525" y="122" on="0"/>
        <pt x="400" y="-17" on="0"/>
        <pt x="289" y="-17" on="1"/>
        <pt x="180" y="-17" on="0"/>
        <pt x="123" y="56" on="1"/>
        <pt x="70" y="124" on="0"/>
        <pt x="70" y="236" on="1"/>
        <pt x="70" y="655" on="1"/>
        <pt x="161" y="655" on="1"/>
        <pt x="161" y="236" on="1"/>
        <pt x="161" y="60" on="0"/>
        <pt x="292" y="59" on="1"/>
        <pt x="365" y="59" on="0"/>
        <pt x="401" y="113" on="1"/>
        <pt x="433" y="160" on="0"/>
        <pt x="433" y="236" on="1"/>
        <pt x="433" y="655" on="1"/>
        <pt x="525" y="655" on="1"/>
      </contour>
      <contour>
        <pt x="375" y="702" on="1"/>
        <pt x="161" y="795" on="1"/>
        <pt x="209" y="861" on="1"/>
        <pt x="424" y="763" on="1"/>
      </contour>
    </TTGlyph>
    <TTGlyph name="V" xMin="42" yMin="-10" xMax="530" yMax="669">
      <contour>
        <pt x="318" y="-10" on="1"/>
        <pt x="252" y="-10" on="1"/>
        <pt x="42" y="645" on="1"/>
        <pt x="129" y="669" on="1"/>
        <pt x="292" y="134" on="1"/>
        <pt x="455" y="669" on="1"/>
        <pt x="530" y="645" on="1"/>
      </contour>
    </TTGlyph>
    <TTGlyph name="W" xMin="16" yMin="-6" xMax="787" yMax="660">
      <contour>
        <pt x="605" y="-6" on="1"/>
        <pt x="552" y="-6" on="1"/>
        <pt x="407" y="470" on="1"/>
        <pt x="261" y="-6" on="1"/>
        <pt x="197" y="-6" on="1"/>
        <pt x="16" y="641" on="1"/>
        <pt x="105" y="660" on="1"/>
        <pt x="241" y="150" on="1"/>
        <pt x="379" y="650" on="1"/>
        <pt x="444" y="650" on="1"/>
        <pt x="579" y="151" on="1"/>
        <pt x="718" y="660" on="1"/>
        <pt x="787" y="641" on="1"/>
      </contour>
    </TTGlyph>
    <TTGlyph name="X" xMin="37" yMin="-15" xMax="528" yMax="662">
      <contour>
        <pt x="431" y="-15" on="1"/>
        <pt x="272" y="269" on="1"/>
        <pt x="130" y="-15" on="1"/>
        <pt x="37" y="5" on="1"/>
        <pt x="227" y="325" on="1"/>
        <pt x="49" y="641" on="1"/>
        <pt x="142" y="660" on="1"/>
        <pt x="280" y="412" on="1"/>
        <pt x="412" y="662" on="1"/>
        <pt x="488" y="641" on="1"/>
        <pt x="319" y="342" on="1"/>
        <pt x="528" y="5" on="1"/>
      </contour>
    </TTGlyph>
    <TTGlyph name="Y" xMin="30" yMin="0" xMax="484" yMax="666">
      <contour>
        <pt x="303" y="279" on="1"/>
        <pt x="303" y="0" on="1"/>
        <pt x="211" y="0" on="1"/>
        <pt x="211" y="279" on="1"/>
        <pt x="30" y="642" on="1"/>
        <pt x="112" y="666" on="1"/>
        <pt x="260" y="361" on="1"/>
        <pt x="407" y="666" on="1"/>
        <pt x="484" y="642" on="1"/>
      </contour>
    </TTGlyph>
    <TTGlyph name="Yacute" xMin="35" yMin="0" xMax="489" yMax="801">
      <contour>
        <pt x="308" y="279" on="1"/>
        <pt x="308" y="0" on="1"/>
        <pt x="217" y="0" on="1"/>
        <pt x="217" y="279" on="1"/>
        <pt x="35" y="642" on="1"/>
        <pt x="117" y="666" on="1"/>
        <pt x="265" y="361" on="1"/>
        <pt x="412" y="666" on="1"/>
        <pt x="489" y="642" on="1"/>
      </contour>
      <contour>
        <pt x="198" y="642" on="1"/>
        <pt x="151" y="702" on="1"/>
        <pt x="366" y="801" on="1"/>
        <pt x="414" y="734" on="1"/>
      </contour>
    </TTGlyph>
    <TTGlyph name="Ydieresis" xMin="35" yMin="0" xMax="489" yMax="819">
      <contour>
        <pt x="308" y="279" on="1"/>
        <pt x="308" y="0" on="1"/>
        <pt x="217" y="0" on="1"/>
        <pt x="217" y="279" on="1"/>
        <pt x="35" y="642" on="1"/>
        <pt x="117" y="666" on="1"/>
        <pt x="265" y="361" on="1"/>
        <pt x="412" y="666" on="1"/>
        <pt x="489" y="642" on="1"/>
      </contour>
      <contour>
        <pt x="385" y="713" on="1"/>
        <pt x="362" y="713" on="0"/>
        <pt x="334" y="743" on="0"/>
        <pt x="334" y="766" on="1"/>
        <pt x="334" y="789" on="0"/>
        <pt x="362" y="819" on="0"/>
        <pt x="385" y="819" on="1"/>
        <pt x="407" y="819" on="0"/>
        <pt x="436" y="787" on="0"/>
        <pt x="436" y="766" on="1"/>
        <pt x="436" y="743" on="0"/>
        <pt x="408" y="713" on="0"/>
      </contour>
      <contour>
        <pt x="170" y="713" on="1"/>
        <pt x="147" y="713" on="0"/>
        <pt x="119" y="743" on="0"/>
        <pt x="119" y="766" on="1"/>
        <pt x="119" y="789" on="0"/>
        <pt x="147" y="819" on="0"/>
        <pt x="170" y="819" on="1"/>
        <pt x="192" y="819" on="0"/>
        <pt x="221" y="787" on="0"/>
        <pt x="221" y="766" on="1"/>
        <pt x="221" y="743" on="0"/>
        <pt x="193" y="713" on="0"/>
      </contour>
    </TTGlyph>
    <TTGlyph name="Z" xMin="65" yMin="0" xMax="493" yMax="654">
      <contour>
        <pt x="165" y="78" on="1"/>
        <pt x="489" y="78" on="1"/>
        <pt x="489" y="0" on="1"/>
        <pt x="72" y="0" on="1"/>
        <pt x="65" y="79" on="1"/>
        <pt x="394" y="588" on="1"/>
        <pt x="82" y="586" on="1"/>
        <pt x="82" y="654" on="1"/>
        <pt x="484" y="654" on="1"/>
        <pt x="493" y="581" on="1"/>
      </contour>
    </TTGlyph>
    <TTGlyph name="Zcaron" xMin="70" yMin="0" xMax="498" yMax="870">
      <contour>
        <pt x="170" y="78" on="1"/>
        <pt x="495" y="78" on="1"/>
        <pt x="495" y="0" on="1"/>
        <pt x="78" y="0" on="1"/>
        <pt x="70" y="79" on="1"/>
        <pt x="400" y="588" on="1"/>
        <pt x="87" y="586" on="1"/>
        <pt x="87" y="654" on="1"/>
        <pt x="489" y="654" on="1"/>
        <pt x="498" y="581" on="1"/>
      </contour>
      <contour>
        <pt x="337" y="775" on="1"/>
        <pt x="477" y="870" on="1"/>
        <pt x="477" y="798" on="1"/>
        <pt x="337" y="682" on="1"/>
        <pt x="190" y="798" on="1"/>
        <pt x="190" y="870" on="1"/>
      </contour>
    </TTGlyph>
    <TTGlyph name="a" xMin="42" yMin="-16" xMax="487" yMax="524">
      <contour>
        <pt x="403" y="-11" on="1"/>
        <pt x="361" y="-11" on="0"/>
        <pt x="339" y="38" on="1"/>
        <pt x="308" y="14" on="0"/>
        <pt x="286" y="4" on="1"/>
        <pt x="241" y="-16" on="0"/>
        <pt x="183" y="-16" on="1"/>
        <pt x="118" y="-16" on="0"/>
        <pt x="42" y="66" on="0"/>
        <pt x="42" y="130" on="1"/>
        <pt x="42" y="213" on="0"/>
        <pt x="92" y="250" on="1"/>
        <pt x="125" y="274" on="0"/>
        <pt x="216" y="295" on="1"/>
        <pt x="251" y="303" on="0"/>
        <pt x="327" y="310" on="1"/>
        <pt x="327" y="375" on="1"/>
        <pt x="327" y="409" on="0"/>
        <pt x="274" y="452" on="0"/>
        <pt x="240" y="452" on="1"/>
        <pt x="184" y="452" on="0"/>
        <pt x="103" y="386" on="1"/>
        <pt x="61" y="443" on="1"/>
        <pt x="93" y="472" on="0"/>
        <pt x="145" y="497" on="1"/>
        <pt x="202" y="525" on="0"/>
        <pt x="240" y="524" on="1"/>
        <pt x="311" y="524" on="0"/>
        <pt x="407" y="436" on="0"/>
        <pt x="407" y="366" on="1"/>
        <pt x="407" y="77" on="1"/>
        <pt x="412" y="57" on="0"/>
        <pt x="428" y="56" on="1"/>
        <pt x="439" y="55" on="0"/>
        <pt x="471" y="78" on="1"/>
        <pt x="487" y="25" on="1"/>
        <pt x="453" y="-11" on="0"/>
      </contour>
      <contour>
        <pt x="327" y="239" on="1"/>
        <pt x="297" y="239" on="0"/>
        <pt x="249" y="229" on="1"/>
        <pt x="221" y="224" on="0"/>
        <pt x="190" y="216" on="1"/>
        <pt x="116" y="197" on="0"/>
        <pt x="116" y="129" on="1"/>
        <pt x="116" y="92" on="0"/>
        <pt x="158" y="48" on="0"/>
        <pt x="195" y="48" on="1"/>
        <pt x="235" y="48" on="0"/>
        <pt x="276" y="70" on="1"/>
        <pt x="326" y="96" on="0"/>
        <pt x="327" y="135" on="1"/>
      </contour>
    </TTGlyph>
    <TTGlyph name="aacute" xMin="47" yMin="-16" xMax="493" yMax="729">
      <contour>
        <pt x="409" y="-11" on="1"/>
        <pt x="367" y="-11" on="0"/>
        <pt x="344" y="38" on="1"/>
        <pt x="310" y="12" on="0"/>
        <pt x="292" y="4" on="1"/>
        <pt x="248" y="-16" on="0"/>
        <pt x="188" y="-16" on="1"/>
        <pt x="123" y="-16" on="0"/>
        <pt x="47" y="66" on="0"/>
        <pt x="47" y="130" on="1"/>
        <pt x="47" y="213" on="0"/>
        <pt x="97" y="250" on="1"/>
        <pt x="130" y="274" on="0"/>
        <pt x="221" y="295" on="1"/>
        <pt x="256" y="303" on="0"/>
        <pt x="332" y="310" on="1"/>
        <pt x="332" y="375" on="1"/>
        <pt x="332" y="409" on="0"/>
        <pt x="280" y="452" on="0"/>
        <pt x="245" y="452" on="1"/>
        <pt x="189" y="452" on="0"/>
        <pt x="109" y="386" on="1"/>
        <pt x="67" y="443" on="1"/>
        <pt x="99" y="472" on="0"/>
        <pt x="151" y="497" on="1"/>
        <pt x="208" y="525" on="0"/>
        <pt x="245" y="524" on="1"/>
        <pt x="316" y="524" on="0"/>
        <pt x="412" y="436" on="0"/>
        <pt x="412" y="366" on="1"/>
        <pt x="412" y="77" on="1"/>
        <pt x="417" y="57" on="0"/>
        <pt x="433" y="56" on="1"/>
        <pt x="444" y="55" on="0"/>
        <pt x="476" y="78" on="1"/>
        <pt x="493" y="25" on="1"/>
        <pt x="459" y="-11" on="0"/>
      </contour>
      <contour>
        <pt x="332" y="239" on="1"/>
        <pt x="300" y="239" on="0"/>
        <pt x="254" y="229" on="1"/>
        <pt x="240" y="226" on="0"/>
        <pt x="196" y="216" on="1"/>
        <pt x="123" y="198" on="0"/>
        <pt x="122" y="129" on="1"/>
        <pt x="122" y="92" on="0"/>
        <pt x="163" y="48" on="0"/>
        <pt x="200" y="48" on="1"/>
        <pt x="240" y="48" on="0"/>
        <pt x="282" y="70" on="1"/>
        <pt x="332" y="96" on="0"/>
        <pt x="332" y="135" on="1"/>
      </contour>
      <contour>
        <pt x="187" y="570" on="1"/>
        <pt x="139" y="631" on="1"/>
        <pt x="354" y="729" on="1"/>
        <pt x="402" y="663" on="1"/>
      </contour>
    </TTGlyph>
    <TTGlyph name="acircumflex" xMin="47" yMin="-16" xMax="493" yMax="727">
      <contour>
        <pt x="409" y="-11" on="1"/>
        <pt x="367" y="-11" on="0"/>
        <pt x="344" y="38" on="1"/>
        <pt x="310" y="12" on="0"/>
        <pt x="292" y="4" on="1"/>
        <pt x="248" y="-16" on="0"/>
        <pt x="188" y="-16" on="1"/>
        <pt x="123" y="-16" on="0"/>
        <pt x="47" y="66" on="0"/>
        <pt x="47" y="130" on="1"/>
        <pt x="47" y="213" on="0"/>
        <pt x="97" y="250" on="1"/>
        <pt x="130" y="274" on="0"/>
        <pt x="221" y="295" on="1"/>
        <pt x="256" y="303" on="0"/>
        <pt x="332" y="310" on="1"/>
        <pt x="332" y="375" on="1"/>
        <pt x="332" y="409" on="0"/>
        <pt x="280" y="452" on="0"/>
        <pt x="245" y="452" on="1"/>
        <pt x="189" y="452" on="0"/>
        <pt x="109" y="386" on="1"/>
        <pt x="67" y="443" on="1"/>
        <pt x="99" y="472" on="0"/>
        <pt x="151" y="497" on="1"/>
        <pt x="208" y="525" on="0"/>
        <pt x="245" y="524" on="1"/>
        <pt x="316" y="524" on="0"/>
        <pt x="412" y="436" on="0"/>
        <pt x="412" y="366" on="1"/>
        <pt x="412" y="77" on="1"/>
        <pt x="417" y="57" on="0"/>
        <pt x="433" y="56" on="1"/>
        <pt x="444" y="55" on="0"/>
        <pt x="476" y="78" on="1"/>
        <pt x="493" y="25" on="1"/>
        <pt x="459" y="-11" on="0"/>
      </contour>
      <contour>
        <pt x="332" y="239" on="1"/>
        <pt x="300" y="239" on="0"/>
        <pt x="254" y="229" on="1"/>
        <pt x="240" y="226" on="0"/>
        <pt x="196" y="216" on="1"/>
        <pt x="123" y="198" on="0"/>
        <pt x="122" y="129" on="1"/>
        <pt x="122" y="92" on="0"/>
        <pt x="163" y="48" on="0"/>
        <pt x="200" y="48" on="1"/>
        <pt x="240" y="48" on="0"/>
        <pt x="282" y="70" on="1"/>
        <pt x="332" y="96" on="0"/>
        <pt x="332" y="135" on="1"/>
      </contour>
      <contour>
        <pt x="258" y="634" on="1"/>
        <pt x="117" y="539" on="1"/>
        <pt x="117" y="611" on="1"/>
        <pt x="258" y="727" on="1"/>
        <pt x="403" y="611" on="1"/>
        <pt x="403" y="539" on="1"/>
      </contour>
    </TTGlyph>
    <TTGlyph name="acute" xMin="58" yMin="570" xMax="322" yMax="729">
      <contour>
        <pt x="106" y="570" on="1"/>
        <pt x="58" y="631" on="1"/>
        <pt x="273" y="729" on="1"/>
        <pt x="322" y="663" on="1"/>
      </contour>
    </TTGlyph>
    <TTGlyph name="adieresis" xMin="47" yMin="-16" xMax="493" yMax="666">
      <contour>
        <pt x="409" y="-11" on="1"/>
        <pt x="367" y="-11" on="0"/>
        <pt x="344" y="38" on="1"/>
        <pt x="310" y="12" on="0"/>
        <pt x="292" y="4" on="1"/>
        <pt x="248" y="-16" on="0"/>
        <pt x="188" y="-16" on="1"/>
        <pt x="123" y="-16" on="0"/>
        <pt x="47" y="66" on="0"/>
        <pt x="47" y="130" on="1"/>
        <pt x="47" y="213" on="0"/>
        <pt x="97" y="250" on="1"/>
        <pt x="130" y="274" on="0"/>
        <pt x="221" y="295" on="1"/>
        <pt x="256" y="303" on="0"/>
        <pt x="332" y="310" on="1"/>
        <pt x="332" y="375" on="1"/>
        <pt x="332" y="409" on="0"/>
        <pt x="280" y="452" on="0"/>
        <pt x="245" y="452" on="1"/>
        <pt x="189" y="452" on="0"/>
        <pt x="109" y="386" on="1"/>
        <pt x="67" y="443" on="1"/>
        <pt x="99" y="472" on="0"/>
        <pt x="151" y="497" on="1"/>
        <pt x="208" y="525" on="0"/>
        <pt x="245" y="524" on="1"/>
        <pt x="316" y="524" on="0"/>
        <pt x="412" y="436" on="0"/>
        <pt x="412" y="366" on="1"/>
        <pt x="412" y="77" on="1"/>
        <pt x="417" y="57" on="0"/>
        <pt x="433" y="56" on="1"/>
        <pt x="444" y="55" on="0"/>
        <pt x="476" y="78" on="1"/>
        <pt x="493" y="25" on="1"/>
        <pt x="459" y="-11" on="0"/>
      </contour>
      <contour>
        <pt x="332" y="239" on="1"/>
        <pt x="300" y="239" on="0"/>
        <pt x="254" y="229" on="1"/>
        <pt x="240" y="226" on="0"/>
        <pt x="196" y="216" on="1"/>
        <pt x="123" y="198" on="0"/>
        <pt x="122" y="129" on="1"/>
        <pt x="122" y="92" on="0"/>
        <pt x="163" y="48" on="0"/>
        <pt x="200" y="48" on="1"/>
        <pt x="240" y="48" on="0"/>
        <pt x="282" y="70" on="1"/>
        <pt x="332" y="96" on="0"/>
        <pt x="332" y="135" on="1"/>
      </contour>
      <contour>
        <pt x="364" y="559" on="1"/>
        <pt x="341" y="559" on="0"/>
        <pt x="312" y="590" on="0"/>
        <pt x="312" y="612" on="1"/>
        <pt x="312" y="635" on="0"/>
        <pt x="341" y="666" on="0"/>
        <pt x="364" y="666" on="1"/>
        <pt x="386" y="666" on="0"/>
        <pt x="415" y="634" on="0"/>
        <pt x="415" y="612" on="1"/>
        <pt x="415" y="589" on="0"/>
        <pt x="387" y="559" on="0"/>
      </contour>
      <contour>
        <pt x="148" y="559" on="1"/>
        <pt x="125" y="559" on="0"/>
        <pt x="97" y="590" on="0"/>
        <pt x="97" y="612" on="1"/>
        <pt x="97" y="635" on="0"/>
        <pt x="126" y="666" on="0"/>
        <pt x="170" y="666" on="0"/>
        <pt x="200" y="634" on="0"/>
        <pt x="200" y="612" on="1"/>
        <pt x="200" y="589" on="0"/>
        <pt x="171" y="559" on="0"/>
      </contour>
    </TTGlyph>
    <TTGlyph name="ae" xMin="42" yMin="-16" xMax="755" yMax="524">
      <contour>
        <pt x="674" y="340" on="1"/>
        <pt x="674" y="452" on="0"/>
        <pt x="563" y="452" on="1"/>
        <pt x="488" y="452" on="0"/>
        <pt x="457" y="415" on="1"/>
        <pt x="433" y="387" on="0"/>
        <pt x="414" y="307" on="1"/>
        <pt x="674" y="307" on="1"/>
      </contour>
      <contour>
        <pt x="339" y="38" on="1"/>
        <pt x="322" y="26" on="0"/>
        <pt x="286" y="4" on="1"/>
        <pt x="241" y="-16" on="0"/>
        <pt x="183" y="-16" on="1"/>
        <pt x="118" y="-16" on="0"/>
        <pt x="42" y="66" on="0"/>
        <pt x="42" y="130" on="1"/>
        <pt x="42" y="213" on="0"/>
        <pt x="92" y="250" on="1"/>
        <pt x="124" y="274" on="0"/>
        <pt x="216" y="295" on="1"/>
        <pt x="273" y="308" on="0"/>
        <pt x="327" y="313" on="1"/>
        <pt x="327" y="375" on="1"/>
        <pt x="327" y="409" on="0"/>
        <pt x="274" y="452" on="0"/>
        <pt x="240" y="452" on="1"/>
        <pt x="184" y="452" on="0"/>
        <pt x="103" y="386" on="1"/>
        <pt x="61" y="443" on="1"/>
        <pt x="91" y="470" on="0"/>
        <pt x="145" y="497" on="1"/>
        <pt x="204" y="525" on="0"/>
        <pt x="240" y="524" on="1"/>
        <pt x="345" y="524" on="0"/>
        <pt x="389" y="439" on="1"/>
        <pt x="456" y="519" on="0"/>
        <pt x="571" y="519" on="1"/>
        <pt x="653" y="519" on="0"/>
        <pt x="707" y="452" on="1"/>
        <pt x="755" y="391" on="0"/>
        <pt x="755" y="305" on="1"/>
        <pt x="755" y="243" on="1"/>
        <pt x="407" y="243" on="1"/>
        <pt x="407" y="176" on="0"/>
        <pt x="432" y="128" on="1"/>
        <pt x="449" y="94" on="0"/>
        <pt x="494" y="75" on="1"/>
        <pt x="533" y="58" on="0"/>
        <pt x="574" y="57" on="1"/>
        <pt x="604" y="57" on="0"/>
        <pt x="646" y="80" on="1"/>
        <pt x="682" y="98" on="0"/>
        <pt x="709" y="123" on="1"/>
        <pt x="750" y="66" on="1"/>
        <pt x="666" y="-12" on="0"/>
        <pt x="566" y="-12" on="1"/>
        <pt x="438" y="-12" on="0"/>
        <pt x="379" y="75" on="1"/>
      </contour>
      <contour>
        <pt x="327" y="239" on="1"/>
        <pt x="303" y="239" on="0"/>
        <pt x="241" y="226" on="1"/>
        <pt x="175" y="213" on="0"/>
        <pt x="158" y="204" on="1"/>
        <pt x="116" y="181" on="0"/>
        <pt x="116" y="129" on="1"/>
        <pt x="116" y="48" on="0"/>
        <pt x="195" y="48" on="1"/>
        <pt x="235" y="48" on="0"/>
        <pt x="276" y="70" on="1"/>
        <pt x="326" y="96" on="0"/>
        <pt x="327" y="135" on="1"/>
      </contour>
    </TTGlyph>
    <TTGlyph name="agrave" xMin="47" yMin="-16" xMax="493" yMax="728">
      <contour>
        <pt x="409" y="-11" on="1"/>
        <pt x="367" y="-11" on="0"/>
        <pt x="344" y="38" on="1"/>
        <pt x="310" y="12" on="0"/>
        <pt x="292" y="4" on="1"/>
        <pt x="248" y="-16" on="0"/>
        <pt x="188" y="-16" on="1"/>
        <pt x="123" y="-16" on="0"/>
        <pt x="47" y="66" on="0"/>
        <pt x="47" y="130" on="1"/>
        <pt x="47" y="213" on="0"/>
        <pt x="97" y="250" on="1"/>
        <pt x="130" y="274" on="0"/>
        <pt x="221" y="295" on="1"/>
        <pt x="256" y="303" on="0"/>
        <pt x="332" y="310" on="1"/>
        <pt x="332" y="375" on="1"/>
        <pt x="332" y="409" on="0"/>
        <pt x="280" y="452" on="0"/>
        <pt x="245" y="452" on="1"/>
        <pt x="189" y="452" on="0"/>
        <pt x="109" y="386" on="1"/>
        <pt x="67" y="443" on="1"/>
        <pt x="99" y="472" on="0"/>
        <pt x="151" y="497" on="1"/>
        <pt x="208" y="525" on="0"/>
        <pt x="245" y="524" on="1"/>
        <pt x="316" y="524" on="0"/>
        <pt x="412" y="436" on="0"/>
        <pt x="412" y="366" on="1"/>
        <pt x="412" y="77" on="1"/>
        <pt x="417" y="57" on="0"/>
        <pt x="433" y="56" on="1"/>
        <pt x="444" y="55" on="0"/>
        <pt x="476" y="78" on="1"/>
        <pt x="493" y="25" on="1"/>
        <pt x="459" y="-11" on="0"/>
      </contour>
      <contour>
        <pt x="332" y="239" on="1"/>
        <pt x="300" y="239" on="0"/>
        <pt x="254" y="229" on="1"/>
        <pt x="240" y="226" on="0"/>
        <pt x="196" y="216" on="1"/>
        <pt x="123" y="198" on="0"/>
        <pt x="122" y="129" on="1"/>
        <pt x="122" y="92" on="0"/>
        <pt x="163" y="48" on="0"/>
        <pt x="200" y="48" on="1"/>
        <pt x="240" y="48" on="0"/>
        <pt x="282" y="70" on="1"/>
        <pt x="332" y="96" on="0"/>
        <pt x="332" y="135" on="1"/>
      </contour>
      <contour>
        <pt x="353" y="569" on="1"/>
        <pt x="139" y="662" on="1"/>
        <pt x="187" y="728" on="1"/>
        <pt x="402" y="630" on="1"/>
      </contour>
    </TTGlyph>
    <TTGlyph name="ampersand" xMin="26" yMin="-9" xMax="538" yMax="655">
      <contour>
        <pt x="180" y="314" on="1"/>
        <pt x="100" y="270" on="0"/>
        <pt x="100" y="182" on="1"/>
        <pt x="100" y="128" on="0"/>
        <pt x="172" y="62" on="0"/>
        <pt x="227" y="62" on="1"/>
        <pt x="295" y="62" on="0"/>
        <pt x="341" y="121" on="1"/>
        <pt x="227" y="237" on="0"/>
      </contour>
      <contour>
        <pt x="490" y="4" on="1"/>
        <pt x="450" y="17" on="0"/>
        <pt x="393" y="68" on="1"/>
        <pt x="318" y="-9" on="0"/>
        <pt x="232" y="-9" on="1"/>
        <pt x="143" y="-9" on="0"/>
        <pt x="87" y="37" on="1"/>
        <pt x="26" y="87" on="0"/>
        <pt x="26" y="173" on="1"/>
        <pt x="26" y="233" on="0"/>
        <pt x="91" y="338" on="0"/>
        <pt x="145" y="368" on="1"/>
        <pt x="99" y="431" on="0"/>
        <pt x="99" y="496" on="1"/>
        <pt x="99" y="565" on="0"/>
        <pt x="195" y="655" on="0"/>
        <pt x="263" y="655" on="1"/>
        <pt x="349" y="655" on="0"/>
        <pt x="417" y="582" on="1"/>
        <pt x="369" y="532" on="1"/>
        <pt x="323" y="589" on="0"/>
        <pt x="256" y="590" on="1"/>
        <pt x="180" y="590" on="0"/>
        <pt x="180" y="511" on="1"/>
        <pt x="180" y="465" on="0"/>
        <pt x="211" y="404" on="1"/>
        <pt x="265" y="427" on="0"/>
        <pt x="325" y="429" on="1"/>
        <pt x="339" y="367" on="1"/>
        <pt x="285" y="367" on="0"/>
        <pt x="250" y="350" on="1"/>
        <pt x="330" y="239" on="0"/>
        <pt x="382" y="186" on="1"/>
        <pt x="396" y="237" on="0"/>
        <pt x="396" y="258" on="1"/>
        <pt x="396" y="282" on="0"/>
        <pt x="386" y="323" on="1"/>
        <pt x="458" y="329" on="1"/>
        <pt x="465" y="283" on="0"/>
        <pt x="465" y="255" on="1"/>
        <pt x="465" y="199" on="0"/>
        <pt x="442" y="132" on="1"/>
        <pt x="469" y="101" on="0"/>
        <pt x="538" y="68" on="1"/>
      </contour>
    </TTGlyph>
    <TTGlyph name="apple" xMin="35" yMin="-29" xMax="538" yMax="713">
      <contour>
        <pt x="333" y="587" on="1"/>
        <pt x="333" y="644" on="1"/>
        <pt x="406" y="644" on="1"/>
        <pt x="406" y="713" on="1"/>
        <pt x="466" y="713" on="1"/>
        <pt x="466" y="644" on="1"/>
        <pt x="538" y="644" on="1"/>
        <pt x="538" y="587" on="1"/>
        <pt x="466" y="587" on="1"/>
        <pt x="466" y="517" on="1"/>
        <pt x="406" y="517" on="1"/>
        <pt x="406" y="587" on="1"/>
      </contour>
      <contour>
        <pt x="35" y="40" on="1"/>
        <pt x="35" y="97" on="1"/>
        <pt x="108" y="97" on="1"/>
        <pt x="108" y="167" on="1"/>
        <pt x="168" y="167" on="1"/>
        <pt x="168" y="97" on="1"/>
        <pt x="241" y="97" on="1"/>
        <pt x="241" y="40" on="1"/>
        <pt x="168" y="40" on="1"/>
        <pt x="168" y="-29" on="1"/>
        <pt x="108" y="-29" on="1"/>
        <pt x="108" y="40" on="1"/>
      </contour>
      <contour>
        <pt x="169" y="223" on="1"/>
        <pt x="204" y="223" on="1"/>
        <pt x="204" y="176" on="1"/>
        <pt x="169" y="176" on="1"/>
      </contour>
      <contour>
        <pt x="208" y="254" on="1"/>
        <pt x="236" y="254" on="1"/>
        <pt x="236" y="233" on="1"/>
        <pt x="208" y="233" on="1"/>
      </contour>
      <contour>
        <pt x="239" y="291" on="1"/>
        <pt x="331" y="291" on="1"/>
        <pt x="331" y="264" on="1"/>
        <pt x="239" y="264" on="1"/>
      </contour>
      <contour>
        <pt x="200" y="389" on="1"/>
        <pt x="229" y="389" on="1"/>
        <pt x="229" y="304" on="1"/>
        <pt x="200" y="304" on="1"/>
      </contour>
      <contour>
        <pt x="400" y="462" on="1"/>
        <pt x="365" y="462" on="1"/>
        <pt x="365" y="509" on="1"/>
        <pt x="400" y="509" on="1"/>
      </contour>
      <contour>
        <pt x="361" y="431" on="1"/>
        <pt x="334" y="431" on="1"/>
        <pt x="334" y="452" on="1"/>
        <pt x="361" y="452" on="1"/>
      </contour>
      <contour>
        <pt x="331" y="394" on="1"/>
        <pt x="239" y="394" on="1"/>
        <pt x="239" y="421" on="1"/>
        <pt x="331" y="421" on="1"/>
      </contour>
      <contour>
        <pt x="370" y="296" on="1"/>
        <pt x="340" y="296" on="1"/>
        <pt x="340" y="381" on="1"/>
        <pt x="370" y="381" on="1"/>
      </contour>
    </TTGlyph>
    <TTGlyph name="approxequal" xMin="103" yMin="81" xMax="451" yMax="407">
      <contour>
        <pt x="352" y="289" on="1"/>
        <pt x="329" y="289" on="0"/>
        <pt x="237" y="342" on="0"/>
        <pt x="219" y="342" on="1"/>
        <pt x="195" y="342" on="0"/>
        <pt x="142" y="307" on="0"/>
        <pt x="128" y="286" on="1"/>
        <pt x="103" y="350" on="1"/>
        <pt x="121" y="372" on="0"/>
        <pt x="196" y="407" on="0"/>
        <pt x="223" y="407" on="1"/>
        <pt x="254" y="407" on="0"/>
        <pt x="345" y="357" on="0"/>
        <pt x="357" y="357" on="1"/>
        <pt x="392" y="357" on="0"/>
        <pt x="423" y="391" on="1"/>
        <pt x="451" y="328" on="1"/>
        <pt x="437" y="314" on="0"/>
        <pt x="374" y="289" on="0"/>
      </contour>
      <contour>
        <pt x="352" y="84" on="1"/>
        <pt x="329" y="84" on="0"/>
        <pt x="241" y="137" on="0"/>
        <pt x="223" y="137" on="1"/>
        <pt x="198" y="137" on="0"/>
        <pt x="143" y="102" on="0"/>
        <pt x="128" y="81" on="1"/>
        <pt x="103" y="145" on="1"/>
        <pt x="121" y="167" on="0"/>
        <pt x="196" y="202" on="0"/>
        <pt x="223" y="202" on="1"/>
        <pt x="254" y="202" on="0"/>
        <pt x="345" y="153" on="0"/>
        <pt x="357" y="153" on="1"/>
        <pt x="392" y="153" on="0"/>
        <pt x="423" y="186" on="1"/>
        <pt x="451" y="123" on="1"/>
        <pt x="437" y="109" on="0"/>
        <pt x="374" y="84" on="0"/>
      </contour>
    </TTGlyph>
    <TTGlyph name="aring" xMin="47" yMin="-16" xMax="493" yMax="757">
      <contour>
        <pt x="409" y="-11" on="1"/>
        <pt x="367" y="-11" on="0"/>
        <pt x="344" y="38" on="1"/>
        <pt x="310" y="12" on="0"/>
        <pt x="292" y="4" on="1"/>
        <pt x="248" y="-16" on="0"/>
        <pt x="188" y="-16" on="1"/>
        <pt x="123" y="-16" on="0"/>
        <pt x="47" y="66" on="0"/>
        <pt x="47" y="130" on="1"/>
        <pt x="47" y="213" on="0"/>
        <pt x="97" y="250" on="1"/>
        <pt x="130" y="274" on="0"/>
        <pt x="221" y="295" on="1"/>
        <pt x="256" y="303" on="0"/>
        <pt x="332" y="310" on="1"/>
        <pt x="332" y="375" on="1"/>
        <pt x="332" y="409" on="0"/>
        <pt x="280" y="452" on="0"/>
        <pt x="245" y="452" on="1"/>
        <pt x="189" y="452" on="0"/>
        <pt x="109" y="386" on="1"/>
        <pt x="67" y="443" on="1"/>
        <pt x="99" y="472" on="0"/>
        <pt x="151" y="497" on="1"/>
        <pt x="208" y="525" on="0"/>
        <pt x="245" y="524" on="1"/>
        <pt x="316" y="524" on="0"/>
        <pt x="412" y="436" on="0"/>
        <pt x="412" y="366" on="1"/>
        <pt x="412" y="77" on="1"/>
        <pt x="417" y="57" on="0"/>
        <pt x="433" y="56" on="1"/>
        <pt x="444" y="55" on="0"/>
        <pt x="476" y="78" on="1"/>
        <pt x="493" y="25" on="1"/>
        <pt x="459" y="-11" on="0"/>
      </contour>
      <contour>
        <pt x="332" y="239" on="1"/>
        <pt x="300" y="239" on="0"/>
        <pt x="254" y="229" on="1"/>
        <pt x="240" y="226" on="0"/>
        <pt x="196" y="216" on="1"/>
        <pt x="123" y="198" on="0"/>
        <pt x="122" y="129" on="1"/>
        <pt x="122" y="92" on="0"/>
        <pt x="163" y="48" on="0"/>
        <pt x="200" y="48" on="1"/>
        <pt x="240" y="48" on="0"/>
        <pt x="282" y="70" on="1"/>
        <pt x="332" y="96" on="0"/>
        <pt x="332" y="135" on="1"/>
      </contour>
      <contour>
        <pt x="246" y="580" on="1"/>
        <pt x="206" y="580" on="0"/>
        <pt x="154" y="629" on="0"/>
        <pt x="154" y="669" on="1"/>
        <pt x="154" y="708" on="0"/>
        <pt x="206" y="757" on="0"/>
        <pt x="246" y="757" on="1"/>
        <pt x="286" y="757" on="0"/>
        <pt x="339" y="709" on="0"/>
        <pt x="339" y="669" on="1"/>
        <pt x="339" y="629" on="0"/>
        <pt x="287" y="580" on="0"/>
      </contour>
      <contour>
        <pt x="246" y="713" on="1"/>
        <pt x="203" y="713" on="0"/>
        <pt x="203" y="669" on="1"/>
        <pt x="203" y="624" on="0"/>
        <pt x="246" y="624" on="1"/>
        <pt x="290" y="624" on="0"/>
        <pt x="290" y="669" on="1"/>
        <pt x="290" y="713" on="0"/>
      </contour>
    </TTGlyph>
    <TTGlyph name="asciicircum" xMin="113" yMin="464" xMax="436" yMax="694">
      <contour>
        <pt x="273" y="606" on="1"/>
        <pt x="156" y="464" on="1"/>
        <pt x="113" y="517" on="1"/>
        <pt x="273" y="694" on="1"/>
        <pt x="436" y="517" on="1"/>
        <pt x="393" y="464" on="1"/>
      </contour>
    </TTGlyph>
    <TTGlyph name="asciitilde" xMin="85" yMin="388" xMax="361" yMax="509">
      <contour>
        <pt x="286" y="388" on="1"/>
        <pt x="263" y="388" on="0"/>
        <pt x="188" y="444" on="0"/>
        <pt x="171" y="444" on="1"/>
        <pt x="141" y="444" on="0"/>
        <pt x="104" y="390" on="1"/>
        <pt x="85" y="464" on="1"/>
        <pt x="123" y="509" on="0"/>
        <pt x="174" y="509" on="1"/>
        <pt x="210" y="509" on="0"/>
        <pt x="258" y="474" on="1"/>
        <pt x="277" y="460" on="0"/>
        <pt x="294" y="460" on="1"/>
        <pt x="310" y="460" on="0"/>
        <pt x="327" y="480" on="1"/>
        <pt x="334" y="487" on="0"/>
        <pt x="343" y="498" on="1"/>
        <pt x="361" y="426" on="1"/>
        <pt x="324" y="388" on="0"/>
      </contour>
    </TTGlyph>
    <TTGlyph name="asterisk" xMin="20" yMin="457" xMax="251" yMax="710">
      <contour>
        <pt x="224" y="486" on="1"/>
        <pt x="157" y="548" on="1"/>
        <pt x="161" y="457" on="1"/>
        <pt x="113" y="457" on="1"/>
        <pt x="116" y="548" on="1"/>
        <pt x="48" y="486" on="1"/>
        <pt x="20" y="531" on="1"/>
        <pt x="103" y="583" on="1"/>
        <pt x="22" y="635" on="1"/>
        <pt x="48" y="680" on="1"/>
        <pt x="118" y="617" on="1"/>
        <pt x="114" y="710" on="1"/>
        <pt x="162" y="709" on="1"/>
        <pt x="157" y="617" on="1"/>
        <pt x="224" y="680" on="1"/>
        <pt x="250" y="635" on="1"/>
        <pt x="171" y="584" on="1"/>
        <pt x="251" y="531" on="1"/>
      </contour>
    </TTGlyph>
    <TTGlyph name="at" xMin="54" yMin="-238" xMax="991" yMax="715">
      <contour>
        <pt x="505" y="-238" on="1"/>
        <pt x="310" y="-238" on="0"/>
        <pt x="180" y="-93" on="1"/>
        <pt x="54" y="47" on="0"/>
        <pt x="54" y="244" on="1"/>
        <pt x="54" y="441" on="0"/>
        <pt x="329" y="715" on="0"/>
        <pt x="721" y="715" on="0"/>
        <pt x="952" y="471" on="0"/>
        <pt x="952" y="274" on="1"/>
        <pt x="952" y="165" on="0"/>
        <pt x="878" y="82" on="1"/>
        <pt x="845" y="45" on="0"/>
        <pt x="790" y="17" on="1"/>
        <pt x="732" y="-13" on="0"/>
        <pt x="685" y="-12" on="1"/>
        <pt x="645" y="-12" on="0"/>
        <pt x="623" y="19" on="1"/>
        <pt x="603" y="48" on="0"/>
        <pt x="606" y="89" on="1"/>
        <pt x="529" y="-11" on="0"/>
        <pt x="434" y="-11" on="1"/>
        <pt x="277" y="-11" on="0"/>
        <pt x="278" y="205" on="1"/>
        <pt x="278" y="320" on="0"/>
        <pt x="348" y="417" on="1"/>
        <pt x="427" y="525" on="0"/>
        <pt x="542" y="524" on="1"/>
        <pt x="577" y="524" on="0"/>
        <pt x="610" y="512" on="1"/>
        <pt x="649" y="497" on="0"/>
        <pt x="666" y="472" on="1"/>
        <pt x="669" y="514" on="1"/>
        <pt x="743" y="514" on="1"/>
        <pt x="678" y="96" on="1"/>
        <pt x="679" y="83" on="0"/>
        <pt x="702" y="62" on="0"/>
        <pt x="716" y="61" on="1"/>
        <pt x="733" y="60" on="0"/>
        <pt x="770" y="83" on="1"/>
        <pt x="803" y="102" on="0"/>
        <pt x="818" y="120" on="1"/>
        <pt x="842" y="146" on="0"/>
        <pt x="882" y="241" on="0"/>
        <pt x="882" y="274" on="1"/>
        <pt x="882" y="441" on="0"/>
        <pt x="691" y="644" on="0"/>
        <pt x="525" y="644" on="1"/>
        <pt x="358" y="644" on="0"/>
        <pt x="125" y="411" on="0"/>
        <pt x="125" y="244" on="1"/>
        <pt x="125" y="76" on="0"/>
        <pt x="229" y="-43" on="1"/>
        <pt x="339" y="-167" on="0"/>
        <pt x="505" y="-167" on="1"/>
        <pt x="648" y="-167" on="0"/>
        <pt x="743" y="-126" on="1"/>
        <pt x="854" y="-78" on="0"/>
        <pt x="923" y="33" on="1"/>
        <pt x="991" y="-11" on="1"/>
        <pt x="914" y="-140" on="0"/>
        <pt x="782" y="-194" on="1"/>
        <pt x="675" y="-238" on="0"/>
      </contour>
      <contour>
        <pt x="653" y="408" on="1"/>
        <pt x="640" y="434" on="0"/>
        <pt x="603" y="447" on="1"/>
        <pt x="571" y="460" on="0"/>
        <pt x="539" y="461" on="1"/>
        <pt x="493" y="461" on="0"/>
        <pt x="440" y="417" on="1"/>
        <pt x="362" y="350" on="0"/>
        <pt x="362" y="220" on="1"/>
        <pt x="362" y="152" on="0"/>
        <pt x="375" y="123" on="1"/>
        <pt x="399" y="66" on="0"/>
        <pt x="470" y="66" on="1"/>
        <pt x="515" y="66" on="0"/>
        <pt x="609" y="164" on="0"/>
        <pt x="617" y="210" on="1"/>
      </contour>
    </TTGlyph>
    <TTGlyph name="atilde" xMin="47" yMin="-16" xMax="493" yMax="701">
      <contour>
        <pt x="409" y="-11" on="1"/>
        <pt x="367" y="-11" on="0"/>
        <pt x="344" y="38" on="1"/>
        <pt x="310" y="12" on="0"/>
        <pt x="292" y="4" on="1"/>
        <pt x="248" y="-16" on="0"/>
        <pt x="188" y="-16" on="1"/>
        <pt x="123" y="-16" on="0"/>
        <pt x="47" y="66" on="0"/>
        <pt x="47" y="130" on="1"/>
        <pt x="47" y="213" on="0"/>
        <pt x="97" y="250" on="1"/>
        <pt x="130" y="274" on="0"/>
        <pt x="221" y="295" on="1"/>
        <pt x="256" y="303" on="0"/>
        <pt x="332" y="310" on="1"/>
        <pt x="332" y="375" on="1"/>
        <pt x="332" y="409" on="0"/>
        <pt x="280" y="452" on="0"/>
        <pt x="245" y="452" on="1"/>
        <pt x="189" y="452" on="0"/>
        <pt x="109" y="386" on="1"/>
        <pt x="67" y="443" on="1"/>
        <pt x="99" y="472" on="0"/>
        <pt x="151" y="497" on="1"/>
        <pt x="208" y="525" on="0"/>
        <pt x="245" y="524" on="1"/>
        <pt x="316" y="524" on="0"/>
        <pt x="412" y="436" on="0"/>
        <pt x="412" y="366" on="1"/>
        <pt x="412" y="77" on="1"/>
        <pt x="417" y="57" on="0"/>
        <pt x="433" y="56" on="1"/>
        <pt x="444" y="55" on="0"/>
        <pt x="476" y="78" on="1"/>
        <pt x="493" y="25" on="1"/>
        <pt x="459" y="-11" on="0"/>
      </contour>
      <contour>
        <pt x="332" y="239" on="1"/>
        <pt x="300" y="239" on="0"/>
        <pt x="254" y="229" on="1"/>
        <pt x="240" y="226" on="0"/>
        <pt x="196" y="216" on="1"/>
        <pt x="123" y="198" on="0"/>
        <pt x="122" y="129" on="1"/>
        <pt x="122" y="92" on="0"/>
        <pt x="163" y="48" on="0"/>
        <pt x="200" y="48" on="1"/>
        <pt x="240" y="48" on="0"/>
        <pt x="282" y="70" on="1"/>
        <pt x="332" y="96" on="0"/>
        <pt x="332" y="135" on="1"/>
      </contour>
      <contour>
        <pt x="319" y="562" on="1"/>
        <pt x="292" y="562" on="0"/>
        <pt x="193" y="633" on="0"/>
        <pt x="180" y="633" on="1"/>
        <pt x="140" y="633" on="0"/>
        <pt x="109" y="590" on="1"/>
        <pt x="82" y="650" on="1"/>
        <pt x="96" y="670" on="0"/>
        <pt x="155" y="700" on="0"/>
        <pt x="180" y="701" on="1"/>
        <pt x="206" y="702" on="0"/>
        <pt x="300" y="632" on="0"/>
        <pt x="317" y="632" on="1"/>
        <pt x="341" y="632" on="0"/>
        <pt x="369" y="657" on="1"/>
        <pt x="395" y="596" on="1"/>
        <pt x="386" y="586" on="0"/>
        <pt x="333" y="562" on="0"/>
      </contour>
    </TTGlyph>
    <TTGlyph name="b" xMin="66" yMin="-10" xMax="493" yMax="717">
      <contour>
        <pt x="279" y="-10" on="1"/>
        <pt x="213" y="-10" on="0"/>
        <pt x="146" y="41" on="1"/>
        <pt x="132" y="0" on="1"/>
        <pt x="66" y="0" on="1"/>
        <pt x="66" y="717" on="1"/>
        <pt x="146" y="717" on="1"/>
        <pt x="146" y="459" on="1"/>
        <pt x="216" y="525" on="0"/>
        <pt x="274" y="524" on="1"/>
        <pt x="378" y="524" on="0"/>
        <pt x="438" y="444" on="1"/>
        <pt x="492" y="372" on="0"/>
        <pt x="493" y="265" on="1"/>
        <pt x="493" y="147" on="0"/>
        <pt x="445" y="75" on="1"/>
        <pt x="391" y="-10" on="0"/>
      </contour>
      <contour>
        <pt x="273" y="454" on="1"/>
        <pt x="180" y="454" on="0"/>
        <pt x="146" y="380" on="1"/>
        <pt x="146" y="111" on="1"/>
        <pt x="164" y="86" on="0"/>
        <pt x="203" y="72" on="1"/>
        <pt x="238" y="58" on="0"/>
        <pt x="270" y="57" on="1"/>
        <pt x="400" y="57" on="0"/>
        <pt x="400" y="262" on="1"/>
        <pt x="400" y="337" on="0"/>
        <pt x="375" y="388" on="1"/>
        <pt x="341" y="454" on="0"/>
      </contour>
    </TTGlyph>
    <TTGlyph name="backslash" xMin="12" yMin="-174" xMax="398" yMax="721">
      <contour>
        <pt x="315" y="-174" on="1"/>
        <pt x="12" y="703" on="1"/>
        <pt x="94" y="721" on="1"/>
        <pt x="398" y="-157" on="1"/>
      </contour>
    </TTGlyph>
    <TTGlyph name="bar" xMin="87" yMin="-225" xMax="177" yMax="702">
      <contour>
        <pt x="87" y="-225" on="1"/>
        <pt x="87" y="702" on="1"/>
        <pt x="177" y="702" on="1"/>
        <pt x="177" y="-225" on="1"/>
      </contour>
    </TTGlyph>
    <TTGlyph name="braceleft" xMin="115" yMin="-202" xMax="423" yMax="854">
      <contour>
        <pt x="408" y="766" on="1"/>
        <pt x="366" y="779" on="0"/>
        <pt x="349" y="779" on="1"/>
        <pt x="303" y="779" on="0"/>
        <pt x="289" y="758" on="1"/>
        <pt x="271" y="730" on="0"/>
        <pt x="270" y="640" on="1"/>
        <pt x="270" y="617" on="0"/>
        <pt x="275" y="528" on="0"/>
        <pt x="275" y="506" on="1"/>
        <pt x="275" y="432" on="0"/>
        <pt x="191" y="356" on="1"/>
        <pt x="191" y="331" on="1"/>
        <pt x="232" y="301" on="0"/>
        <pt x="286" y="194" on="0"/>
        <pt x="286" y="142" on="1"/>
        <pt x="286" y="114" on="0"/>
        <pt x="278" y="4" on="0"/>
        <pt x="278" y="-24" on="1"/>
        <pt x="278" y="-84" on="0"/>
        <pt x="283" y="-99" on="1"/>
        <pt x="293" y="-129" on="0"/>
        <pt x="330" y="-129" on="1"/>
        <pt x="375" y="-129" on="0"/>
        <pt x="400" y="-108" on="1"/>
        <pt x="421" y="-184" on="1"/>
        <pt x="360" y="-203" on="0"/>
        <pt x="327" y="-202" on="1"/>
        <pt x="231" y="-197" on="0"/>
        <pt x="202" y="-113" on="1"/>
        <pt x="187" y="-68" on="0"/>
        <pt x="186" y="52" on="1"/>
        <pt x="186" y="72" on="0"/>
        <pt x="190" y="156" on="0"/>
        <pt x="190" y="176" on="1"/>
        <pt x="190" y="265" on="0"/>
        <pt x="115" y="327" on="1"/>
        <pt x="116" y="368" on="1"/>
        <pt x="155" y="408" on="0"/>
        <pt x="167" y="427" on="1"/>
        <pt x="191" y="464" on="0"/>
        <pt x="190" y="509" on="1"/>
        <pt x="190" y="533" on="0"/>
        <pt x="184" y="625" on="0"/>
        <pt x="184" y="648" on="1"/>
        <pt x="184" y="854" on="0"/>
        <pt x="347" y="854" on="1"/>
        <pt x="374" y="854" on="0"/>
        <pt x="423" y="843" on="1"/>
      </contour>
    </TTGlyph>
    <TTGlyph name="braceright" xMin="133" yMin="-202" xMax="441" yMax="854">
      <contour>
        <pt x="366" y="176" on="1"/>
        <pt x="366" y="156" on="0"/>
        <pt x="370" y="73" on="0"/>
        <pt x="370" y="52" on="1"/>
        <pt x="370" y="-68" on="0"/>
        <pt x="352" y="-116" on="1"/>
        <pt x="322" y="-198" on="0"/>
        <pt x="229" y="-202" on="1"/>
        <pt x="198" y="-203" on="0"/>
        <pt x="135" y="-184" on="1"/>
        <pt x="156" y="-108" on="1"/>
        <pt x="182" y="-130" on="0"/>
        <pt x="226" y="-129" on="1"/>
        <pt x="278" y="-129" on="0"/>
        <pt x="279" y="-66" on="1"/>
        <pt x="279" y="-24" on="1"/>
        <pt x="279" y="4" on="0"/>
        <pt x="270" y="115" on="0"/>
        <pt x="270" y="142" on="1"/>
        <pt x="270" y="193" on="0"/>
        <pt x="324" y="301" on="0"/>
        <pt x="365" y="331" on="1"/>
        <pt x="365" y="356" on="1"/>
        <pt x="281" y="432" on="0"/>
        <pt x="281" y="506" on="1"/>
        <pt x="281" y="529" on="0"/>
        <pt x="286" y="617" on="0"/>
        <pt x="286" y="640" on="1"/>
        <pt x="286" y="730" on="0"/>
        <pt x="267" y="758" on="1"/>
        <pt x="253" y="780" on="0"/>
        <pt x="207" y="779" on="1"/>
        <pt x="191" y="779" on="0"/>
        <pt x="148" y="766" on="1"/>
        <pt x="133" y="843" on="1"/>
        <pt x="182" y="854" on="0"/>
        <pt x="209" y="854" on="1"/>
        <pt x="372" y="854" on="0"/>
        <pt x="372" y="648" on="1"/>
        <pt x="372" y="624" on="0"/>
        <pt x="366" y="532" on="0"/>
        <pt x="366" y="509" on="1"/>
        <pt x="366" y="464" on="0"/>
        <pt x="389" y="427" on="1"/>
        <pt x="401" y="408" on="0"/>
        <pt x="440" y="368" on="1"/>
        <pt x="441" y="327" on="1"/>
        <pt x="366" y="265" on="0"/>
      </contour>
    </TTGlyph>
    <TTGlyph name="bracketleft" xMin="57" yMin="-117" xMax="224" yMax="758">
      <contour>
        <pt x="57" y="-117" on="1"/>
        <pt x="57" y="758" on="1"/>
        <pt x="214" y="758" on="1"/>
        <pt x="214" y="706" on="1"/>
        <pt x="141" y="706" on="1"/>
        <pt x="141" y="-45" on="1"/>
        <pt x="224" y="-45" on="1"/>
        <pt x="224" y="-117" on="1"/>
      </contour>
    </TTGlyph>
    <TTGlyph name="bracketright" xMin="51" yMin="-117" xMax="215" yMax="758">
      <contour>
        <pt x="51" y="-117" on="1"/>
        <pt x="51" y="-45" on="1"/>
        <pt x="134" y="-45" on="1"/>
        <pt x="134" y="706" on="1"/>
        <pt x="60" y="706" on="1"/>
        <pt x="60" y="758" on="1"/>
        <pt x="215" y="758" on="1"/>
        <pt x="215" y="-117" on="1"/>
      </contour>
    </TTGlyph>
    <TTGlyph name="breve" xMin="32" yMin="551" xMax="310" yMax="666">
      <contour>
        <pt x="175" y="551" on="1"/>
        <pt x="124" y="551" on="0"/>
        <pt x="47" y="609" on="0"/>
        <pt x="32" y="658" on="1"/>
        <pt x="82" y="666" on="1"/>
        <pt x="109" y="601" on="0"/>
        <pt x="174" y="601" on="1"/>
        <pt x="234" y="601" on="0"/>
        <pt x="261" y="666" on="1"/>
        <pt x="310" y="658" on="1"/>
        <pt x="297" y="609" on="0"/>
        <pt x="225" y="551" on="0"/>
      </contour>
    </TTGlyph>
    <TTGlyph name="brokenbar" xMin="55" yMin="-18" xMax="134" yMax="672">
      <contour>
        <pt x="55" y="-18" on="1"/>
        <pt x="55" y="262" on="1"/>
        <pt x="134" y="262" on="1"/>
        <pt x="134" y="-18" on="1"/>
      </contour>
      <contour>
        <pt x="55" y="391" on="1"/>
        <pt x="55" y="672" on="1"/>
        <pt x="134" y="672" on="1"/>
        <pt x="134" y="391" on="1"/>
      </contour>
    </TTGlyph>
    <TTGlyph name="bullet" xMin="49" yMin="195" xMax="237" yMax="400">
      <contour>
        <pt x="143" y="195" on="1"/>
        <pt x="101" y="195" on="0"/>
        <pt x="49" y="256" on="0"/>
        <pt x="49" y="298" on="1"/>
        <pt x="49" y="340" on="0"/>
        <pt x="102" y="400" on="0"/>
        <pt x="143" y="400" on="1"/>
        <pt x="184" y="400" on="0"/>
        <pt x="237" y="339" on="0"/>
        <pt x="237" y="298" on="1"/>
        <pt x="237" y="257" on="0"/>
        <pt x="184" y="195" on="0"/>
      </contour>
    </TTGlyph>
    <TTGlyph name="c" xMin="40" yMin="-12" xMax="453" yMax="519">
      <contour>
        <pt x="275" y="-12" on="1"/>
        <pt x="141" y="-12" on="0"/>
        <pt x="80" y="91" on="1"/>
        <pt x="40" y="159" on="0"/>
        <pt x="40" y="248" on="1"/>
        <pt x="40" y="366" on="0"/>
        <pt x="99" y="439" on="1"/>
        <pt x="164" y="520" on="0"/>
        <pt x="278" y="519" on="1"/>
        <pt x="368" y="518" on="0"/>
        <pt x="438" y="465" on="1"/>
        <pt x="395" y="397" on="1"/>
        <pt x="326" y="449" on="0"/>
        <pt x="266" y="450" on="1"/>
        <pt x="193" y="450" on="0"/>
        <pt x="156" y="380" on="1"/>
        <pt x="125" y="324" on="0"/>
        <pt x="125" y="244" on="1"/>
        <pt x="125" y="169" on="0"/>
        <pt x="162" y="117" on="1"/>
        <pt x="204" y="59" on="0"/>
        <pt x="275" y="58" on="1"/>
        <pt x="349" y="58" on="0"/>
        <pt x="413" y="115" on="1"/>
        <pt x="453" y="61" on="1"/>
        <pt x="377" y="-12" on="0"/>
      </contour>
    </TTGlyph>
    <TTGlyph name="caron" xMin="36" yMin="539" xMax="323" yMax="727">
      <contour>
        <pt x="182" y="632" on="1"/>
        <pt x="323" y="727" on="1"/>
        <pt x="323" y="654" on="1"/>
        <pt x="182" y="539" on="1"/>
        <pt x="36" y="654" on="1"/>
        <pt x="36" y="727" on="1"/>
      </contour>
    </TTGlyph>
    <TTGlyph name="ccedilla" xMin="45" yMin="-224" xMax="458" yMax="519">
      <contour>
        <pt x="302" y="-224" on="1"/>
        <pt x="237" y="-224" on="0"/>
        <pt x="214" y="-175" on="1"/>
        <pt x="252" y="-140" on="1"/>
        <pt x="281" y="-173" on="0"/>
        <pt x="303" y="-173" on="1"/>
        <pt x="340" y="-173" on="0"/>
        <pt x="340" y="-138" on="1"/>
        <pt x="340" y="-98" on="0"/>
        <pt x="305" y="-98" on="1"/>
        <pt x="291" y="-98" on="0"/>
        <pt x="270" y="-114" on="1"/>
        <pt x="222" y="-92" on="1"/>
        <pt x="227" y="-7" on="1"/>
        <pt x="124" y="11" on="0"/>
        <pt x="77" y="106" on="1"/>
        <pt x="45" y="171" on="0"/>
        <pt x="45" y="248" on="1"/>
        <pt x="45" y="365" on="0"/>
        <pt x="104" y="439" on="1"/>
        <pt x="169" y="520" on="0"/>
        <pt x="283" y="519" on="1"/>
        <pt x="373" y="518" on="0"/>
        <pt x="443" y="465" on="1"/>
        <pt x="400" y="397" on="1"/>
        <pt x="332" y="449" on="0"/>
        <pt x="272" y="450" on="1"/>
        <pt x="198" y="450" on="0"/>
        <pt x="161" y="380" on="1"/>
        <pt x="131" y="325" on="0"/>
        <pt x="130" y="244" on="1"/>
        <pt x="129" y="169" on="0"/>
        <pt x="167" y="117" on="1"/>
        <pt x="209" y="59" on="0"/>
        <pt x="281" y="58" on="1"/>
        <pt x="355" y="58" on="0"/>
        <pt x="418" y="115" on="1"/>
        <pt x="458" y="61" on="1"/>
        <pt x="384" y="-11" on="0"/>
        <pt x="286" y="-12" on="1"/>
        <pt x="283" y="-48" on="1"/>
        <pt x="292" y="-44" on="0"/>
        <pt x="308" y="-44" on="1"/>
        <pt x="347" y="-44" on="0"/>
        <pt x="401" y="-96" on="0"/>
        <pt x="401" y="-135" on="1"/>
        <pt x="401" y="-176" on="0"/>
        <pt x="344" y="-224" on="0"/>
      </contour>
    </TTGlyph>
    <TTGlyph name="cedilla" xMin="15" yMin="-224" xMax="202" yMax="5">
      <contour>
        <pt x="103" y="-224" on="1"/>
        <pt x="36" y="-224" on="0"/>
        <pt x="15" y="-175" on="1"/>
        <pt x="52" y="-140" on="1"/>
        <pt x="83" y="-173" on="0"/>
        <pt x="104" y="-173" on="1"/>
        <pt x="141" y="-173" on="0"/>
        <pt x="141" y="-138" on="1"/>
        <pt x="141" y="-98" on="0"/>
        <pt x="106" y="-98" on="1"/>
        <pt x="92" y="-98" on="0"/>
        <pt x="71" y="-114" on="1"/>
        <pt x="24" y="-92" on="1"/>
        <pt x="29" y="4" on="1"/>
        <pt x="88" y="5" on="1"/>
        <pt x="84" y="-48" on="1"/>
        <pt x="93" y="-44" on="0"/>
        <pt x="110" y="-44" on="1"/>
        <pt x="150" y="-44" on="0"/>
        <pt x="202" y="-95" on="0"/>
        <pt x="202" y="-135" on="1"/>
        <pt x="202" y="-176" on="0"/>
        <pt x="145" y="-224" on="0"/>
      </contour>
    </TTGlyph>
    <TTGlyph name="cent" xMin="39" yMin="-91" xMax="454" yMax="604">
      <contour>
        <pt x="230" y="-10" on="1"/>
        <pt x="120" y="6" on="0"/>
        <pt x="72" y="103" on="1"/>
        <pt x="39" y="168" on="0"/>
        <pt x="39" y="248" on="1"/>
        <pt x="39" y="351" on="0"/>
        <pt x="84" y="421" on="1"/>
        <pt x="134" y="500" on="0"/>
        <pt x="230" y="516" on="1"/>
        <pt x="230" y="604" on="1"/>
        <pt x="322" y="604" on="1"/>
        <pt x="322" y="517" on="1"/>
        <pt x="387" y="506" on="0"/>
        <pt x="439" y="465" on="1"/>
        <pt x="395" y="395" on="1"/>
        <pt x="330" y="445" on="0"/>
        <pt x="266" y="445" on="1"/>
        <pt x="192" y="445" on="0"/>
        <pt x="156" y="378" on="1"/>
        <pt x="126" y="324" on="0"/>
        <pt x="126" y="244" on="1"/>
        <pt x="126" y="169" on="0"/>
        <pt x="163" y="119" on="1"/>
        <pt x="204" y="63" on="0"/>
        <pt x="275" y="62" on="1"/>
        <pt x="353" y="62" on="0"/>
        <pt x="413" y="117" on="1"/>
        <pt x="454" y="61" on="1"/>
        <pt x="395" y="3" on="0"/>
        <pt x="322" y="-9" on="1"/>
        <pt x="322" y="-91" on="1"/>
        <pt x="230" y="-91" on="1"/>
      </contour>
    </TTGlyph>
    <TTGlyph name="circumflex" xMin="36" yMin="539" xMax="323" yMax="727">
      <contour>
        <pt x="177" y="634" on="1"/>
        <pt x="36" y="539" on="1"/>
        <pt x="36" y="611" on="1"/>
        <pt x="177" y="727" on="1"/>
        <pt x="323" y="611" on="1"/>
        <pt x="323" y="539" on="1"/>
      </contour>
    </TTGlyph>
    <TTGlyph name="colon" xMin="68" yMin="-9" xMax="205" yMax="518">
      <contour>
        <pt x="136" y="369" on="1"/>
        <pt x="107" y="369" on="0"/>
        <pt x="68" y="414" on="0"/>
        <pt x="68" y="443" on="1"/>
        <pt x="68" y="473" on="0"/>
        <pt x="108" y="518" on="0"/>
        <pt x="136" y="518" on="1"/>
        <pt x="166" y="518" on="0"/>
        <pt x="205" y="473" on="0"/>
        <pt x="205" y="443" on="1"/>
        <pt x="205" y="413" on="0"/>
        <pt x="166" y="369" on="0"/>
      </contour>
      <contour>
        <pt x="136" y="-9" on="1"/>
        <pt x="107" y="-9" on="0"/>
        <pt x="68" y="36" on="0"/>
        <pt x="68" y="66" on="1"/>
        <pt x="68" y="96" on="0"/>
        <pt x="108" y="140" on="0"/>
        <pt x="136" y="140" on="1"/>
        <pt x="166" y="140" on="0"/>
        <pt x="205" y="95" on="0"/>
        <pt x="205" y="66" on="1"/>
        <pt x="205" y="36" on="0"/>
        <pt x="166" y="-9" on="0"/>
      </contour>
    </TTGlyph>
    <TTGlyph name="comma" xMin="67" yMin="-86" xMax="206" yMax="123">
      <contour>
        <pt x="67" y="-74" on="1"/>
        <pt x="112" y="-86" on="1"/>
        <pt x="205" y="36" on="0"/>
        <pt x="206" y="123" on="1"/>
        <pt x="106" y="123" on="1"/>
        <pt x="106" y="84" on="0"/>
        <pt x="94" y="23" on="1"/>
        <pt x="82" y="-42" on="0"/>
      </contour>
    </TTGlyph>
    <TTGlyph name="copyright" xMin="69" yMin="-15" xMax="746" yMax="663">
      <contour>
        <pt x="406" y="104" on="1"/>
        <pt x="317" y="104" on="0"/>
        <pt x="266" y="172" on="1"/>
        <pt x="222" y="233" on="0"/>
        <pt x="222" y="326" on="1"/>
        <pt x="222" y="416" on="0"/>
        <pt x="269" y="476" on="1"/>
        <pt x="320" y="542" on="0"/>
        <pt x="408" y="543" on="1"/>
        <pt x="468" y="543" on="0"/>
        <pt x="531" y="507" on="1"/>
        <pt x="507" y="455" on="1"/>
        <pt x="447" y="492" on="0"/>
        <pt x="411" y="492" on="1"/>
        <pt x="345" y="492" on="0"/>
        <pt x="309" y="429" on="1"/>
        <pt x="281" y="381" on="0"/>
        <pt x="282" y="317" on="1"/>
        <pt x="282" y="256" on="0"/>
        <pt x="312" y="210" on="1"/>
        <pt x="347" y="157" on="0"/>
        <pt x="406" y="157" on="1"/>
        <pt x="460" y="157" on="0"/>
        <pt x="510" y="185" on="1"/>
        <pt x="536" y="142" on="1"/>
        <pt x="464" y="104" on="0"/>
      </contour>
      <contour>
        <pt x="135" y="324" on="1"/>
        <pt x="135" y="210" on="0"/>
        <pt x="294" y="51" on="0"/>
        <pt x="408" y="51" on="1"/>
        <pt x="522" y="51" on="0"/>
        <pt x="680" y="210" on="0"/>
        <pt x="680" y="324" on="1"/>
        <pt x="680" y="438" on="0"/>
        <pt x="521" y="596" on="0"/>
        <pt x="408" y="596" on="1"/>
        <pt x="294" y="596" on="0"/>
        <pt x="135" y="438" on="0"/>
      </contour>
      <contour>
        <pt x="69" y="324" on="1"/>
        <pt x="69" y="465" on="0"/>
        <pt x="266" y="663" on="0"/>
        <pt x="408" y="663" on="1"/>
        <pt x="549" y="663" on="0"/>
        <pt x="746" y="465" on="0"/>
        <pt x="746" y="324" on="1"/>
        <pt x="746" y="183" on="0"/>
        <pt x="549" y="-15" on="0"/>
        <pt x="408" y="-15" on="1"/>
        <pt x="267" y="-15" on="0"/>
        <pt x="69" y="183" on="0"/>
      </contour>
    </TTGlyph>
    <TTGlyph name="currency" xMin="38" yMin="0" xMax="432" yMax="655">
      <contour>
        <pt x="414" y="369" on="1"/>
        <pt x="231" y="369" on="1"/>
        <pt x="231" y="323" on="1"/>
        <pt x="414" y="323" on="1"/>
        <pt x="414" y="246" on="1"/>
        <pt x="231" y="246" on="1"/>
        <pt x="231" y="78" on="1"/>
        <pt x="429" y="79" on="1"/>
        <pt x="429" y="0" on="1"/>
        <pt x="140" y="0" on="1"/>
        <pt x="140" y="246" on="1"/>
        <pt x="39" y="246" on="1"/>
        <pt x="38" y="323" on="1"/>
        <pt x="140" y="323" on="1"/>
        <pt x="140" y="370" on="1"/>
        <pt x="39" y="370" on="1"/>
        <pt x="38" y="445" on="1"/>
        <pt x="140" y="445" on="1"/>
        <pt x="140" y="655" on="1"/>
        <pt x="432" y="655" on="1"/>
        <pt x="432" y="582" on="1"/>
        <pt x="231" y="582" on="1"/>
        <pt x="231" y="445" on="1"/>
        <pt x="414" y="445" on="1"/>
      </contour>
    </TTGlyph>
    <TTGlyph name="d" xMin="38" yMin="-13" xMax="459" yMax="714">
      <contour>
        <pt x="459" y="0" on="1"/>
        <pt x="391" y="0" on="1"/>
        <pt x="379" y="43" on="1"/>
        <pt x="296" y="-13" on="0"/>
        <pt x="237" y="-13" on="1"/>
        <pt x="142" y="-13" on="0"/>
        <pt x="86" y="74" on="1"/>
        <pt x="38" y="149" on="0"/>
        <pt x="38" y="249" on="1"/>
        <pt x="38" y="364" on="0"/>
        <pt x="89" y="438" on="1"/>
        <pt x="148" y="524" on="0"/>
        <pt x="258" y="524" on="1"/>
        <pt x="330" y="524" on="0"/>
        <pt x="379" y="465" on="1"/>
        <pt x="379" y="714" on="1"/>
        <pt x="459" y="714" on="1"/>
      </contour>
      <contour>
        <pt x="379" y="389" on="1"/>
        <pt x="350" y="428" on="0"/>
        <pt x="302" y="454" on="0"/>
        <pt x="254" y="454" on="1"/>
        <pt x="185" y="454" on="0"/>
        <pt x="154" y="387" on="1"/>
        <pt x="129" y="337" on="0"/>
        <pt x="129" y="260" on="1"/>
        <pt x="129" y="183" on="0"/>
        <pt x="158" y="130" on="1"/>
        <pt x="193" y="62" on="0"/>
        <pt x="263" y="62" on="1"/>
        <pt x="325" y="62" on="0"/>
        <pt x="379" y="109" on="1"/>
      </contour>
    </TTGlyph>
    <TTGlyph name="dagger" xMin="24" yMin="341" xMax="197" yMax="671">
      <contour>
        <pt x="197" y="572" on="1"/>
        <pt x="125" y="572" on="1"/>
        <pt x="125" y="341" on="1"/>
        <pt x="85" y="341" on="1"/>
        <pt x="85" y="572" on="1"/>
        <pt x="24" y="572" on="1"/>
        <pt x="24" y="607" on="1"/>
        <pt x="85" y="607" on="1"/>
        <pt x="85" y="671" on="1"/>
        <pt x="125" y="671" on="1"/>
        <pt x="125" y="607" on="1"/>
        <pt x="197" y="607" on="1"/>
      </contour>
    </TTGlyph>
    <TTGlyph name="daggerdbl" xMin="25" yMin="251" xMax="187" yMax="671">
      <contour>
        <pt x="187" y="407" on="1"/>
        <pt x="124" y="407" on="1"/>
        <pt x="124" y="251" on="1"/>
        <pt x="86" y="251" on="1"/>
        <pt x="86" y="407" on="1"/>
        <pt x="25" y="407" on="1"/>
        <pt x="25" y="431" on="1"/>
        <pt x="86" y="431" on="1"/>
        <pt x="86" y="562" on="1"/>
        <pt x="25" y="562" on="1"/>
        <pt x="25" y="587" on="1"/>
        <pt x="86" y="587" on="1"/>
        <pt x="86" y="671" on="1"/>
        <pt x="124" y="671" on="1"/>
        <pt x="124" y="587" on="1"/>
        <pt x="187" y="587" on="1"/>
        <pt x="187" y="562" on="1"/>
        <pt x="124" y="562" on="1"/>
        <pt x="124" y="431" on="1"/>
        <pt x="187" y="431" on="1"/>
      </contour>
    </TTGlyph>
    <TTGlyph name="degree" xMin="5" yMin="463" xMax="274" yMax="729">
      <contour>
        <pt x="141" y="729" on="1"/>
        <pt x="198" y="729" on="0"/>
        <pt x="274" y="653" on="0"/>
        <pt x="274" y="596" on="1"/>
        <pt x="274" y="539" on="0"/>
        <pt x="199" y="463" on="0"/>
        <pt x="141" y="463" on="1"/>
        <pt x="84" y="463" on="0"/>
        <pt x="5" y="539" on="0"/>
        <pt x="5" y="596" on="1"/>
        <pt x="5" y="653" on="0"/>
        <pt x="84" y="729" on="0"/>
      </contour>
      <contour>
        <pt x="141" y="678" on="1"/>
        <pt x="105" y="678" on="0"/>
        <pt x="59" y="632" on="0"/>
        <pt x="59" y="596" on="1"/>
        <pt x="59" y="560" on="0"/>
        <pt x="105" y="514" on="0"/>
        <pt x="141" y="514" on="1"/>
        <pt x="176" y="514" on="0"/>
        <pt x="220" y="561" on="0"/>
        <pt x="220" y="596" on="1"/>
        <pt x="220" y="631" on="0"/>
        <pt x="176" y="678" on="0"/>
      </contour>
    </TTGlyph>
    <TTGlyph name="dieresis" xMin="-5" yMin="559" xMax="312" yMax="666">
      <contour>
        <pt x="261" y="559" on="1"/>
        <pt x="238" y="559" on="0"/>
        <pt x="210" y="590" on="0"/>
        <pt x="210" y="612" on="1"/>
        <pt x="210" y="635" on="0"/>
        <pt x="239" y="666" on="0"/>
        <pt x="283" y="666" on="0"/>
        <pt x="312" y="634" on="0"/>
        <pt x="312" y="612" on="1"/>
        <pt x="312" y="589" on="0"/>
        <pt x="284" y="559" on="0"/>
      </contour>
      <contour>
        <pt x="46" y="559" on="1"/>
        <pt x="23" y="559" on="0"/>
        <pt x="-5" y="590" on="0"/>
        <pt x="-5" y="612" on="1"/>
        <pt x="-5" y="635" on="0"/>
        <pt x="24" y="666" on="0"/>
        <pt x="46" y="666" on="1"/>
        <pt x="69" y="666" on="0"/>
        <pt x="97" y="635" on="0"/>
        <pt x="97" y="612" on="1"/>
        <pt x="97" y="589" on="0"/>
        <pt x="69" y="559" on="0"/>
      </contour>
    </TTGlyph>
    <TTGlyph name="divide" xMin="54" yMin="95" xMax="457" yMax="542">
      <contour>
        <pt x="270" y="407" on="1"/>
        <pt x="243" y="407" on="0"/>
        <pt x="209" y="446" on="0"/>
        <pt x="209" y="474" on="1"/>
        <pt x="209" y="502" on="0"/>
        <pt x="244" y="542" on="0"/>
        <pt x="270" y="542" on="1"/>
        <pt x="297" y="542" on="0"/>
        <pt x="332" y="502" on="0"/>
        <pt x="332" y="474" on="1"/>
        <pt x="332" y="446" on="0"/>
        <pt x="297" y="407" on="0"/>
      </contour>
      <contour>
        <pt x="54" y="282" on="1"/>
        <pt x="54" y="353" on="1"/>
        <pt x="457" y="353" on="1"/>
        <pt x="457" y="282" on="1"/>
      </contour>
      <contour>
        <pt x="270" y="95" on="1"/>
        <pt x="243" y="95" on="0"/>
        <pt x="209" y="135" on="0"/>
        <pt x="209" y="163" on="1"/>
        <pt x="209" y="191" on="0"/>
        <pt x="244" y="230" on="0"/>
        <pt x="270" y="230" on="1"/>
        <pt x="297" y="230" on="0"/>
        <pt x="332" y="190" on="0"/>
        <pt x="332" y="163" on="1"/>
        <pt x="332" y="135" on="0"/>
        <pt x="297" y="95" on="0"/>
      </contour>
    </TTGlyph>
    <TTGlyph name="dollar" xMin="79" yMin="-102" xMax="468" yMax="707">
      <contour>
        <pt x="322" y="-6" on="1"/>
        <pt x="322" y="-102" on="1"/>
        <pt x="230" y="-102" on="1"/>
        <pt x="230" y="-9" on="1"/>
        <pt x="126" y="5" on="0"/>
        <pt x="79" y="71" on="1"/>
        <pt x="127" y="134" on="1"/>
        <pt x="185" y="65" on="0"/>
        <pt x="269" y="66" on="1"/>
        <pt x="318" y="66" on="0"/>
        <pt x="381" y="122" on="0"/>
        <pt x="381" y="171" on="1"/>
        <pt x="381" y="220" on="0"/>
        <pt x="333" y="248" on="1"/>
        <pt x="320" y="256" on="0"/>
        <pt x="242" y="284" on="1"/>
        <pt x="174" y="309" on="0"/>
        <pt x="143" y="338" on="1"/>
        <pt x="98" y="382" on="0"/>
        <pt x="98" y="459" on="1"/>
        <pt x="98" y="517" on="0"/>
        <pt x="172" y="601" on="0"/>
        <pt x="230" y="615" on="1"/>
        <pt x="230" y="707" on="1"/>
        <pt x="322" y="707" on="1"/>
        <pt x="322" y="618" on="1"/>
        <pt x="384" y="607" on="0"/>
        <pt x="444" y="558" on="1"/>
        <pt x="399" y="499" on="1"/>
        <pt x="342" y="547" on="0"/>
        <pt x="282" y="547" on="1"/>
        <pt x="191" y="547" on="0"/>
        <pt x="190" y="454" on="1"/>
        <pt x="190" y="400" on="0"/>
        <pt x="285" y="368" on="1"/>
        <pt x="387" y="333" on="0"/>
        <pt x="419" y="306" on="1"/>
        <pt x="468" y="264" on="0"/>
        <pt x="468" y="173" on="1"/>
        <pt x="468" y="25" on="0"/>
      </contour>
    </TTGlyph>
    <TTGlyph name="dotaccent" xMin="77" yMin="541" xMax="185" yMax="639">
      <contour>
        <pt x="131" y="541" on="1"/>
        <pt x="109" y="541" on="0"/>
        <pt x="77" y="568" on="0"/>
        <pt x="77" y="590" on="1"/>
        <pt x="77" y="612" on="0"/>
        <pt x="109" y="639" on="0"/>
        <pt x="131" y="639" on="1"/>
        <pt x="154" y="639" on="0"/>
        <pt x="185" y="611" on="0"/>
        <pt x="185" y="590" on="1"/>
        <pt x="185" y="568" on="0"/>
        <pt x="153" y="541" on="0"/>
      </contour>
    </TTGlyph>
    <TTGlyph name="dotlessi" xMin="73" yMin="0" xMax="156" yMax="507">
      <contour>
        <pt x="73" y="0" on="1"/>
        <pt x="73" y="507" on="1"/>
        <pt x="156" y="507" on="1"/>
        <pt x="156" y="0" on="1"/>
      </contour>
    </TTGlyph>
    <TTGlyph name="e" xMin="40" yMin="-12" xMax="465" yMax="519">
      <contour>
        <pt x="127" y="263" on="1"/>
        <pt x="127" y="111" on="0"/>
        <pt x="213" y="73" on="1"/>
        <pt x="247" y="58" on="0"/>
        <pt x="284" y="57" on="1"/>
        <pt x="344" y="57" on="0"/>
        <pt x="418" y="123" on="1"/>
        <pt x="459" y="66" on="1"/>
        <pt x="377" y="-12" on="0"/>
        <pt x="276" y="-12" on="1"/>
        <pt x="137" y="-12" on="0"/>
        <pt x="78" y="92" on="1"/>
        <pt x="40" y="159" on="0"/>
        <pt x="40" y="253" on="1"/>
        <pt x="40" y="370" on="0"/>
        <pt x="101" y="442" on="1"/>
        <pt x="166" y="519" on="0"/>
        <pt x="281" y="519" on="1"/>
        <pt x="365" y="519" on="0"/>
        <pt x="465" y="411" on="0"/>
        <pt x="465" y="326" on="1"/>
        <pt x="465" y="263" on="1"/>
      </contour>
      <contour>
        <pt x="384" y="340" on="1"/>
        <pt x="384" y="452" on="0"/>
        <pt x="273" y="452" on="1"/>
        <pt x="212" y="452" on="0"/>
        <pt x="150" y="391" on="0"/>
        <pt x="134" y="328" on="1"/>
        <pt x="384" y="328" on="1"/>
      </contour>
    </TTGlyph>
    <TTGlyph name="eacute" xMin="45" yMin="-12" xMax="470" yMax="729">
      <contour>
        <pt x="132" y="263" on="1"/>
        <pt x="132" y="112" on="0"/>
        <pt x="219" y="73" on="1"/>
        <pt x="253" y="58" on="0"/>
        <pt x="290" y="57" on="1"/>
        <pt x="350" y="57" on="0"/>
        <pt x="424" y="123" on="1"/>
        <pt x="464" y="66" on="1"/>
        <pt x="382" y="-12" on="0"/>
        <pt x="282" y="-12" on="1"/>
        <pt x="143" y="-12" on="0"/>
        <pt x="83" y="92" on="1"/>
        <pt x="45" y="159" on="0"/>
        <pt x="45" y="253" on="1"/>
        <pt x="45" y="370" on="0"/>
        <pt x="106" y="442" on="1"/>
        <pt x="171" y="519" on="0"/>
        <pt x="286" y="519" on="1"/>
        <pt x="370" y="519" on="0"/>
        <pt x="470" y="411" on="0"/>
        <pt x="470" y="326" on="1"/>
        <pt x="470" y="263" on="1"/>
      </contour>
      <contour>
        <pt x="389" y="340" on="1"/>
        <pt x="389" y="452" on="0"/>
        <pt x="279" y="452" on="1"/>
        <pt x="218" y="452" on="0"/>
        <pt x="184" y="420" on="1"/>
        <pt x="155" y="391" on="0"/>
        <pt x="139" y="328" on="1"/>
        <pt x="389" y="328" on="1"/>
      </contour>
      <contour>
        <pt x="187" y="570" on="1"/>
        <pt x="139" y="631" on="1"/>
        <pt x="354" y="729" on="1"/>
        <pt x="402" y="663" on="1"/>
      </contour>
    </TTGlyph>
    <TTGlyph name="ecircumflex" xMin="45" yMin="-12" xMax="470" yMax="727">
      <contour>
        <pt x="132" y="263" on="1"/>
        <pt x="132" y="112" on="0"/>
        <pt x="219" y="73" on="1"/>
        <pt x="253" y="58" on="0"/>
        <pt x="290" y="57" on="1"/>
        <pt x="350" y="57" on="0"/>
        <pt x="424" y="123" on="1"/>
        <pt x="464" y="66" on="1"/>
        <pt x="382" y="-12" on="0"/>
        <pt x="282" y="-12" on="1"/>
        <pt x="143" y="-12" on="0"/>
        <pt x="83" y="92" on="1"/>
        <pt x="45" y="159" on="0"/>
        <pt x="45" y="253" on="1"/>
        <pt x="45" y="370" on="0"/>
        <pt x="106" y="442" on="1"/>
        <pt x="171" y="519" on="0"/>
        <pt x="286" y="519" on="1"/>
        <pt x="370" y="519" on="0"/>
        <pt x="470" y="411" on="0"/>
        <pt x="470" y="326" on="1"/>
        <pt x="470" y="263" on="1"/>
      </contour>
      <contour>
        <pt x="389" y="340" on="1"/>
        <pt x="389" y="452" on="0"/>
        <pt x="279" y="452" on="1"/>
        <pt x="218" y="452" on="0"/>
        <pt x="184" y="420" on="1"/>
        <pt x="155" y="391" on="0"/>
        <pt x="139" y="328" on="1"/>
        <pt x="389" y="328" on="1"/>
      </contour>
      <contour>
        <pt x="280" y="634" on="1"/>
        <pt x="138" y="539" on="1"/>
        <pt x="138" y="611" on="1"/>
        <pt x="280" y="727" on="1"/>
        <pt x="425" y="611" on="1"/>
        <pt x="425" y="539" on="1"/>
      </contour>
    </TTGlyph>
    <TTGlyph name="edieresis" xMin="45" yMin="-12" xMax="470" yMax="666">
      <contour>
        <pt x="132" y="263" on="1"/>
        <pt x="132" y="112" on="0"/>
        <pt x="219" y="73" on="1"/>
        <pt x="253" y="58" on="0"/>
        <pt x="290" y="57" on="1"/>
        <pt x="350" y="57" on="0"/>
        <pt x="424" y="123" on="1"/>
        <pt x="464" y="66" on="1"/>
        <pt x="382" y="-12" on="0"/>
        <pt x="282" y="-12" on="1"/>
        <pt x="143" y="-12" on="0"/>
        <pt x="83" y="92" on="1"/>
        <pt x="45" y="159" on="0"/>
        <pt x="45" y="253" on="1"/>
        <pt x="45" y="370" on="0"/>
        <pt x="106" y="442" on="1"/>
        <pt x="171" y="519" on="0"/>
        <pt x="286" y="519" on="1"/>
        <pt x="370" y="519" on="0"/>
        <pt x="470" y="411" on="0"/>
        <pt x="470" y="326" on="1"/>
        <pt x="470" y="263" on="1"/>
      </contour>
      <contour>
        <pt x="389" y="340" on="1"/>
        <pt x="389" y="452" on="0"/>
        <pt x="279" y="452" on="1"/>
        <pt x="218" y="452" on="0"/>
        <pt x="184" y="420" on="1"/>
        <pt x="155" y="391" on="0"/>
        <pt x="139" y="328" on="1"/>
        <pt x="389" y="328" on="1"/>
      </contour>
      <contour>
        <pt x="374" y="559" on="1"/>
        <pt x="351" y="559" on="0"/>
        <pt x="323" y="590" on="0"/>
        <pt x="323" y="612" on="1"/>
        <pt x="323" y="635" on="0"/>
        <pt x="351" y="666" on="0"/>
        <pt x="374" y="666" on="1"/>
        <pt x="396" y="666" on="0"/>
        <pt x="425" y="634" on="0"/>
        <pt x="425" y="612" on="1"/>
        <pt x="425" y="589" on="0"/>
        <pt x="397" y="559" on="0"/>
      </contour>
      <contour>
        <pt x="160" y="559" on="1"/>
        <pt x="137" y="559" on="0"/>
        <pt x="109" y="590" on="0"/>
        <pt x="109" y="612" on="1"/>
        <pt x="109" y="635" on="0"/>
        <pt x="137" y="666" on="0"/>
        <pt x="160" y="666" on="1"/>
        <pt x="183" y="666" on="0"/>
        <pt x="210" y="635" on="0"/>
        <pt x="210" y="612" on="1"/>
        <pt x="210" y="589" on="0"/>
        <pt x="183" y="559" on="0"/>
      </contour>
    </TTGlyph>
    <TTGlyph name="egrave" xMin="45" yMin="-12" xMax="470" yMax="728">
      <contour>
        <pt x="132" y="263" on="1"/>
        <pt x="132" y="112" on="0"/>
        <pt x="219" y="73" on="1"/>
        <pt x="253" y="58" on="0"/>
        <pt x="290" y="57" on="1"/>
        <pt x="350" y="57" on="0"/>
        <pt x="424" y="123" on="1"/>
        <pt x="464" y="66" on="1"/>
        <pt x="382" y="-12" on="0"/>
        <pt x="282" y="-12" on="1"/>
        <pt x="143" y="-12" on="0"/>
        <pt x="83" y="92" on="1"/>
        <pt x="45" y="159" on="0"/>
        <pt x="45" y="253" on="1"/>
        <pt x="45" y="370" on="0"/>
        <pt x="106" y="442" on="1"/>
        <pt x="171" y="519" on="0"/>
        <pt x="286" y="519" on="1"/>
        <pt x="370" y="519" on="0"/>
        <pt x="470" y="411" on="0"/>
        <pt x="470" y="326" on="1"/>
        <pt x="470" y="263" on="1"/>
      </contour>
      <contour>
        <pt x="389" y="340" on="1"/>
        <pt x="389" y="452" on="0"/>
        <pt x="279" y="452" on="1"/>
        <pt x="218" y="452" on="0"/>
        <pt x="184" y="420" on="1"/>
        <pt x="155" y="391" on="0"/>
        <pt x="139" y="328" on="1"/>
        <pt x="389" y="328" on="1"/>
      </contour>
      <contour>
        <pt x="364" y="569" on="1"/>
        <pt x="151" y="662" on="1"/>
        <pt x="198" y="728" on="1"/>
        <pt x="414" y="630" on="1"/>
      </contour>
    </TTGlyph>
    <TTGlyph name="eight" xMin="44" yMin="-29" xMax="473" yMax="680">
      <contour>
        <pt x="255" y="333" on="1"/>
        <pt x="192" y="298" on="0"/>
        <pt x="165" y="272" on="1"/>
        <pt x="124" y="230" on="0"/>
        <pt x="124" y="173" on="1"/>
        <pt x="124" y="103" on="0"/>
        <pt x="174" y="65" on="1"/>
        <pt x="213" y="35" on="0"/>
        <pt x="260" y="35" on="1"/>
        <pt x="319" y="35" on="0"/>
        <pt x="395" y="109" on="0"/>
        <pt x="395" y="172" on="1"/>
        <pt x="395" y="239" on="0"/>
        <pt x="353" y="279" on="1"/>
        <pt x="324" y="306" on="0"/>
      </contour>
      <contour>
        <pt x="250" y="623" on="1"/>
        <pt x="147" y="623" on="0"/>
        <pt x="146" y="526" on="1"/>
        <pt x="146" y="449" on="0"/>
        <pt x="248" y="403" on="1"/>
        <pt x="360" y="447" on="0"/>
        <pt x="359" y="522" on="1"/>
        <pt x="360" y="623" on="0"/>
      </contour>
      <contour>
        <pt x="254" y="-29" on="1"/>
        <pt x="169" y="-29" on="0"/>
        <pt x="110" y="20" on="1"/>
        <pt x="44" y="75" on="0"/>
        <pt x="44" y="170" on="1"/>
        <pt x="44" y="228" on="0"/>
        <pt x="78" y="281" on="1"/>
        <pt x="117" y="338" on="0"/>
        <pt x="185" y="369" on="1"/>
        <pt x="129" y="405" on="0"/>
        <pt x="106" y="432" on="1"/>
        <pt x="76" y="470" on="0"/>
        <pt x="77" y="522" on="1"/>
        <pt x="77" y="602" on="0"/>
        <pt x="133" y="644" on="1"/>
        <pt x="181" y="680" on="0"/>
        <pt x="257" y="680" on="1"/>
        <pt x="325" y="680" on="0"/>
        <pt x="375" y="641" on="1"/>
        <pt x="429" y="598" on="0"/>
        <pt x="429" y="529" on="1"/>
        <pt x="429" y="430" on="0"/>
        <pt x="318" y="371" on="1"/>
        <pt x="473" y="306" on="0"/>
        <pt x="473" y="172" on="1"/>
        <pt x="473" y="86" on="0"/>
        <pt x="421" y="33" on="1"/>
        <pt x="362" y="-29" on="0"/>
      </contour>
    </TTGlyph>
    <TTGlyph name="ellipsis" xMin="61" yMin="-16" xMax="585" yMax="125">
      <contour>
        <pt x="517" y="-16" on="1"/>
        <pt x="486" y="-16" on="0"/>
        <pt x="449" y="24" on="0"/>
        <pt x="449" y="54" on="1"/>
        <pt x="449" y="86" on="0"/>
        <pt x="485" y="125" on="0"/>
        <pt x="517" y="125" on="1"/>
        <pt x="548" y="125" on="0"/>
        <pt x="585" y="86" on="0"/>
        <pt x="585" y="54" on="1"/>
        <pt x="585" y="23" on="0"/>
        <pt x="548" y="-16" on="0"/>
      </contour>
      <contour>
        <pt x="324" y="-16" on="1"/>
        <pt x="293" y="-16" on="0"/>
        <pt x="255" y="24" on="0"/>
        <pt x="255" y="54" on="1"/>
        <pt x="255" y="86" on="0"/>
        <pt x="292" y="125" on="0"/>
        <pt x="324" y="125" on="1"/>
        <pt x="355" y="125" on="0"/>
        <pt x="391" y="86" on="0"/>
        <pt x="391" y="54" on="1"/>
        <pt x="391" y="23" on="0"/>
        <pt x="355" y="-16" on="0"/>
      </contour>
      <contour>
        <pt x="130" y="-16" on="1"/>
        <pt x="99" y="-16" on="0"/>
        <pt x="61" y="24" on="0"/>
        <pt x="61" y="54" on="1"/>
        <pt x="61" y="86" on="0"/>
        <pt x="98" y="125" on="0"/>
        <pt x="130" y="125" on="1"/>
        <pt x="161" y="125" on="0"/>
        <pt x="198" y="86" on="0"/>
        <pt x="198" y="54" on="1"/>
        <pt x="198" y="23" on="0"/>
        <pt x="161" y="-16" on="0"/>
      </contour>
    </TTGlyph>
    <TTGlyph name="emdash" xMin="28" yMin="299" xMax="996" yMax="372">
      <contour>
        <pt x="28" y="299" on="1"/>
        <pt x="28" y="372" on="1"/>
        <pt x="996" y="372" on="1"/>
        <pt x="996" y="299" on="1"/>
      </contour>
    </TTGlyph>
    <TTGlyph name="endash" xMin="35" yMin="299" xMax="477" yMax="372">
      <contour>
        <pt x="35" y="299" on="1"/>
        <pt x="35" y="372" on="1"/>
        <pt x="477" y="372" on="1"/>
        <pt x="477" y="299" on="1"/>
      </contour>
    </TTGlyph>
    <TTGlyph name="equal" xMin="52" yMin="138" xMax="398" yMax="360">
      <contour>
        <pt x="52" y="294" on="1"/>
        <pt x="52" y="360" on="1"/>
        <pt x="398" y="360" on="1"/>
        <pt x="398" y="294" on="1"/>
      </contour>
      <contour>
        <pt x="52" y="138" on="1"/>
        <pt x="52" y="205" on="1"/>
        <pt x="398" y="205" on="1"/>
        <pt x="398" y="138" on="1"/>
      </contour>
    </TTGlyph>
    <TTGlyph name="eth" xMin="33" yMin="-17" xMax="553" yMax="749">
      <contour>
        <pt x="438" y="367" on="1"/>
        <pt x="379" y="451" on="0"/>
        <pt x="284" y="451" on="1"/>
        <pt x="204" y="451" on="0"/>
        <pt x="162" y="394" on="1"/>
        <pt x="124" y="344" on="0"/>
        <pt x="123" y="262" on="1"/>
        <pt x="122" y="185" on="0"/>
        <pt x="159" y="129" on="1"/>
        <pt x="200" y="63" on="0"/>
        <pt x="273" y="63" on="1"/>
        <pt x="358" y="63" on="0"/>
        <pt x="404" y="125" on="1"/>
        <pt x="446" y="181" on="0"/>
        <pt x="446" y="268" on="1"/>
        <pt x="446" y="322" on="0"/>
      </contour>
      <contour>
        <pt x="217" y="628" on="1"/>
        <pt x="313" y="628" on="1"/>
        <pt x="267" y="683" on="0"/>
        <pt x="244" y="702" on="1"/>
        <pt x="312" y="749" on="1"/>
        <pt x="365" y="698" on="0"/>
        <pt x="414" y="628" on="1"/>
        <pt x="553" y="628" on="1"/>
        <pt x="552" y="557" on="1"/>
        <pt x="456" y="557" on="1"/>
        <pt x="533" y="417" on="0"/>
        <pt x="531" y="313" on="1"/>
        <pt x="529" y="166" on="0"/>
        <pt x="472" y="82" on="1"/>
        <pt x="403" y="-17" on="0"/>
        <pt x="263" y="-17" on="1"/>
        <pt x="159" y="-17" on="0"/>
        <pt x="93" y="66" on="1"/>
        <pt x="33" y="142" on="0"/>
        <pt x="33" y="249" on="1"/>
        <pt x="33" y="374" on="0"/>
        <pt x="163" y="520" on="0"/>
        <pt x="285" y="520" on="1"/>
        <pt x="364" y="520" on="0"/>
        <pt x="408" y="475" on="1"/>
        <pt x="398" y="505" on="0"/>
        <pt x="364" y="557" on="1"/>
        <pt x="217" y="557" on="1"/>
      </contour>
    </TTGlyph>
    <TTGlyph name="exclam" xMin="58" yMin="-13" xMax="176" yMax="723">
      <contour>
        <pt x="165" y="197" on="1"/>
        <pt x="78" y="197" on="1"/>
        <pt x="78" y="723" on="1"/>
        <pt x="165" y="723" on="1"/>
      </contour>
      <contour>
        <pt x="116" y="-13" on="1"/>
        <pt x="91" y="-13" on="0"/>
        <pt x="58" y="20" on="0"/>
        <pt x="58" y="45" on="1"/>
        <pt x="58" y="70" on="0"/>
        <pt x="91" y="104" on="0"/>
        <pt x="116" y="104" on="1"/>
        <pt x="142" y="104" on="0"/>
        <pt x="176" y="71" on="0"/>
        <pt x="176" y="45" on="1"/>
        <pt x="176" y="19" on="0"/>
        <pt x="142" y="-13" on="0"/>
      </contour>
    </TTGlyph>
    <TTGlyph name="exclamdown" xMin="58" yMin="-105" xMax="176" yMax="723">
      <contour>
        <pt x="70" y="513" on="1"/>
        <pt x="156" y="513" on="1"/>
        <pt x="156" y="-105" on="1"/>
        <pt x="70" y="-105" on="1"/>
      </contour>
      <contour>
        <pt x="117" y="723" on="1"/>
        <pt x="143" y="723" on="0"/>
        <pt x="176" y="690" on="0"/>
        <pt x="176" y="665" on="1"/>
        <pt x="176" y="639" on="0"/>
        <pt x="142" y="605" on="0"/>
        <pt x="92" y="605" on="0"/>
        <pt x="58" y="640" on="0"/>
        <pt x="58" y="665" on="1"/>
        <pt x="58" y="690" on="0"/>
        <pt x="92" y="723" on="0"/>
      </contour>
    </TTGlyph>
    <TTGlyph name="f" xMin="18" yMin="0" xMax="383" yMax="764">
      <contour>
        <pt x="344" y="667" on="1"/>
        <pt x="296" y="698" on="0"/>
        <pt x="256" y="698" on="1"/>
        <pt x="213" y="699" on="0"/>
        <pt x="191" y="654" on="1"/>
        <pt x="176" y="619" on="0"/>
        <pt x="176" y="571" on="1"/>
        <pt x="176" y="507" on="1"/>
        <pt x="318" y="507" on="1"/>
        <pt x="318" y="440" on="1"/>
        <pt x="176" y="440" on="1"/>
        <pt x="176" y="0" on="1"/>
        <pt x="98" y="0" on="1"/>
        <pt x="98" y="440" on="1"/>
        <pt x="18" y="440" on="1"/>
        <pt x="18" y="507" on="1"/>
        <pt x="98" y="507" on="1"/>
        <pt x="98" y="574" on="1"/>
        <pt x="98" y="655" on="0"/>
        <pt x="135" y="707" on="1"/>
        <pt x="176" y="764" on="0"/>
        <pt x="255" y="764" on="1"/>
        <pt x="301" y="764" on="0"/>
        <pt x="326" y="754" on="1"/>
        <pt x="333" y="751" on="0"/>
        <pt x="383" y="719" on="1"/>
      </contour>
    </TTGlyph>
    <TTGlyph name="fi" xMin="18" yMin="0" xMax="442" yMax="766">
      <contour>
        <pt x="359" y="0" on="1"/>
        <pt x="359" y="501" on="1"/>
        <pt x="442" y="501" on="1"/>
        <pt x="442" y="0" on="1"/>
      </contour>
      <contour>
        <pt x="344" y="667" on="1"/>
        <pt x="296" y="698" on="0"/>
        <pt x="256" y="698" on="1"/>
        <pt x="213" y="699" on="0"/>
        <pt x="191" y="654" on="1"/>
        <pt x="176" y="619" on="0"/>
        <pt x="176" y="571" on="1"/>
        <pt x="176" y="507" on="1"/>
        <pt x="318" y="507" on="1"/>
        <pt x="318" y="440" on="1"/>
        <pt x="176" y="440" on="1"/>
        <pt x="176" y="0" on="1"/>
        <pt x="98" y="0" on="1"/>
        <pt x="98" y="440" on="1"/>
        <pt x="18" y="440" on="1"/>
        <pt x="18" y="507" on="1"/>
        <pt x="98" y="507" on="1"/>
        <pt x="98" y="574" on="1"/>
        <pt x="98" y="645" on="0"/>
        <pt x="128" y="696" on="1"/>
        <pt x="169" y="766" on="0"/>
        <pt x="255" y="766" on="1"/>
        <pt x="301" y="766" on="0"/>
        <pt x="326" y="757" on="1"/>
        <pt x="334" y="753" on="0"/>
        <pt x="383" y="722" on="1"/>
      </contour>
    </TTGlyph>
    <TTGlyph name="five" xMin="53" yMin="-183" xMax="473" yMax="520">
      <contour>
        <pt x="244" y="-183" on="1"/>
        <pt x="189" y="-183" on="0"/>
        <pt x="78" y="-126" on="0"/>
        <pt x="53" y="-86" on="1"/>
        <pt x="89" y="-39" on="1"/>
        <pt x="151" y="-116" on="0"/>
        <pt x="246" y="-116" on="1"/>
        <pt x="316" y="-116" on="0"/>
        <pt x="355" y="-62" on="1"/>
        <pt x="391" y="-14" on="0"/>
        <pt x="391" y="54" on="1"/>
        <pt x="391" y="119" on="0"/>
        <pt x="350" y="161" on="1"/>
        <pt x="313" y="199" on="0"/>
        <pt x="263" y="199" on="1"/>
        <pt x="206" y="199" on="0"/>
        <pt x="142" y="148" on="1"/>
        <pt x="73" y="179" on="1"/>
        <pt x="73" y="520" on="1"/>
        <pt x="427" y="520" on="1"/>
        <pt x="427" y="458" on="1"/>
        <pt x="151" y="458" on="1"/>
        <pt x="151" y="229" on="1"/>
        <pt x="202" y="280" on="0"/>
        <pt x="292" y="281" on="1"/>
        <pt x="357" y="281" on="0"/>
        <pt x="412" y="223" on="1"/>
        <pt x="473" y="158" on="0"/>
        <pt x="473" y="60" on="1"/>
        <pt x="473" y="-32" on="0"/>
        <pt x="412" y="-103" on="1"/>
        <pt x="345" y="-183" on="0"/>
      </contour>
    </TTGlyph>
    <TTGlyph name="fl" xMin="18" yMin="0" xMax="456" yMax="735">
      <contour>
        <pt x="456" y="1" on="1"/>
        <pt x="373" y="1" on="1"/>
        <pt x="373" y="616" on="1"/>
        <pt x="360" y="630" on="0"/>
        <pt x="330" y="654" on="1"/>
        <pt x="308" y="666" on="0"/>
        <pt x="256" y="668" on="1"/>
        <pt x="213" y="669" on="0"/>
        <pt x="191" y="624" on="1"/>
        <pt x="175" y="589" on="0"/>
        <pt x="176" y="541" on="1"/>
        <pt x="176" y="519" on="0"/>
        <pt x="177" y="503" on="1"/>
        <pt x="318" y="503" on="1"/>
        <pt x="318" y="435" on="1"/>
        <pt x="179" y="435" on="1"/>
        <pt x="178" y="0" on="1"/>
        <pt x="98" y="0" on="1"/>
        <pt x="99" y="434" on="1"/>
        <pt x="18" y="434" on="1"/>
        <pt x="18" y="502" on="1"/>
        <pt x="99" y="502" on="1"/>
        <pt x="99" y="544" on="1"/>
        <pt x="99" y="625" on="0"/>
        <pt x="135" y="676" on="1"/>
        <pt x="176" y="735" on="0"/>
        <pt x="255" y="735" on="1"/>
        <pt x="294" y="735" on="0"/>
        <pt x="331" y="724" on="0"/>
        <pt x="366" y="702" on="1"/>
        <pt x="373" y="715" on="1"/>
        <pt x="456" y="715" on="1"/>
      </contour>
    </TTGlyph>
    <TTGlyph name="florin" xMin="26" yMin="-126" xMax="412" yMax="728">
      <contour>
        <pt x="369" y="625" on="1"/>
        <pt x="320" y="657" on="0"/>
        <pt x="280" y="656" on="1"/>
        <pt x="204" y="656" on="0"/>
        <pt x="195" y="543" on="1"/>
        <pt x="194" y="539" on="1"/>
        <pt x="192" y="508" on="0"/>
        <pt x="191" y="501" on="1"/>
        <pt x="332" y="501" on="1"/>
        <pt x="326" y="434" on="1"/>
        <pt x="187" y="434" on="1"/>
        <pt x="134" y="-125" on="1"/>
        <pt x="54" y="-126" on="1"/>
        <pt x="106" y="432" on="1"/>
        <pt x="26" y="431" on="1"/>
        <pt x="32" y="499" on="1"/>
        <pt x="112" y="500" on="1"/>
        <pt x="116" y="542" on="1"/>
        <pt x="124" y="623" on="0"/>
        <pt x="163" y="672" on="1"/>
        <pt x="208" y="727" on="0"/>
        <pt x="286" y="728" on="1"/>
        <pt x="331" y="728" on="0"/>
        <pt x="355" y="718" on="1"/>
        <pt x="361" y="715" on="0"/>
        <pt x="412" y="682" on="1"/>
      </contour>
    </TTGlyph>
    <TTGlyph name="four" xMin="28" yMin="-172" xMax="481" yMax="521">
      <contour>
        <pt x="312" y="376" on="1"/>
        <pt x="121" y="78" on="1"/>
        <pt x="312" y="78" on="1"/>
      </contour>
      <contour>
        <pt x="379" y="0" on="1"/>
        <pt x="379" y="-172" on="1"/>
        <pt x="312" y="-172" on="1"/>
        <pt x="312" y="0" on="1"/>
        <pt x="28" y="0" on="1"/>
        <pt x="28" y="78" on="1"/>
        <pt x="319" y="521" on="1"/>
        <pt x="379" y="521" on="1"/>
        <pt x="379" y="78" on="1"/>
        <pt x="481" y="78" on="1"/>
        <pt x="481" y="0" on="1"/>
      </contour>
    </TTGlyph>
    <TTGlyph name="fraction" xMin="63" yMin="68" xMax="523" yMax="602">
      <contour>
        <pt x="144" y="68" on="1"/>
        <pt x="63" y="119" on="1"/>
        <pt x="443" y="602" on="1"/>
        <pt x="523" y="551" on="1"/>
      </contour>
    </TTGlyph>
    <TTGlyph name="g" xMin="38" yMin="-234" xMax="520" yMax="526">
      <contour>
        <pt x="520" y="408" on="1"/>
        <pt x="411" y="411" on="1"/>
        <pt x="427" y="376" on="0"/>
        <pt x="427" y="343" on="1"/>
        <pt x="427" y="266" on="0"/>
        <pt x="375" y="215" on="1"/>
        <pt x="316" y="158" on="0"/>
        <pt x="229" y="158" on="1"/>
        <pt x="179" y="158" on="0"/>
        <pt x="162" y="170" on="1"/>
        <pt x="122" y="145" on="0"/>
        <pt x="122" y="115" on="1"/>
        <pt x="122" y="87" on="0"/>
        <pt x="161" y="79" on="1"/>
        <pt x="179" y="75" on="0"/>
        <pt x="261" y="75" on="1"/>
        <pt x="366" y="75" on="0"/>
        <pt x="404" y="60" on="1"/>
        <pt x="472" y="34" on="0"/>
        <pt x="472" y="-51" on="1"/>
        <pt x="472" y="-139" on="0"/>
        <pt x="380" y="-190" on="1"/>
        <pt x="301" y="-234" on="0"/>
        <pt x="207" y="-234" on="1"/>
        <pt x="204" y="-234" on="1"/>
        <pt x="139" y="-234" on="0"/>
        <pt x="93" y="-207" on="1"/>
        <pt x="38" y="-173" on="0"/>
        <pt x="38" y="-113" on="1"/>
        <pt x="38" y="-46" on="0"/>
        <pt x="109" y="20" on="1"/>
        <pt x="86" y="28" on="0"/>
        <pt x="44" y="83" on="0"/>
        <pt x="44" y="106" on="1"/>
        <pt x="44" y="134" on="0"/>
        <pt x="69" y="159" on="1"/>
        <pt x="110" y="200" on="0"/>
        <pt x="111" y="201" on="1"/>
        <pt x="48" y="255" on="0"/>
        <pt x="46" y="343" on="1"/>
        <pt x="46" y="420" on="0"/>
        <pt x="105" y="476" on="1"/>
        <pt x="160" y="527" on="0"/>
        <pt x="241" y="526" on="1"/>
        <pt x="288" y="525" on="0"/>
        <pt x="331" y="503" on="1"/>
        <pt x="369" y="483" on="0"/>
        <pt x="387" y="455" on="1"/>
        <pt x="520" y="475" on="1"/>
      </contour>
      <contour>
        <pt x="356" y="345" on="1"/>
        <pt x="356" y="393" on="0"/>
        <pt x="321" y="430" on="1"/>
        <pt x="287" y="464" on="0"/>
        <pt x="237" y="464" on="1"/>
        <pt x="186" y="464" on="0"/>
        <pt x="123" y="388" on="0"/>
        <pt x="123" y="339" on="1"/>
        <pt x="123" y="290" on="0"/>
        <pt x="185" y="219" on="0"/>
        <pt x="233" y="219" on="1"/>
        <pt x="289" y="219" on="0"/>
        <pt x="325" y="256" on="1"/>
        <pt x="356" y="289" on="0"/>
      </contour>
      <contour>
        <pt x="393" y="-54" on="1"/>
        <pt x="393" y="13" on="0"/>
        <pt x="276" y="12" on="1"/>
        <pt x="230" y="12" on="0"/>
        <pt x="175" y="9" on="1"/>
        <pt x="149" y="8" on="0"/>
        <pt x="129" y="-28" on="1"/>
        <pt x="111" y="-60" on="0"/>
        <pt x="111" y="-87" on="1"/>
        <pt x="111" y="-129" on="0"/>
        <pt x="152" y="-153" on="1"/>
        <pt x="186" y="-171" on="0"/>
        <pt x="230" y="-171" on="1"/>
        <pt x="288" y="-171" on="0"/>
        <pt x="337" y="-142" on="1"/>
        <pt x="393" y="-108" on="0"/>
      </contour>
    </TTGlyph>
    <TTGlyph name="germandbls" xMin="54" yMin="-15" xMax="515" yMax="732">
      <contour>
        <pt x="342" y="-15" on="1"/>
        <pt x="279" y="-15" on="0"/>
        <pt x="239" y="-1" on="1"/>
        <pt x="192" y="16" on="0"/>
        <pt x="154" y="59" on="1"/>
        <pt x="197" y="126" on="1"/>
        <pt x="226" y="86" on="0"/>
        <pt x="257" y="73" on="1"/>
        <pt x="285" y="61" on="0"/>
        <pt x="337" y="60" on="1"/>
        <pt x="374" y="60" on="0"/>
        <pt x="431" y="105" on="0"/>
        <pt x="431" y="141" on="1"/>
        <pt x="431" y="194" on="0"/>
        <pt x="351" y="221" on="1"/>
        <pt x="323" y="229" on="0"/>
        <pt x="268" y="247" on="1"/>
        <pt x="168" y="281" on="0"/>
        <pt x="168" y="369" on="1"/>
        <pt x="168" y="445" on="0"/>
        <pt x="251" y="526" on="0"/>
        <pt x="327" y="526" on="1"/>
        <pt x="347" y="526" on="0"/>
        <pt x="367" y="523" on="1"/>
        <pt x="380" y="543" on="0"/>
        <pt x="380" y="551" on="1"/>
        <pt x="380" y="613" on="0"/>
        <pt x="337" y="641" on="1"/>
        <pt x="300" y="665" on="0"/>
        <pt x="255" y="665" on="1"/>
        <pt x="198" y="665" on="0"/>
        <pt x="134" y="599" on="0"/>
        <pt x="134" y="542" on="1"/>
        <pt x="134" y="0" on="1"/>
        <pt x="54" y="0" on="1"/>
        <pt x="54" y="542" on="1"/>
        <pt x="54" y="732" on="0"/>
        <pt x="260" y="732" on="1"/>
        <pt x="348" y="732" on="0"/>
        <pt x="403" y="686" on="1"/>
        <pt x="460" y="637" on="0"/>
        <pt x="461" y="550" on="1"/>
        <pt x="461" y="500" on="0"/>
        <pt x="424" y="438" on="1"/>
        <pt x="377" y="454" on="0"/>
        <pt x="326" y="458" on="1"/>
        <pt x="293" y="460" on="0"/>
        <pt x="246" y="417" on="0"/>
        <pt x="246" y="384" on="1"/>
        <pt x="246" y="359" on="0"/>
        <pt x="274" y="342" on="1"/>
        <pt x="292" y="331" on="0"/>
        <pt x="345" y="314" on="1"/>
        <pt x="381" y="303" on="0"/>
        <pt x="426" y="288" on="1"/>
        <pt x="475" y="268" on="0"/>
        <pt x="515" y="202" on="0"/>
        <pt x="515" y="147" on="1"/>
        <pt x="515" y="79" on="0"/>
        <pt x="411" y="-15" on="0"/>
      </contour>
    </TTGlyph>
    <TTGlyph name="grave" xMin="58" yMin="569" xMax="322" yMax="728">
      <contour>
        <pt x="272" y="569" on="1"/>
        <pt x="58" y="662" on="1"/>
        <pt x="106" y="728" on="1"/>
        <pt x="322" y="630" on="1"/>
      </contour>
    </TTGlyph>
    <TTGlyph name="greater" xMin="25" yMin="43" xMax="324" yMax="542">
      <contour>
        <pt x="101" y="43" on="1"/>
        <pt x="26" y="46" on="1"/>
        <pt x="217" y="292" on="1"/>
        <pt x="25" y="539" on="1"/>
        <pt x="101" y="542" on="1"/>
        <pt x="324" y="296" on="1"/>
      </contour>
    </TTGlyph>
    <TTGlyph name="greaterequal" xMin="20" yMin="35" xMax="250" yMax="459">
      <contour>
        <pt x="92" y="122" on="1"/>
        <pt x="20" y="125" on="1"/>
        <pt x="154" y="290" on="1"/>
        <pt x="20" y="456" on="1"/>
        <pt x="92" y="459" on="1"/>
        <pt x="250" y="293" on="1"/>
      </contour>
      <contour>
        <pt x="22" y="35" on="1"/>
        <pt x="22" y="76" on="1"/>
        <pt x="248" y="76" on="1"/>
        <pt x="248" y="35" on="1"/>
      </contour>
    </TTGlyph>
    <TTGlyph name="guillemotleft" xMin="5" yMin="125" xMax="380" yMax="462">
      <contour>
        <pt x="246" y="293" on="1"/>
        <pt x="380" y="128" on="1"/>
        <pt x="307" y="125" on="1"/>
        <pt x="151" y="296" on="1"/>
        <pt x="307" y="462" on="1"/>
        <pt x="380" y="459" on="1"/>
      </contour>
      <contour>
        <pt x="101" y="293" on="1"/>
        <pt x="234" y="128" on="1"/>
        <pt x="163" y="125" on="1"/>
        <pt x="5" y="296" on="1"/>
        <pt x="163" y="462" on="1"/>
        <pt x="234" y="459" on="1"/>
      </contour>
    </TTGlyph>
    <TTGlyph name="guillemotright" xMin="2" yMin="125" xMax="377" yMax="462">
      <contour>
        <pt x="220" y="125" on="1"/>
        <pt x="147" y="128" on="1"/>
        <pt x="282" y="293" on="1"/>
        <pt x="147" y="459" on="1"/>
        <pt x="220" y="462" on="1"/>
        <pt x="377" y="296" on="1"/>
      </contour>
      <contour>
        <pt x="76" y="125" on="1"/>
        <pt x="2" y="128" on="1"/>
        <pt x="136" y="293" on="1"/>
        <pt x="2" y="459" on="1"/>
        <pt x="76" y="462" on="1"/>
        <pt x="231" y="296" on="1"/>
      </contour>
    </TTGlyph>
    <TTGlyph name="guilsinglleft" xMin="57" yMin="125" xMax="286" yMax="462">
      <contour>
        <pt x="152" y="293" on="1"/>
        <pt x="286" y="128" on="1"/>
        <pt x="213" y="125" on="1"/>
        <pt x="57" y="296" on="1"/>
        <pt x="213" y="462" on="1"/>
        <pt x="286" y="459" on="1"/>
      </contour>
    </TTGlyph>
    <TTGlyph name="guilsinglright" xMin="48" yMin="125" xMax="278" yMax="462">
      <contour>
        <pt x="121" y="125" on="1"/>
        <pt x="48" y="128" on="1"/>
        <pt x="181" y="293" on="1"/>
        <pt x="48" y="459" on="1"/>
        <pt x="121" y="462" on="1"/>
        <pt x="278" y="296" on="1"/>
      </contour>
    </TTGlyph>
    <TTGlyph name="h" xMin="65" yMin="0" xMax="460" yMax="713">
      <contour>
        <pt x="380" y="0" on="1"/>
        <pt x="380" y="333" on="1"/>
        <pt x="380" y="383" on="0"/>
        <pt x="357" y="416" on="1"/>
        <pt x="331" y="454" on="0"/>
        <pt x="284" y="454" on="1"/>
        <pt x="244" y="454" on="0"/>
        <pt x="197" y="421" on="1"/>
        <pt x="146" y="386" on="0"/>
        <pt x="145" y="348" on="1"/>
        <pt x="145" y="0" on="1"/>
        <pt x="65" y="0" on="1"/>
        <pt x="65" y="713" on="1"/>
        <pt x="145" y="713" on="1"/>
        <pt x="145" y="450" on="1"/>
        <pt x="224" y="524" on="0"/>
        <pt x="292" y="523" on="1"/>
        <pt x="364" y="523" on="0"/>
        <pt x="460" y="418" on="0"/>
        <pt x="460" y="346" on="1"/>
        <pt x="460" y="0" on="1"/>
      </contour>
    </TTGlyph>
    <TTGlyph name="hungarumlaut" xMin="39" yMin="574" xMax="325" yMax="691">
      <contour>
        <pt x="229" y="574" on="1"/>
        <pt x="165" y="574" on="1"/>
        <pt x="260" y="691" on="1"/>
        <pt x="325" y="691" on="1"/>
      </contour>
      <contour>
        <pt x="103" y="574" on="1"/>
        <pt x="39" y="574" on="1"/>
        <pt x="134" y="691" on="1"/>
        <pt x="199" y="691" on="1"/>
      </contour>
    </TTGlyph>
    <TTGlyph name="hyphen" xMin="51" yMin="273" xMax="338" yMax="369">
      <contour>
        <pt x="51" y="273" on="1"/>
        <pt x="51" y="369" on="1"/>
        <pt x="338" y="369" on="1"/>
        <pt x="338" y="273" on="1"/>
      </contour>
    </TTGlyph>
    <TTGlyph name="i" xMin="65" yMin="0" xMax="174" yMax="728">
      <contour>
        <pt x="120" y="616" on="1"/>
        <pt x="96" y="616" on="0"/>
        <pt x="65" y="649" on="0"/>
        <pt x="65" y="673" on="1"/>
        <pt x="65" y="697" on="0"/>
        <pt x="96" y="728" on="0"/>
        <pt x="120" y="728" on="1"/>
        <pt x="144" y="728" on="0"/>
        <pt x="174" y="696" on="0"/>
        <pt x="174" y="673" on="1"/>
        <pt x="174" y="649" on="0"/>
        <pt x="144" y="616" on="0"/>
      </contour>
      <contour>
        <pt x="73" y="0" on="1"/>
        <pt x="73" y="507" on="1"/>
        <pt x="156" y="507" on="1"/>
        <pt x="156" y="0" on="1"/>
      </contour>
    </TTGlyph>
    <TTGlyph name="iacute" xMin="0" yMin="0" xMax="263" yMax="729">
      <contour>
        <pt x="79" y="0" on="1"/>
        <pt x="79" y="507" on="1"/>
        <pt x="161" y="507" on="1"/>
        <pt x="161" y="0" on="1"/>
      </contour>
      <contour>
        <pt x="47" y="570" on="1"/>
        <pt x="0" y="631" on="1"/>
        <pt x="215" y="729" on="1"/>
        <pt x="263" y="663" on="1"/>
      </contour>
    </TTGlyph>
    <TTGlyph name="icircumflex" xMin="-23" yMin="0" xMax="263" yMax="727">
      <contour>
        <pt x="79" y="0" on="1"/>
        <pt x="79" y="507" on="1"/>
        <pt x="161" y="507" on="1"/>
        <pt x="161" y="0" on="1"/>
      </contour>
      <contour>
        <pt x="118" y="634" on="1"/>
        <pt x="-23" y="539" on="1"/>
        <pt x="-23" y="611" on="1"/>
        <pt x="118" y="727" on="1"/>
        <pt x="263" y="611" on="1"/>
        <pt x="263" y="539" on="1"/>
      </contour>
    </TTGlyph>
    <TTGlyph name="idieresis" xMin="-45" yMin="0" xMax="271" yMax="666">
      <contour>
        <pt x="79" y="0" on="1"/>
        <pt x="79" y="507" on="1"/>
        <pt x="161" y="507" on="1"/>
        <pt x="161" y="0" on="1"/>
      </contour>
      <contour>
        <pt x="220" y="559" on="1"/>
        <pt x="197" y="559" on="0"/>
        <pt x="169" y="590" on="0"/>
        <pt x="169" y="612" on="1"/>
        <pt x="169" y="635" on="0"/>
        <pt x="198" y="666" on="0"/>
        <pt x="242" y="666" on="0"/>
        <pt x="271" y="634" on="0"/>
        <pt x="271" y="612" on="1"/>
        <pt x="271" y="589" on="0"/>
        <pt x="243" y="559" on="0"/>
      </contour>
      <contour>
        <pt x="5" y="559" on="1"/>
        <pt x="-18" y="559" on="0"/>
        <pt x="-45" y="590" on="0"/>
        <pt x="-45" y="612" on="1"/>
        <pt x="-45" y="635" on="0"/>
        <pt x="-17" y="666" on="0"/>
        <pt x="5" y="666" on="1"/>
        <pt x="28" y="666" on="0"/>
        <pt x="56" y="635" on="0"/>
        <pt x="56" y="612" on="1"/>
        <pt x="56" y="589" on="0"/>
        <pt x="28" y="559" on="0"/>
      </contour>
    </TTGlyph>
    <TTGlyph name="igrave" xMin="0" yMin="0" xMax="263" yMax="728">
      <contour>
        <pt x="79" y="0" on="1"/>
        <pt x="79" y="507" on="1"/>
        <pt x="161" y="507" on="1"/>
        <pt x="161" y="0" on="1"/>
      </contour>
      <contour>
        <pt x="213" y="569" on="1"/>
        <pt x="0" y="662" on="1"/>
        <pt x="47" y="728" on="1"/>
        <pt x="263" y="630" on="1"/>
      </contour>
    </TTGlyph>
    <TTGlyph name="infinity" xMin="9" yMin="270" xMax="539" yMax="544">
      <contour>
        <pt x="392" y="270" on="1"/>
        <pt x="316" y="270" on="0"/>
        <pt x="274" y="328" on="1"/>
        <pt x="230" y="271" on="0"/>
        <pt x="156" y="270" on="1"/>
        <pt x="97" y="270" on="0"/>
        <pt x="9" y="349" on="0"/>
        <pt x="9" y="408" on="1"/>
        <pt x="9" y="466" on="0"/>
        <pt x="96" y="544" on="0"/>
        <pt x="156" y="544" on="1"/>
        <pt x="231" y="544" on="0"/>
        <pt x="274" y="487" on="1"/>
        <pt x="317" y="543" on="0"/>
        <pt x="392" y="544" on="1"/>
        <pt x="451" y="544" on="0"/>
        <pt x="539" y="466" on="0"/>
        <pt x="539" y="408" on="1"/>
        <pt x="539" y="350" on="0"/>
        <pt x="451" y="270" on="0"/>
      </contour>
      <contour>
        <pt x="392" y="494" on="1"/>
        <pt x="356" y="494" on="0"/>
        <pt x="302" y="444" on="0"/>
        <pt x="302" y="409" on="1"/>
        <pt x="302" y="372" on="0"/>
        <pt x="355" y="323" on="0"/>
        <pt x="392" y="323" on="1"/>
        <pt x="429" y="323" on="0"/>
        <pt x="482" y="372" on="0"/>
        <pt x="482" y="409" on="1"/>
        <pt x="482" y="446" on="0"/>
        <pt x="429" y="494" on="0"/>
      </contour>
      <contour>
        <pt x="156" y="494" on="1"/>
        <pt x="120" y="494" on="0"/>
        <pt x="66" y="444" on="0"/>
        <pt x="66" y="409" on="1"/>
        <pt x="66" y="371" on="0"/>
        <pt x="117" y="325" on="0"/>
        <pt x="156" y="325" on="1"/>
        <pt x="195" y="325" on="0"/>
        <pt x="246" y="370" on="0"/>
        <pt x="246" y="409" on="1"/>
        <pt x="246" y="446" on="0"/>
        <pt x="193" y="494" on="0"/>
      </contour>
    </TTGlyph>
    <TTGlyph name="integral" xMin="22" yMin="-143" xMax="327" yMax="730">
      <contour>
        <pt x="288" y="626" on="1"/>
        <pt x="263" y="645" on="0"/>
        <pt x="239" y="645" on="1"/>
        <pt x="201" y="645" on="0"/>
        <pt x="181" y="613" on="1"/>
        <pt x="165" y="586" on="0"/>
        <pt x="165" y="547" on="1"/>
        <pt x="165" y="485" on="0"/>
        <pt x="272" y="141" on="0"/>
        <pt x="272" y="54" on="1"/>
        <pt x="272" y="-144" on="0"/>
        <pt x="105" y="-143" on="1"/>
        <pt x="82" y="-143" on="0"/>
        <pt x="22" y="-124" on="1"/>
        <pt x="41" y="-40" on="1"/>
        <pt x="88" y="-66" on="0"/>
        <pt x="122" y="-59" on="1"/>
        <pt x="177" y="-49" on="0"/>
        <pt x="177" y="71" on="1"/>
        <pt x="177" y="126" on="0"/>
        <pt x="69" y="462" on="0"/>
        <pt x="69" y="548" on="1"/>
        <pt x="69" y="730" on="0"/>
        <pt x="240" y="730" on="1"/>
        <pt x="278" y="730" on="0"/>
        <pt x="327" y="703" on="1"/>
      </contour>
    </TTGlyph>
    <TTGlyph name="j" xMin="-13" yMin="-223" xMax="188" yMax="729">
      <contour>
        <pt x="133" y="618" on="1"/>
        <pt x="109" y="618" on="0"/>
        <pt x="78" y="650" on="0"/>
        <pt x="78" y="674" on="1"/>
        <pt x="78" y="698" on="0"/>
        <pt x="110" y="729" on="0"/>
        <pt x="133" y="729" on="1"/>
        <pt x="157" y="729" on="0"/>
        <pt x="188" y="697" on="0"/>
        <pt x="188" y="674" on="1"/>
        <pt x="188" y="650" on="0"/>
        <pt x="157" y="618" on="0"/>
      </contour>
      <contour>
        <pt x="59" y="-112" on="1"/>
        <pt x="28" y="-135" on="0"/>
        <pt x="-13" y="-146" on="1"/>
        <pt x="19" y="-223" on="1"/>
        <pt x="166" y="-167" on="0"/>
        <pt x="167" y="-67" on="1"/>
        <pt x="167" y="507" on="1"/>
        <pt x="86" y="507" on="1"/>
        <pt x="86" y="-22" on="1"/>
        <pt x="86" y="-93" on="0"/>
      </contour>
    </TTGlyph>
    <TTGlyph name="k" xMin="65" yMin="-26" xMax="476" yMax="714">
      <contour>
        <pt x="404" y="-26" on="1"/>
        <pt x="180" y="231" on="1"/>
        <pt x="145" y="197" on="1"/>
        <pt x="145" y="0" on="1"/>
        <pt x="65" y="0" on="1"/>
        <pt x="65" y="714" on="1"/>
        <pt x="145" y="714" on="1"/>
        <pt x="145" y="283" on="1"/>
        <pt x="369" y="534" on="1"/>
        <pt x="438" y="486" on="1"/>
        <pt x="236" y="279" on="1"/>
        <pt x="476" y="18" on="1"/>
      </contour>
    </TTGlyph>
    <TTGlyph name="l" xMin="80" yMin="0" xMax="160" yMax="715">
      <contour>
        <pt x="160" y="0" on="1"/>
        <pt x="80" y="0" on="1"/>
        <pt x="80" y="715" on="1"/>
        <pt x="160" y="715" on="1"/>
      </contour>
    </TTGlyph>
    <TTGlyph name="less" xMin="28" yMin="43" xMax="327" yMax="542">
      <contour>
        <pt x="135" y="292" on="1"/>
        <pt x="327" y="46" on="1"/>
        <pt x="252" y="43" on="1"/>
        <pt x="28" y="296" on="1"/>
        <pt x="251" y="542" on="1"/>
        <pt x="327" y="539" on="1"/>
      </contour>
    </TTGlyph>
    <TTGlyph name="lessequal" xMin="19" yMin="35" xMax="250" yMax="459">
      <contour>
        <pt x="115" y="290" on="1"/>
        <pt x="250" y="125" on="1"/>
        <pt x="176" y="122" on="1"/>
        <pt x="19" y="293" on="1"/>
        <pt x="176" y="459" on="1"/>
        <pt x="250" y="456" on="1"/>
      </contour>
      <contour>
        <pt x="22" y="35" on="1"/>
        <pt x="22" y="76" on="1"/>
        <pt x="248" y="76" on="1"/>
        <pt x="248" y="35" on="1"/>
      </contour>
    </TTGlyph>
    <TTGlyph name="logicalnot" xMin="90" yMin="29" xMax="571" yMax="351">
      <contour>
        <pt x="485" y="29" on="1"/>
        <pt x="485" y="256" on="1"/>
        <pt x="90" y="256" on="1"/>
        <pt x="90" y="351" on="1"/>
        <pt x="571" y="351" on="1"/>
        <pt x="571" y="29" on="1"/>
      </contour>
    </TTGlyph>
    <TTGlyph name="lozenge" xMin="20" yMin="87" xMax="542" yMax="596">
      <contour>
        <pt x="282" y="87" on="1"/>
        <pt x="20" y="341" on="1"/>
        <pt x="282" y="596" on="1"/>
        <pt x="542" y="341" on="1"/>
      </contour>
      <contour>
        <pt x="285" y="497" on="1"/>
        <pt x="125" y="340" on="1"/>
        <pt x="285" y="184" on="1"/>
        <pt x="444" y="340" on="1"/>
      </contour>
    </TTGlyph>
    <TTGlyph name="lslash" xMin="15" yMin="0" xMax="250" yMax="657">
      <contour>
        <pt x="170" y="371" on="1"/>
        <pt x="171" y="0" on="1"/>
        <pt x="81" y="0" on="1"/>
        <pt x="80" y="325" on="1"/>
        <pt x="15" y="292" on="1"/>
        <pt x="16" y="372" on="1"/>
        <pt x="81" y="404" on="1"/>
        <pt x="81" y="657" on="1"/>
        <pt x="171" y="657" on="1"/>
        <pt x="171" y="451" on="1"/>
        <pt x="249" y="490" on="1"/>
        <pt x="250" y="411" on="1"/>
      </contour>
    </TTGlyph>
    <TTGlyph name="m" xMin="65" yMin="0" xMax="730" yMax="524">
      <contour>
        <pt x="649" y="0" on="1"/>
        <pt x="649" y="354" on="1"/>
        <pt x="649" y="453" on="0"/>
        <pt x="559" y="454" on="1"/>
        <pt x="531" y="454" on="0"/>
        <pt x="488" y="421" on="1"/>
        <pt x="436" y="381" on="0"/>
        <pt x="436" y="330" on="1"/>
        <pt x="436" y="0" on="1"/>
        <pt x="356" y="0" on="1"/>
        <pt x="356" y="359" on="1"/>
        <pt x="356" y="400" on="0"/>
        <pt x="312" y="453" on="0"/>
        <pt x="272" y="453" on="1"/>
        <pt x="232" y="453" on="0"/>
        <pt x="145" y="379" on="0"/>
        <pt x="145" y="339" on="1"/>
        <pt x="145" y="0" on="1"/>
        <pt x="65" y="0" on="1"/>
        <pt x="65" y="507" on="1"/>
        <pt x="145" y="507" on="1"/>
        <pt x="145" y="435" on="1"/>
        <pt x="223" y="519" on="0"/>
        <pt x="289" y="519" on="1"/>
        <pt x="331" y="519" on="0"/>
        <pt x="398" y="466" on="0"/>
        <pt x="415" y="426" on="1"/>
        <pt x="501" y="524" on="0"/>
        <pt x="577" y="524" on="1"/>
        <pt x="640" y="524" on="0"/>
        <pt x="730" y="424" on="0"/>
        <pt x="730" y="359" on="1"/>
        <pt x="730" y="0" on="1"/>
      </contour>
    </TTGlyph>
    <TTGlyph name="macron" xMin="108" yMin="608" xMax="347" yMax="675">
      <contour>
        <pt x="108" y="608" on="1"/>
        <pt x="108" y="675" on="1"/>
        <pt x="347" y="675" on="1"/>
        <pt x="347" y="608" on="1"/>
      </contour>
    </TTGlyph>
    <TTGlyph name="minus" xMin="53" yMin="292" xMax="457" yMax="356">
      <contour>
        <pt x="53" y="292" on="1"/>
        <pt x="53" y="356" on="1"/>
        <pt x="457" y="356" on="1"/>
        <pt x="457" y="292" on="1"/>
      </contour>
    </TTGlyph>
    <TTGlyph name="mu" xMin="70" yMin="-201" xMax="520" yMax="499">
      <contour>
        <pt x="455" y="-62" on="1"/>
        <pt x="387" y="-23" on="0"/>
        <pt x="373" y="62" on="1"/>
        <pt x="340" y="31" on="0"/>
        <pt x="308" y="0" on="1"/>
        <pt x="280" y="-23" on="0"/>
        <pt x="247" y="-23" on="1"/>
        <pt x="217" y="-23" on="0"/>
        <pt x="188" y="-9" on="1"/>
        <pt x="156" y="5" on="0"/>
        <pt x="144" y="30" on="1"/>
        <pt x="144" y="-201" on="1"/>
        <pt x="70" y="-201" on="1"/>
        <pt x="70" y="498" on="1"/>
        <pt x="144" y="498" on="1"/>
        <pt x="144" y="147" on="1"/>
        <pt x="144" y="48" on="0"/>
        <pt x="263" y="48" on="1"/>
        <pt x="300" y="48" on="0"/>
        <pt x="371" y="116" on="0"/>
        <pt x="371" y="153" on="1"/>
        <pt x="371" y="499" on="1"/>
        <pt x="453" y="499" on="1"/>
        <pt x="453" y="119" on="1"/>
        <pt x="453" y="33" on="0"/>
        <pt x="493" y="7" on="1"/>
        <pt x="513" y="-6" on="0"/>
        <pt x="520" y="-13" on="1"/>
      </contour>
    </TTGlyph>
    <TTGlyph name="n" xMin="65" yMin="0" xMax="460" yMax="523">
      <contour>
        <pt x="380" y="0" on="1"/>
        <pt x="380" y="333" on="1"/>
        <pt x="380" y="383" on="0"/>
        <pt x="357" y="416" on="1"/>
        <pt x="331" y="454" on="0"/>
        <pt x="284" y="454" on="1"/>
        <pt x="242" y="454" on="0"/>
        <pt x="197" y="421" on="1"/>
        <pt x="146" y="384" on="0"/>
        <pt x="145" y="336" on="1"/>
        <pt x="145" y="0" on="1"/>
        <pt x="65" y="0" on="1"/>
        <pt x="65" y="507" on="1"/>
        <pt x="145" y="507" on="1"/>
        <pt x="145" y="450" on="1"/>
        <pt x="185" y="488" on="0"/>
        <pt x="212" y="502" on="1"/>
        <pt x="250" y="524" on="0"/>
        <pt x="293" y="523" on="1"/>
        <pt x="364" y="523" on="0"/>
        <pt x="460" y="418" on="0"/>
        <pt x="460" y="346" on="1"/>
        <pt x="460" y="0" on="1"/>
      </contour>
    </TTGlyph>
    <TTGlyph name="nine" xMin="29" yMin="-201" xMax="489" yMax="522">
      <contour>
        <pt x="239" y="457" on="1"/>
        <pt x="181" y="457" on="0"/>
        <pt x="140" y="398" on="1"/>
        <pt x="103" y="346" on="0"/>
        <pt x="103" y="285" on="1"/>
        <pt x="103" y="224" on="0"/>
        <pt x="142" y="173" on="1"/>
        <pt x="183" y="118" on="0"/>
        <pt x="243" y="118" on="1"/>
        <pt x="310" y="118" on="0"/>
        <pt x="403" y="219" on="0"/>
        <pt x="403" y="288" on="1"/>
        <pt x="403" y="354" on="0"/>
        <pt x="312" y="457" on="0"/>
      </contour>
      <contour>
        <pt x="227" y="-201" on="1"/>
        <pt x="108" y="-201" on="0"/>
        <pt x="34" y="-128" on="1"/>
        <pt x="63" y="-66" on="1"/>
        <pt x="136" y="-134" on="0"/>
        <pt x="236" y="-133" on="1"/>
        <pt x="321" y="-133" on="0"/>
        <pt x="372" y="-24" on="1"/>
        <pt x="414" y="66" on="0"/>
        <pt x="416" y="178" on="1"/>
        <pt x="379" y="112" on="0"/>
        <pt x="346" y="86" on="1"/>
        <pt x="303" y="49" on="0"/>
        <pt x="240" y="50" on="1"/>
        <pt x="149" y="51" on="0"/>
        <pt x="87" y="123" on="1"/>
        <pt x="29" y="192" on="0"/>
        <pt x="29" y="282" on="1"/>
        <pt x="29" y="382" on="0"/>
        <pt x="84" y="450" on="1"/>
        <pt x="143" y="523" on="0"/>
        <pt x="239" y="522" on="1"/>
        <pt x="335" y="522" on="0"/>
        <pt x="404" y="457" on="1"/>
        <pt x="489" y="378" on="0"/>
        <pt x="489" y="231" on="1"/>
        <pt x="489" y="72" on="0"/>
        <pt x="437" y="-44" on="1"/>
        <pt x="367" y="-201" on="0"/>
      </contour>
    </TTGlyph>
    <TTGlyph name="notequal" xMin="52" yMin="-15" xMax="398" yMax="547">
      <contour>
        <pt x="167" y="-15" on="1"/>
        <pt x="104" y="6" on="1"/>
        <pt x="150" y="138" on="1"/>
        <pt x="52" y="138" on="1"/>
        <pt x="52" y="205" on="1"/>
        <pt x="172" y="205" on="1"/>
        <pt x="203" y="294" on="1"/>
        <pt x="52" y="294" on="1"/>
        <pt x="52" y="360" on="1"/>
        <pt x="226" y="360" on="1"/>
        <pt x="291" y="547" on="1"/>
        <pt x="353" y="525" on="1"/>
        <pt x="297" y="360" on="1"/>
        <pt x="398" y="360" on="1"/>
        <pt x="398" y="294" on="1"/>
        <pt x="273" y="294" on="1"/>
        <pt x="243" y="205" on="1"/>
        <pt x="398" y="205" on="1"/>
        <pt x="398" y="138" on="1"/>
        <pt x="220" y="138" on="1"/>
      </contour>
    </TTGlyph>
    <TTGlyph name="ntilde" xMin="70" yMin="0" xMax="466" yMax="701">
      <contour>
        <pt x="385" y="0" on="1"/>
        <pt x="385" y="333" on="1"/>
        <pt x="385" y="383" on="0"/>
        <pt x="362" y="416" on="1"/>
        <pt x="336" y="454" on="0"/>
        <pt x="289" y="454" on="1"/>
        <pt x="247" y="454" on="0"/>
        <pt x="202" y="421" on="1"/>
        <pt x="151" y="384" on="0"/>
        <pt x="151" y="336" on="1"/>
        <pt x="151" y="0" on="1"/>
        <pt x="70" y="0" on="1"/>
        <pt x="70" y="507" on="1"/>
        <pt x="151" y="507" on="1"/>
        <pt x="151" y="450" on="1"/>
        <pt x="191" y="488" on="0"/>
        <pt x="217" y="502" on="1"/>
        <pt x="255" y="524" on="0"/>
        <pt x="298" y="523" on="1"/>
        <pt x="370" y="523" on="0"/>
        <pt x="466" y="418" on="0"/>
        <pt x="466" y="346" on="1"/>
        <pt x="466" y="0" on="1"/>
      </contour>
      <contour>
        <pt x="341" y="562" on="1"/>
        <pt x="314" y="562" on="0"/>
        <pt x="214" y="633" on="0"/>
        <pt x="202" y="633" on="1"/>
        <pt x="162" y="633" on="0"/>
        <pt x="130" y="590" on="1"/>
        <pt x="103" y="650" on="1"/>
        <pt x="117" y="670" on="0"/>
        <pt x="176" y="700" on="0"/>
        <pt x="202" y="701" on="1"/>
        <pt x="228" y="702" on="0"/>
        <pt x="322" y="632" on="0"/>
        <pt x="339" y="632" on="1"/>
        <pt x="363" y="632" on="0"/>
        <pt x="390" y="657" on="1"/>
        <pt x="417" y="596" on="1"/>
        <pt x="408" y="586" on="0"/>
        <pt x="355" y="562" on="0"/>
      </contour>
    </TTGlyph>
    <TTGlyph name="numbersign" xMin="71" yMin="310" xMax="456" yMax="696">
      <contour>
        <pt x="456" y="573" on="1"/>
        <pt x="374" y="564" on="1"/>
        <pt x="374" y="484" on="1"/>
        <pt x="455" y="493" on="1"/>
        <pt x="455" y="439" on="1"/>
        <pt x="373" y="431" on="1"/>
        <pt x="373" y="332" on="1"/>
        <pt x="314" y="326" on="1"/>
        <pt x="315" y="425" on="1"/>
        <pt x="233" y="416" on="1"/>
        <pt x="232" y="316" on="1"/>
        <pt x="174" y="310" on="1"/>
        <pt x="175" y="410" on="1"/>
        <pt x="71" y="398" on="1"/>
        <pt x="71" y="452" on="1"/>
        <pt x="175" y="463" on="1"/>
        <pt x="175" y="544" on="1"/>
        <pt x="72" y="532" on="1"/>
        <pt x="72" y="586" on="1"/>
        <pt x="176" y="597" on="1"/>
        <pt x="176" y="674" on="1"/>
        <pt x="234" y="680" on="1"/>
        <pt x="233" y="603" on="1"/>
        <pt x="316" y="611" on="1"/>
        <pt x="316" y="688" on="1"/>
        <pt x="376" y="696" on="1"/>
        <pt x="374" y="617" on="1"/>
        <pt x="456" y="627" on="1"/>
      </contour>
      <contour>
        <pt x="233" y="550" on="1"/>
        <pt x="233" y="469" on="1"/>
        <pt x="315" y="478" on="1"/>
        <pt x="315" y="558" on="1"/>
      </contour>
    </TTGlyph>
    <TTGlyph name="o" xMin="40" yMin="-11" xMax="519" yMax="524">
      <contour>
        <pt x="282" y="-11" on="1"/>
        <pt x="144" y="-11" on="0"/>
        <pt x="82" y="92" on="1"/>
        <pt x="40" y="163" on="0"/>
        <pt x="40" y="258" on="1"/>
        <pt x="40" y="390" on="0"/>
        <pt x="123" y="464" on="1"/>
        <pt x="191" y="524" on="0"/>
        <pt x="283" y="524" on="1"/>
        <pt x="374" y="524" on="0"/>
        <pt x="439" y="464" on="1"/>
        <pt x="519" y="390" on="0"/>
        <pt x="519" y="258" on="1"/>
        <pt x="519" y="166" on="0"/>
        <pt x="472" y="91" on="1"/>
        <pt x="408" y="-11" on="0"/>
      </contour>
      <contour>
        <pt x="288" y="456" on="1"/>
        <pt x="207" y="456" on="0"/>
        <pt x="164" y="392" on="1"/>
        <pt x="128" y="337" on="0"/>
        <pt x="128" y="252" on="1"/>
        <pt x="128" y="171" on="0"/>
        <pt x="162" y="119" on="1"/>
        <pt x="202" y="56" on="0"/>
        <pt x="278" y="55" on="1"/>
        <pt x="357" y="55" on="0"/>
        <pt x="396" y="120" on="1"/>
        <pt x="431" y="174" on="0"/>
        <pt x="431" y="257" on="1"/>
        <pt x="431" y="336" on="0"/>
        <pt x="399" y="390" on="1"/>
        <pt x="362" y="456" on="0"/>
      </contour>
    </TTGlyph>
    <TTGlyph name="oacute" xMin="45" yMin="-11" xMax="525" yMax="729">
      <contour>
        <pt x="287" y="-11" on="1"/>
        <pt x="150" y="-11" on="0"/>
        <pt x="87" y="92" on="1"/>
        <pt x="45" y="162" on="0"/>
        <pt x="45" y="258" on="1"/>
        <pt x="45" y="390" on="0"/>
        <pt x="128" y="464" on="1"/>
        <pt x="197" y="524" on="0"/>
        <pt x="289" y="524" on="1"/>
        <pt x="380" y="524" on="0"/>
        <pt x="445" y="464" on="1"/>
        <pt x="525" y="391" on="0"/>
        <pt x="525" y="258" on="1"/>
        <pt x="525" y="166" on="0"/>
        <pt x="478" y="91" on="1"/>
        <pt x="414" y="-11" on="0"/>
      </contour>
      <contour>
        <pt x="293" y="456" on="1"/>
        <pt x="212" y="456" on="0"/>
        <pt x="169" y="392" on="1"/>
        <pt x="133" y="337" on="0"/>
        <pt x="133" y="252" on="1"/>
        <pt x="133" y="171" on="0"/>
        <pt x="167" y="119" on="1"/>
        <pt x="207" y="56" on="0"/>
        <pt x="283" y="55" on="1"/>
        <pt x="362" y="55" on="0"/>
        <pt x="401" y="120" on="1"/>
        <pt x="436" y="174" on="0"/>
        <pt x="436" y="257" on="1"/>
        <pt x="436" y="336" on="0"/>
        <pt x="404" y="390" on="1"/>
        <pt x="367" y="456" on="0"/>
      </contour>
      <contour>
        <pt x="230" y="570" on="1"/>
        <pt x="182" y="631" on="1"/>
        <pt x="397" y="729" on="1"/>
        <pt x="445" y="663" on="1"/>
      </contour>
    </TTGlyph>
    <TTGlyph name="ocircumflex" xMin="45" yMin="-11" xMax="525" yMax="727">
      <contour>
        <pt x="287" y="-11" on="1"/>
        <pt x="150" y="-11" on="0"/>
        <pt x="87" y="92" on="1"/>
        <pt x="45" y="162" on="0"/>
        <pt x="45" y="258" on="1"/>
        <pt x="45" y="390" on="0"/>
        <pt x="128" y="464" on="1"/>
        <pt x="197" y="524" on="0"/>
        <pt x="289" y="524" on="1"/>
        <pt x="380" y="524" on="0"/>
        <pt x="445" y="464" on="1"/>
        <pt x="525" y="391" on="0"/>
        <pt x="525" y="258" on="1"/>
        <pt x="525" y="166" on="0"/>
        <pt x="478" y="91" on="1"/>
        <pt x="414" y="-11" on="0"/>
      </contour>
      <contour>
        <pt x="293" y="456" on="1"/>
        <pt x="212" y="456" on="0"/>
        <pt x="169" y="392" on="1"/>
        <pt x="133" y="337" on="0"/>
        <pt x="133" y="252" on="1"/>
        <pt x="133" y="171" on="0"/>
        <pt x="167" y="119" on="1"/>
        <pt x="207" y="56" on="0"/>
        <pt x="283" y="55" on="1"/>
        <pt x="362" y="55" on="0"/>
        <pt x="401" y="120" on="1"/>
        <pt x="436" y="174" on="0"/>
        <pt x="436" y="257" on="1"/>
        <pt x="436" y="336" on="0"/>
        <pt x="404" y="390" on="1"/>
        <pt x="367" y="456" on="0"/>
      </contour>
      <contour>
        <pt x="290" y="634" on="1"/>
        <pt x="150" y="539" on="1"/>
        <pt x="150" y="611" on="1"/>
        <pt x="290" y="727" on="1"/>
        <pt x="435" y="611" on="1"/>
        <pt x="435" y="539" on="1"/>
      </contour>
    </TTGlyph>
    <TTGlyph name="odieresis" xMin="45" yMin="-11" xMax="525" yMax="666">
      <contour>
        <pt x="287" y="-11" on="1"/>
        <pt x="150" y="-11" on="0"/>
        <pt x="87" y="92" on="1"/>
        <pt x="45" y="162" on="0"/>
        <pt x="45" y="258" on="1"/>
        <pt x="45" y="390" on="0"/>
        <pt x="128" y="464" on="1"/>
        <pt x="197" y="524" on="0"/>
        <pt x="289" y="524" on="1"/>
        <pt x="380" y="524" on="0"/>
        <pt x="445" y="464" on="1"/>
        <pt x="525" y="391" on="0"/>
        <pt x="525" y="258" on="1"/>
        <pt x="525" y="166" on="0"/>
        <pt x="478" y="91" on="1"/>
        <pt x="414" y="-11" on="0"/>
      </contour>
      <contour>
        <pt x="293" y="456" on="1"/>
        <pt x="212" y="456" on="0"/>
        <pt x="169" y="392" on="1"/>
        <pt x="133" y="337" on="0"/>
        <pt x="133" y="252" on="1"/>
        <pt x="133" y="171" on="0"/>
        <pt x="167" y="119" on="1"/>
        <pt x="207" y="56" on="0"/>
        <pt x="283" y="55" on="1"/>
        <pt x="362" y="55" on="0"/>
        <pt x="401" y="120" on="1"/>
        <pt x="436" y="174" on="0"/>
        <pt x="436" y="257" on="1"/>
        <pt x="436" y="336" on="0"/>
        <pt x="404" y="390" on="1"/>
        <pt x="367" y="456" on="0"/>
      </contour>
      <contour>
        <pt x="395" y="559" on="1"/>
        <pt x="372" y="559" on="0"/>
        <pt x="344" y="590" on="0"/>
        <pt x="344" y="612" on="1"/>
        <pt x="344" y="635" on="0"/>
        <pt x="373" y="666" on="0"/>
        <pt x="417" y="666" on="0"/>
        <pt x="446" y="634" on="0"/>
        <pt x="446" y="612" on="1"/>
        <pt x="446" y="589" on="0"/>
        <pt x="418" y="559" on="0"/>
      </contour>
      <contour>
        <pt x="181" y="559" on="1"/>
        <pt x="158" y="559" on="0"/>
        <pt x="130" y="590" on="0"/>
        <pt x="130" y="612" on="1"/>
        <pt x="130" y="635" on="0"/>
        <pt x="159" y="666" on="0"/>
        <pt x="181" y="666" on="1"/>
        <pt x="204" y="666" on="0"/>
        <pt x="231" y="635" on="0"/>
        <pt x="231" y="612" on="1"/>
        <pt x="231" y="589" on="0"/>
        <pt x="204" y="559" on="0"/>
      </contour>
    </TTGlyph>
    <TTGlyph name="oe" xMin="40" yMin="-12" xMax="915" yMax="524">
      <contour>
        <pt x="288" y="456" on="1"/>
        <pt x="207" y="456" on="0"/>
        <pt x="164" y="392" on="1"/>
        <pt x="128" y="337" on="0"/>
        <pt x="128" y="252" on="1"/>
        <pt x="128" y="171" on="0"/>
        <pt x="162" y="119" on="1"/>
        <pt x="202" y="56" on="0"/>
        <pt x="278" y="55" on="1"/>
        <pt x="357" y="55" on="0"/>
        <pt x="396" y="120" on="1"/>
        <pt x="431" y="174" on="0"/>
        <pt x="431" y="257" on="1"/>
        <pt x="431" y="336" on="0"/>
        <pt x="399" y="390" on="1"/>
        <pt x="362" y="456" on="0"/>
      </contour>
      <contour>
        <pt x="578" y="263" on="1"/>
        <pt x="578" y="111" on="0"/>
        <pt x="664" y="73" on="1"/>
        <pt x="698" y="58" on="0"/>
        <pt x="734" y="57" on="1"/>
        <pt x="794" y="57" on="0"/>
        <pt x="868" y="123" on="1"/>
        <pt x="909" y="66" on="1"/>
        <pt x="827" y="-12" on="0"/>
        <pt x="727" y="-12" on="1"/>
        <pt x="546" y="-12" on="0"/>
        <pt x="503" y="157" on="1"/>
        <pt x="447" y="-11" on="0"/>
        <pt x="282" y="-11" on="1"/>
        <pt x="144" y="-11" on="0"/>
        <pt x="82" y="92" on="1"/>
        <pt x="40" y="163" on="0"/>
        <pt x="40" y="258" on="1"/>
        <pt x="40" y="390" on="0"/>
        <pt x="123" y="464" on="1"/>
        <pt x="191" y="524" on="0"/>
        <pt x="283" y="524" on="1"/>
        <pt x="362" y="524" on="0"/>
        <pt x="482" y="432" on="0"/>
        <pt x="506" y="356" on="1"/>
        <pt x="531" y="434" on="0"/>
        <pt x="649" y="519" on="0"/>
        <pt x="731" y="519" on="1"/>
        <pt x="815" y="519" on="0"/>
        <pt x="915" y="411" on="0"/>
        <pt x="915" y="326" on="1"/>
        <pt x="915" y="263" on="1"/>
      </contour>
      <contour>
        <pt x="835" y="340" on="1"/>
        <pt x="835" y="452" on="0"/>
        <pt x="724" y="452" on="1"/>
        <pt x="663" y="452" on="0"/>
        <pt x="600" y="391" on="0"/>
        <pt x="585" y="328" on="1"/>
        <pt x="835" y="328" on="1"/>
      </contour>
    </TTGlyph>
    <TTGlyph name="ograve" xMin="45" yMin="-11" xMax="525" yMax="728">
      <contour>
        <pt x="287" y="-11" on="1"/>
        <pt x="150" y="-11" on="0"/>
        <pt x="87" y="92" on="1"/>
        <pt x="45" y="162" on="0"/>
        <pt x="45" y="258" on="1"/>
        <pt x="45" y="390" on="0"/>
        <pt x="128" y="464" on="1"/>
        <pt x="197" y="524" on="0"/>
        <pt x="289" y="524" on="1"/>
        <pt x="380" y="524" on="0"/>
        <pt x="445" y="464" on="1"/>
        <pt x="525" y="391" on="0"/>
        <pt x="525" y="258" on="1"/>
        <pt x="525" y="166" on="0"/>
        <pt x="478" y="91" on="1"/>
        <pt x="414" y="-11" on="0"/>
      </contour>
      <contour>
        <pt x="293" y="456" on="1"/>
        <pt x="212" y="456" on="0"/>
        <pt x="169" y="392" on="1"/>
        <pt x="133" y="337" on="0"/>
        <pt x="133" y="252" on="1"/>
        <pt x="133" y="171" on="0"/>
        <pt x="167" y="119" on="1"/>
        <pt x="207" y="56" on="0"/>
        <pt x="283" y="55" on="1"/>
        <pt x="362" y="55" on="0"/>
        <pt x="401" y="120" on="1"/>
        <pt x="436" y="174" on="0"/>
        <pt x="436" y="257" on="1"/>
        <pt x="436" y="336" on="0"/>
        <pt x="404" y="390" on="1"/>
        <pt x="367" y="456" on="0"/>
      </contour>
      <contour>
        <pt x="396" y="569" on="1"/>
        <pt x="182" y="662" on="1"/>
        <pt x="230" y="728" on="1"/>
        <pt x="445" y="630" on="1"/>
      </contour>
    </TTGlyph>
    <TTGlyph name="one" xMin="125" yMin="0" xMax="337" yMax="519">
      <contour>
        <pt x="337" y="0" on="1"/>
        <pt x="259" y="0" on="1"/>
        <pt x="259" y="458" on="1"/>
        <pt x="125" y="458" on="1"/>
        <pt x="125" y="519" on="1"/>
        <pt x="337" y="519" on="1"/>
      </contour>
    </TTGlyph>
    <TTGlyph name="oslash" xMin="40" yMin="-71" xMax="519" yMax="592">
      <contour>
        <pt x="181" y="94" on="1"/>
        <pt x="291" y="456" on="1"/>
        <pt x="288" y="456" on="1"/>
        <pt x="207" y="456" on="0"/>
        <pt x="164" y="392" on="1"/>
        <pt x="128" y="337" on="0"/>
        <pt x="128" y="252" on="1"/>
        <pt x="128" y="148" on="0"/>
      </contour>
      <contour>
        <pt x="370" y="426" on="1"/>
        <pt x="257" y="56" on="1"/>
        <pt x="263" y="55" on="0"/>
        <pt x="278" y="55" on="1"/>
        <pt x="357" y="55" on="0"/>
        <pt x="396" y="120" on="1"/>
        <pt x="431" y="174" on="0"/>
        <pt x="431" y="257" on="1"/>
        <pt x="431" y="375" on="0"/>
      </contour>
      <contour>
        <pt x="333" y="592" on="1"/>
        <pt x="413" y="567" on="1"/>
        <pt x="391" y="498" on="1"/>
        <pt x="519" y="430" on="0"/>
        <pt x="519" y="258" on="1"/>
        <pt x="519" y="166" on="0"/>
        <pt x="472" y="91" on="1"/>
        <pt x="407" y="-11" on="0"/>
        <pt x="282" y="-11" on="1"/>
        <pt x="258" y="-11" on="0"/>
        <pt x="238" y="-8" on="1"/>
        <pt x="218" y="-71" on="1"/>
        <pt x="138" y="-46" on="1"/>
        <pt x="158" y="17" on="1"/>
        <pt x="99" y="50" on="0"/>
        <pt x="68" y="121" on="1"/>
        <pt x="40" y="182" on="0"/>
        <pt x="40" y="258" on="1"/>
        <pt x="40" y="390" on="0"/>
        <pt x="123" y="464" on="1"/>
        <pt x="191" y="524" on="0"/>
        <pt x="283" y="524" on="1"/>
        <pt x="293" y="524" on="0"/>
        <pt x="311" y="522" on="1"/>
      </contour>
    </TTGlyph>
    <TTGlyph name="otilde" xMin="45" yMin="-11" xMax="525" yMax="701">
      <contour>
        <pt x="287" y="-11" on="1"/>
        <pt x="150" y="-11" on="0"/>
        <pt x="87" y="92" on="1"/>
        <pt x="45" y="162" on="0"/>
        <pt x="45" y="258" on="1"/>
        <pt x="45" y="390" on="0"/>
        <pt x="128" y="464" on="1"/>
        <pt x="197" y="524" on="0"/>
        <pt x="289" y="524" on="1"/>
        <pt x="380" y="524" on="0"/>
        <pt x="445" y="464" on="1"/>
        <pt x="525" y="391" on="0"/>
        <pt x="525" y="258" on="1"/>
        <pt x="525" y="166" on="0"/>
        <pt x="478" y="91" on="1"/>
        <pt x="414" y="-11" on="0"/>
      </contour>
      <contour>
        <pt x="293" y="456" on="1"/>
        <pt x="212" y="456" on="0"/>
        <pt x="169" y="392" on="1"/>
        <pt x="133" y="337" on="0"/>
        <pt x="133" y="252" on="1"/>
        <pt x="133" y="171" on="0"/>
        <pt x="167" y="119" on="1"/>
        <pt x="207" y="56" on="0"/>
        <pt x="283" y="55" on="1"/>
        <pt x="362" y="55" on="0"/>
        <pt x="401" y="120" on="1"/>
        <pt x="436" y="174" on="0"/>
        <pt x="436" y="257" on="1"/>
        <pt x="436" y="336" on="0"/>
        <pt x="404" y="390" on="1"/>
        <pt x="367" y="456" on="0"/>
      </contour>
      <contour>
        <pt x="373" y="562" on="1"/>
        <pt x="347" y="562" on="0"/>
        <pt x="248" y="633" on="0"/>
        <pt x="234" y="633" on="1"/>
        <pt x="194" y="633" on="0"/>
        <pt x="163" y="590" on="1"/>
        <pt x="135" y="650" on="1"/>
        <pt x="149" y="672" on="0"/>
        <pt x="208" y="700" on="0"/>
        <pt x="260" y="702" on="0"/>
        <pt x="353" y="632" on="0"/>
        <pt x="371" y="632" on="1"/>
        <pt x="397" y="632" on="0"/>
        <pt x="422" y="657" on="1"/>
        <pt x="449" y="596" on="1"/>
        <pt x="440" y="585" on="0"/>
        <pt x="387" y="562" on="0"/>
      </contour>
    </TTGlyph>
    <TTGlyph name="p" xMin="65" yMin="-202" xMax="492" yMax="524">
      <contour>
        <pt x="264" y="-13" on="1"/>
        <pt x="199" y="-13" on="0"/>
        <pt x="145" y="45" on="1"/>
        <pt x="145" y="-202" on="1"/>
        <pt x="65" y="-202" on="1"/>
        <pt x="65" y="507" on="1"/>
        <pt x="145" y="507" on="1"/>
        <pt x="145" y="459" on="1"/>
        <pt x="213" y="525" on="0"/>
        <pt x="265" y="524" on="1"/>
        <pt x="491" y="524" on="0"/>
        <pt x="492" y="273" on="1"/>
        <pt x="492" y="150" on="0"/>
        <pt x="441" y="75" on="1"/>
        <pt x="382" y="-13" on="0"/>
      </contour>
      <contour>
        <pt x="264" y="456" on="1"/>
        <pt x="226" y="456" on="0"/>
        <pt x="156" y="408" on="0"/>
        <pt x="145" y="373" on="1"/>
        <pt x="145" y="103" on="1"/>
        <pt x="207" y="55" on="0"/>
        <pt x="269" y="55" on="1"/>
        <pt x="335" y="55" on="0"/>
        <pt x="372" y="127" on="1"/>
        <pt x="403" y="187" on="0"/>
        <pt x="402" y="259" on="1"/>
        <pt x="402" y="456" on="0"/>
      </contour>
    </TTGlyph>
    <TTGlyph name="paragraph" xMin="51" yMin="0" xMax="447" yMax="657">
      <contour>
        <pt x="447" y="0" on="1"/>
        <pt x="377" y="0" on="1"/>
        <pt x="377" y="657" on="1"/>
        <pt x="447" y="657" on="1"/>
      </contour>
      <contour>
        <pt x="304" y="0" on="1"/>
        <pt x="233" y="0" on="1"/>
        <pt x="233" y="345" on="1"/>
        <pt x="208" y="345" on="1"/>
        <pt x="50" y="345" on="0"/>
        <pt x="51" y="505" on="1"/>
        <pt x="51" y="588" on="0"/>
        <pt x="127" y="657" on="0"/>
        <pt x="211" y="657" on="1"/>
        <pt x="304" y="657" on="1"/>
      </contour>
    </TTGlyph>
    <TTGlyph name="parenleft" xMin="47" yMin="-141" xMax="246" yMax="802">
      <contour>
        <pt x="178" y="-141" on="1"/>
        <pt x="47" y="85" on="0"/>
        <pt x="47" y="331" on="1"/>
        <pt x="47" y="588" on="0"/>
        <pt x="178" y="802" on="1"/>
        <pt x="243" y="771" on="1"/>
        <pt x="137" y="523" on="0"/>
        <pt x="136" y="331" on="1"/>
        <pt x="136" y="213" on="0"/>
        <pt x="168" y="102" on="1"/>
        <pt x="183" y="47" on="0"/>
        <pt x="246" y="-111" on="1"/>
      </contour>
    </TTGlyph>
    <TTGlyph name="parenright" xMin="80" yMin="-141" xMax="275" yMax="802">
      <contour>
        <pt x="148" y="-141" on="1"/>
        <pt x="80" y="-111" on="1"/>
        <pt x="143" y="51" on="0"/>
        <pt x="158" y="100" on="1"/>
        <pt x="191" y="211" on="0"/>
        <pt x="190" y="327" on="1"/>
        <pt x="190" y="526" on="0"/>
        <pt x="83" y="771" on="1"/>
        <pt x="148" y="802" on="1"/>
        <pt x="275" y="594" on="0"/>
        <pt x="275" y="334" on="1"/>
        <pt x="275" y="78" on="0"/>
      </contour>
    </TTGlyph>
    <TTGlyph name="partialdiff" xMin="44" yMin="-17" xMax="522" yMax="707">
      <contour>
        <pt x="275" y="-17" on="1"/>
        <pt x="171" y="-17" on="0"/>
        <pt x="106" y="59" on="1"/>
        <pt x="45" y="132" on="0"/>
        <pt x="44" y="239" on="1"/>
        <pt x="43" y="364" on="0"/>
        <pt x="100" y="434" on="1"/>
        <pt x="161" y="510" on="0"/>
        <pt x="284" y="510" on="1"/>
        <pt x="323" y="510" on="0"/>
        <pt x="364" y="497" on="1"/>
        <pt x="409" y="482" on="0"/>
        <pt x="433" y="457" on="1"/>
        <pt x="429" y="496" on="0"/>
        <pt x="412" y="538" on="1"/>
        <pt x="392" y="585" on="0"/>
        <pt x="365" y="604" on="1"/>
        <pt x="321" y="636" on="0"/>
        <pt x="243" y="636" on="1"/>
        <pt x="170" y="636" on="0"/>
        <pt x="101" y="606" on="1"/>
        <pt x="79" y="686" on="1"/>
        <pt x="150" y="706" on="0"/>
        <pt x="222" y="707" on="1"/>
        <pt x="338" y="707" on="0"/>
        <pt x="401" y="662" on="1"/>
        <pt x="522" y="577" on="0"/>
        <pt x="522" y="303" on="1"/>
        <pt x="522" y="155" on="0"/>
        <pt x="474" y="78" on="1"/>
        <pt x="414" y="-17" on="0"/>
      </contour>
      <contour>
        <pt x="441" y="358" on="1"/>
        <pt x="373" y="450" on="0"/>
        <pt x="283" y="451" on="1"/>
        <pt x="206" y="451" on="0"/>
        <pt x="167" y="387" on="1"/>
        <pt x="134" y="334" on="0"/>
        <pt x="134" y="252" on="1"/>
        <pt x="134" y="174" on="0"/>
        <pt x="171" y="118" on="1"/>
        <pt x="213" y="53" on="0"/>
        <pt x="287" y="53" on="1"/>
        <pt x="448" y="53" on="0"/>
        <pt x="447" y="268" on="1"/>
        <pt x="447" y="313" on="0"/>
      </contour>
    </TTGlyph>
    <TTGlyph name="percent" xMin="23" yMin="-80" xMax="522" yMax="666">
      <contour>
        <pt x="132" y="420" on="1"/>
        <pt x="79" y="420" on="0"/>
        <pt x="23" y="489" on="0"/>
        <pt x="23" y="544" on="1"/>
        <pt x="23" y="595" on="0"/>
        <pt x="82" y="666" on="0"/>
        <pt x="132" y="666" on="1"/>
        <pt x="182" y="666" on="0"/>
        <pt x="243" y="595" on="0"/>
        <pt x="243" y="544" on="1"/>
        <pt x="243" y="489" on="0"/>
        <pt x="215" y="456" on="1"/>
        <pt x="186" y="420" on="0"/>
      </contour>
      <contour>
        <pt x="110" y="-80" on="1"/>
        <pt x="34" y="-54" on="1"/>
        <pt x="420" y="643" on="1"/>
        <pt x="490" y="616" on="1"/>
      </contour>
      <contour>
        <pt x="411" y="-2" on="1"/>
        <pt x="355" y="-2" on="0"/>
        <pt x="298" y="68" on="0"/>
        <pt x="298" y="125" on="1"/>
        <pt x="298" y="177" on="0"/>
        <pt x="359" y="250" on="0"/>
        <pt x="411" y="250" on="1"/>
        <pt x="462" y="250" on="0"/>
        <pt x="522" y="177" on="0"/>
        <pt x="522" y="125" on="1"/>
        <pt x="522" y="69" on="0"/>
        <pt x="496" y="35" on="1"/>
        <pt x="466" y="-2" on="0"/>
      </contour>
      <contour>
        <pt x="131" y="608" on="1"/>
        <pt x="108" y="608" on="0"/>
        <pt x="95" y="585" on="1"/>
        <pt x="85" y="566" on="0"/>
        <pt x="85" y="541" on="1"/>
        <pt x="85" y="517" on="0"/>
        <pt x="96" y="498" on="1"/>
        <pt x="109" y="475" on="0"/>
        <pt x="132" y="475" on="1"/>
        <pt x="179" y="475" on="0"/>
        <pt x="179" y="541" on="1"/>
        <pt x="179" y="566" on="0"/>
        <pt x="168" y="585" on="1"/>
        <pt x="154" y="608" on="0"/>
      </contour>
      <contour>
        <pt x="410" y="190" on="1"/>
        <pt x="386" y="190" on="0"/>
        <pt x="373" y="166" on="1"/>
        <pt x="363" y="147" on="0"/>
        <pt x="362" y="121" on="1"/>
        <pt x="362" y="55" on="0"/>
        <pt x="411" y="55" on="1"/>
        <pt x="435" y="55" on="0"/>
        <pt x="446" y="78" on="1"/>
        <pt x="457" y="96" on="0"/>
        <pt x="458" y="121" on="1"/>
        <pt x="458" y="147" on="0"/>
        <pt x="446" y="166" on="1"/>
        <pt x="434" y="190" on="0"/>
      </contour>
    </TTGlyph>
    <TTGlyph name="period" xMin="62" yMin="-9" xMax="199" yMax="140">
      <contour>
        <pt x="131" y="-9" on="1"/>
        <pt x="101" y="-9" on="0"/>
        <pt x="62" y="36" on="0"/>
        <pt x="62" y="66" on="1"/>
        <pt x="62" y="96" on="0"/>
        <pt x="101" y="140" on="0"/>
        <pt x="131" y="140" on="1"/>
        <pt x="161" y="140" on="0"/>
        <pt x="199" y="95" on="0"/>
        <pt x="199" y="66" on="1"/>
        <pt x="199" y="36" on="0"/>
        <pt x="161" y="-9" on="0"/>
      </contour>
    </TTGlyph>
    <TTGlyph name="periodcentered" xMin="62" yMin="342" xMax="199" yMax="504">
      <contour>
        <pt x="131" y="342" on="1"/>
        <pt x="100" y="342" on="0"/>
        <pt x="62" y="392" on="0"/>
        <pt x="62" y="423" on="1"/>
        <pt x="62" y="454" on="0"/>
        <pt x="100" y="504" on="0"/>
        <pt x="131" y="504" on="1"/>
        <pt x="161" y="504" on="0"/>
        <pt x="181" y="478" on="1"/>
        <pt x="198" y="453" on="0"/>
        <pt x="199" y="423" on="1"/>
        <pt x="199" y="392" on="0"/>
        <pt x="181" y="368" on="1"/>
        <pt x="161" y="342" on="0"/>
      </contour>
    </TTGlyph>
    <TTGlyph name="perthousand" xMin="23" yMin="-80" xMax="861" yMax="666">
      <contour>
        <pt x="752" y="-6" on="1"/>
        <pt x="698" y="-6" on="0"/>
        <pt x="669" y="30" on="1"/>
        <pt x="641" y="63" on="0"/>
        <pt x="641" y="118" on="1"/>
        <pt x="641" y="169" on="0"/>
        <pt x="701" y="240" on="0"/>
        <pt x="752" y="240" on="1"/>
        <pt x="802" y="240" on="0"/>
        <pt x="861" y="169" on="0"/>
        <pt x="861" y="118" on="1"/>
        <pt x="861" y="63" on="0"/>
        <pt x="835" y="30" on="1"/>
        <pt x="806" y="-6" on="0"/>
      </contour>
      <contour>
        <pt x="132" y="420" on="1"/>
        <pt x="79" y="420" on="0"/>
        <pt x="23" y="489" on="0"/>
        <pt x="23" y="544" on="1"/>
        <pt x="23" y="595" on="0"/>
        <pt x="82" y="666" on="0"/>
        <pt x="132" y="666" on="1"/>
        <pt x="182" y="666" on="0"/>
        <pt x="243" y="595" on="0"/>
        <pt x="243" y="544" on="1"/>
        <pt x="243" y="489" on="0"/>
        <pt x="215" y="456" on="1"/>
        <pt x="186" y="420" on="0"/>
      </contour>
      <contour>
        <pt x="468" y="-6" on="1"/>
        <pt x="414" y="-6" on="0"/>
        <pt x="385" y="30" on="1"/>
        <pt x="357" y="63" on="0"/>
        <pt x="357" y="118" on="1"/>
        <pt x="357" y="169" on="0"/>
        <pt x="418" y="240" on="0"/>
        <pt x="468" y="240" on="1"/>
        <pt x="518" y="240" on="0"/>
        <pt x="578" y="169" on="0"/>
        <pt x="578" y="118" on="1"/>
        <pt x="578" y="63" on="0"/>
        <pt x="551" y="30" on="1"/>
        <pt x="522" y="-6" on="0"/>
      </contour>
      <contour>
        <pt x="110" y="-80" on="1"/>
        <pt x="34" y="-54" on="1"/>
        <pt x="420" y="643" on="1"/>
        <pt x="490" y="616" on="1"/>
      </contour>
      <contour>
        <pt x="751" y="182" on="1"/>
        <pt x="728" y="182" on="0"/>
        <pt x="715" y="159" on="1"/>
        <pt x="705" y="140" on="0"/>
        <pt x="705" y="115" on="1"/>
        <pt x="705" y="89" on="0"/>
        <pt x="715" y="72" on="1"/>
        <pt x="728" y="49" on="0"/>
        <pt x="752" y="49" on="1"/>
        <pt x="775" y="49" on="0"/>
        <pt x="787" y="72" on="1"/>
        <pt x="798" y="91" on="0"/>
        <pt x="799" y="115" on="1"/>
        <pt x="799" y="140" on="0"/>
        <pt x="787" y="159" on="1"/>
        <pt x="774" y="182" on="0"/>
      </contour>
      <contour>
        <pt x="131" y="608" on="1"/>
        <pt x="108" y="608" on="0"/>
        <pt x="95" y="585" on="1"/>
        <pt x="85" y="566" on="0"/>
        <pt x="85" y="541" on="1"/>
        <pt x="85" y="517" on="0"/>
        <pt x="96" y="498" on="1"/>
        <pt x="109" y="475" on="0"/>
        <pt x="132" y="475" on="1"/>
        <pt x="179" y="475" on="0"/>
        <pt x="179" y="541" on="1"/>
        <pt x="179" y="566" on="0"/>
        <pt x="168" y="585" on="1"/>
        <pt x="154" y="608" on="0"/>
      </contour>
      <contour>
        <pt x="467" y="182" on="1"/>
        <pt x="444" y="182" on="0"/>
        <pt x="431" y="159" on="1"/>
        <pt x="421" y="140" on="0"/>
        <pt x="421" y="115" on="1"/>
        <pt x="421" y="89" on="0"/>
        <pt x="431" y="72" on="1"/>
        <pt x="444" y="49" on="0"/>
        <pt x="468" y="49" on="1"/>
        <pt x="491" y="49" on="0"/>
        <pt x="504" y="72" on="1"/>
        <pt x="515" y="91" on="0"/>
        <pt x="515" y="115" on="1"/>
        <pt x="515" y="140" on="0"/>
        <pt x="504" y="159" on="1"/>
        <pt x="490" y="182" on="0"/>
      </contour>
    </TTGlyph>
    <TTGlyph name="pi" xMin="71" yMin="0" xMax="473" yMax="520">
      <contour>
        <pt x="383" y="0" on="1"/>
        <pt x="383" y="453" on="1"/>
        <pt x="202" y="453" on="1"/>
        <pt x="202" y="0" on="1"/>
        <pt x="112" y="0" on="1"/>
        <pt x="112" y="453" on="1"/>
        <pt x="71" y="453" on="1"/>
        <pt x="71" y="520" on="1"/>
        <pt x="473" y="520" on="1"/>
        <pt x="473" y="0" on="1"/>
      </contour>
    </TTGlyph>
</ttFont>
